<?xml version="1.0" standalone="no"?>
<!DOCTYPE svg PUBLIC "-//W3C//DTD SVG 20010904//EN"
 "http://www.w3.org/TR/2001/REC-SVG-20010904/DTD/svg10.dtd">
<svg version="1.0" xmlns="http://www.w3.org/2000/svg"
 width="1500.000000pt" height="936.000000pt" viewBox="0 0 1500.000000 936.000000"
 preserveAspectRatio="xMidYMid meet">

<g transform="translate(0.000000,936.000000) scale(0.100000,-0.100000)"
fill="#000000" stroke="none">
<path d="M5844 8940 c-45 -10 -92 -41 -146 -97 -63 -64 -78 -111 -78 -239 0
-85 -3 -104 -15 -104 -25 0 -35 -32 -24 -79 11 -48 26 -81 44 -96 7 -5 24 -41
40 -80 15 -38 40 -89 56 -113 28 -42 29 -46 29 -177 0 -78 -5 -144 -11 -159
-11 -23 -89 -66 -119 -66 -7 0 -51 -13 -99 -29 -47 -15 -118 -38 -157 -49
-168 -51 -206 -125 -219 -432 -6 -136 -10 -201 -36 -560 -5 -80 -10 -205 -10
-279 0 -106 -5 -160 -26 -260 -32 -154 -32 -257 -3 -501 11 -96 25 -213 30
-260 5 -47 19 -137 30 -200 35 -189 36 -223 5 -346 -21 -84 -26 -123 -22 -169
9 -85 34 -150 75 -193 l35 -37 -2 -231 c-1 -126 -6 -349 -11 -495 -9 -290 -3
-255 -100 -564 -28 -88 -46 -169 -55 -250 -8 -66 -19 -154 -25 -195 -8 -50
-11 -203 -9 -460 4 -457 0 -803 -10 -810 -16 -11 -19 -40 -10 -75 10 -34 6
-45 -45 -148 -75 -153 -109 -271 -102 -359 9 -116 63 -208 135 -228 112 -31
160 20 201 210 17 82 27 182 37 395 5 112 6 120 3 295 -2 117 0 135 38 280 49
187 70 283 82 373 5 37 30 163 54 280 84 395 106 565 105 787 0 47 7 112 15
145 8 33 25 128 36 210 12 83 29 186 40 230 10 44 44 190 75 325 31 135 65
277 75 315 11 39 22 94 25 123 11 107 88 528 110 602 7 22 85 22 85 0 0 -54
55 -460 79 -585 16 -82 43 -238 61 -345 17 -107 42 -244 55 -305 34 -158 54
-295 61 -415 3 -58 14 -138 25 -178 15 -58 19 -107 19 -255 0 -148 6 -222 30
-397 45 -323 60 -424 82 -550 11 -63 28 -173 39 -245 11 -71 27 -177 35 -235
17 -112 27 -326 23 -505 -1 -27 3 -129 8 -225 11 -185 23 -233 73 -298 41 -52
103 -67 159 -38 53 28 106 133 118 236 7 59 -31 175 -129 402 -14 31 -18 55
-14 75 18 73 18 78 -5 98 l-23 20 18 -29 c15 -23 16 -33 7 -53 -18 -40 -13
-74 25 -163 69 -163 108 -283 107 -335 0 -56 -30 -149 -64 -196 -23 -33 -73
-59 -112 -59 -37 0 -73 35 -107 104 -30 61 -32 69 -41 257 -9 189 -9 226 -8
432 1 121 -35 398 -97 757 -16 96 -60 400 -69 475 -3 28 -12 91 -21 140 -9 52
-17 184 -20 315 -4 160 -10 238 -21 270 -8 25 -19 104 -24 175 -9 128 -40 342
-61 420 -5 22 -14 65 -18 95 -5 30 -20 120 -34 200 -13 80 -27 161 -29 180 -3
19 -17 89 -30 155 -29 137 -38 197 -68 453 l-22 183 23 24 c35 37 15 43 -21 7
-40 -41 -72 -41 -109 0 -16 17 -33 29 -37 25 -4 -4 4 -19 18 -33 l26 -25 -33
-157 c-32 -151 -49 -252 -78 -447 -8 -49 -32 -164 -54 -255 -112 -457 -146
-612 -163 -752 -6 -51 -21 -143 -34 -205 -18 -83 -24 -143 -24 -230 0 -218 -9
-284 -109 -778 -22 -110 -48 -243 -58 -295 -9 -52 -30 -144 -46 -205 -60 -230
-70 -292 -63 -405 8 -140 8 -127 -5 -355 -12 -218 -27 -315 -65 -415 -31 -81
-62 -104 -125 -94 -79 13 -129 78 -151 198 -12 62 -11 72 16 166 15 55 54 152
86 217 45 89 56 120 49 134 -15 27 -12 75 6 90 14 12 15 69 9 593 -6 514 -5
593 10 686 9 58 20 148 26 200 6 59 25 144 50 225 22 72 47 153 56 180 35 116
42 177 49 420 4 138 6 324 5 415 -1 91 1 191 4 222 l7 57 26 -12 c15 -6 46
-26 69 -45 42 -33 68 -36 56 -7 -3 10 1 15 15 15 42 0 35 23 -21 74 -58 52
-76 93 -77 171 l0 30 23 -40 c18 -33 28 -40 52 -40 22 0 29 4 26 15 -8 33 -20
169 -20 233 -1 56 -6 77 -28 115 l-28 47 0 255 c1 439 17 519 171 851 72 156
78 191 45 300 -30 102 -101 427 -101 465 0 7 15 4 39 -8 59 -29 173 -44 223
-29 47 15 120 78 142 125 18 38 21 76 6 76 -5 0 -10 -10 -10 -23 0 -33 -52
-107 -96 -137 -71 -48 -236 -27 -300 37 -52 52 -65 85 -67 173 -1 81 -11 105
-19 50 -8 -54 10 -159 33 -192 l22 -30 -47 -232 c-56 -280 -68 -438 -42 -581
21 -116 20 -295 -1 -465 -12 -96 -17 -208 -17 -386 0 -250 1 -252 26 -300 22
-42 27 -67 32 -174 4 -69 10 -136 13 -149 4 -17 2 -22 -8 -19 -23 7 -62 97
-67 154 -7 88 -22 50 -22 -55 0 -108 25 -229 61 -290 l21 -36 -36 40 c-48 54
-87 136 -93 201 -3 30 -10 54 -16 54 -15 0 0 -106 23 -157 22 -51 14 -56 -17
-10 -28 41 -39 70 -47 131 -4 26 -11 44 -16 40 -14 -15 7 -112 35 -162 l26
-47 -25 24 c-35 33 -68 116 -74 186 -3 44 2 86 19 150 30 116 30 209 1 360
-21 107 -70 507 -87 705 -5 60 0 103 22 215 20 103 28 174 29 269 2 138 6 220
29 551 8 116 19 282 24 370 15 261 45 318 191 363 41 13 107 34 145 47 39 13
102 33 142 44 52 16 78 29 97 52 25 29 26 35 26 160 l0 130 57 -40 c73 -53
120 -55 184 -10 24 17 50 38 57 47 10 13 12 -10 12 -120 0 -132 1 -137 26
-167 19 -23 45 -36 97 -52 40 -11 104 -31 142 -44 39 -13 104 -34 145 -47 145
-45 175 -101 191 -363 5 -88 16 -254 24 -370 23 -334 27 -414 29 -551 1 -95 9
-166 29 -269 22 -112 27 -155 22 -215 -15 -177 -66 -594 -86 -700 -34 -188
-34 -221 -4 -345 20 -81 26 -126 22 -170 -5 -70 -38 -153 -73 -186 l-25 -24
26 47 c28 50 49 147 35 162 -5 4 -12 -14 -16 -40 -8 -61 -19 -90 -47 -131 -32
-47 -40 -41 -17 13 23 53 38 154 23 154 -6 0 -13 -24 -16 -54 -6 -65 -45 -147
-93 -201 l-36 -40 21 36 c36 61 61 182 61 290 0 105 -15 143 -22 55 -5 -57
-44 -147 -67 -154 -10 -3 -12 2 -8 19 3 13 9 80 12 148 6 107 10 132 32 175
26 51 26 52 26 306 0 178 -5 294 -16 385 -21 164 -22 344 -1 460 26 143 14
301 -42 581 l-47 232 22 30 c23 33 41 138 33 192 -8 55 -18 31 -19 -50 -2 -88
-15 -121 -67 -173 -40 -41 -107 -61 -197 -62 -53 0 -72 5 -103 25 -44 30 -96
104 -96 137 0 13 -4 23 -10 23 -15 0 -12 -38 6 -76 22 -47 95 -110 142 -125
50 -15 164 0 223 29 24 12 39 15 39 8 0 -38 -71 -363 -101 -465 -33 -109 -27
-144 45 -300 109 -235 135 -308 146 -412 28 -265 32 -346 27 -517 -5 -173 -7
-185 -31 -227 -21 -35 -26 -57 -27 -112 0 -64 -12 -200 -20 -233 -3 -11 4 -15
26 -15 24 0 34 7 52 40 l23 40 0 -30 c-1 -78 -19 -119 -77 -171 -56 -51 -63
-74 -21 -74 14 0 18 -5 15 -15 -12 -29 14 -25 57 9 23 20 46 36 50 36 3 0 5
-78 4 -172 -4 -257 3 -730 13 -838 5 -55 22 -138 40 -195 17 -55 37 -125 45
-155 23 -87 35 -468 24 -730 -25 -552 -28 -638 -22 -753 6 -109 8 -92 13 153
3 151 11 419 19 595 15 348 5 652 -24 750 -8 28 -29 97 -47 155 -31 102 -32
112 -40 360 -4 140 -8 386 -8 545 l-1 290 40 23 c50 29 85 80 105 157 21 82
19 123 -11 243 -30 118 -29 155 6 342 11 63 25 153 30 200 5 47 19 166 30 265
29 247 28 342 -3 495 -20 103 -26 166 -31 355 -3 127 -11 277 -16 335 -5 58
-15 206 -21 330 -19 397 -46 459 -223 512 -39 11 -110 34 -157 49 -48 16 -92
29 -99 29 -30 0 -108 43 -119 66 -6 15 -11 81 -11 159 0 131 1 135 29 177 16
24 41 75 56 113 16 39 33 75 40 80 18 15 33 48 44 96 11 47 1 79 -24 79 -12 0
-15 19 -15 101 0 141 -11 171 -90 251 -53 53 -77 69 -120 82 -56 17 -123 19
-176 6z m256 -74 c35 -28 65 -63 83 -96 25 -48 27 -61 27 -166 0 -114 -12
-150 -24 -73 -14 86 -84 182 -162 220 -67 32 -167 25 -226 -17 -61 -43 -115
-119 -130 -182 -23 -103 -33 -72 -29 93 3 97 34 160 109 219 112 89 241 90
352 2z m-96 -126 c37 -14 104 -77 131 -124 13 -23 29 -69 36 -104 6 -34 16
-65 20 -68 26 -16 -14 -201 -58 -272 -65 -103 -148 -172 -208 -172 -59 0 -143
69 -207 171 -47 74 -84 247 -60 275 5 5 15 36 22 69 7 33 19 73 27 89 22 43
94 117 128 132 35 16 133 18 169 4z m-376 -331 l-3 -64 -18 58 c-15 47 -16 61
-6 73 20 25 30 1 27 -67z m621 12 c-17 -78 -28 -82 -29 -10 0 70 6 87 26 67
10 -10 11 -24 3 -57z m-795 -1713 c22 -119 63 -301 82 -356 28 -85 20 -129
-54 -289 -38 -82 -77 -170 -88 -198 l-19 -50 -2 65 c-2 36 -10 117 -19 180
-24 161 -15 307 31 535 38 189 42 205 48 205 3 0 12 -42 21 -92z m1010 -110
c47 -237 55 -379 32 -538 -9 -63 -17 -144 -19 -180 l-2 -65 -19 50 c-11 28
-50 116 -88 198 -74 160 -82 204 -54 289 19 55 60 237 82 356 9 51 20 90 24
85 4 -4 24 -92 44 -195z m-1074 -2193 c22 -24 23 -25 3 -25 -11 0 -25 10 -31
25 -6 14 -8 25 -4 25 5 0 19 -11 32 -25z m1098 0 c-6 -15 -20 -25 -31 -25 -20
0 -19 1 3 25 13 14 27 25 32 25 4 0 2 -11 -4 -25z"/>
<path d="M8854 8930 c-45 -10 -92 -41 -146 -97 -63 -64 -78 -111 -78 -239 0
-85 -3 -104 -15 -104 -25 0 -35 -32 -24 -79 11 -48 26 -81 44 -96 7 -5 24 -41
40 -80 15 -38 40 -89 56 -113 28 -42 29 -46 29 -177 0 -78 -5 -144 -11 -159
-11 -23 -89 -66 -119 -66 -7 0 -51 -13 -99 -29 -47 -15 -118 -38 -157 -49
-128 -39 -171 -86 -199 -220 -17 -79 -34 -516 -34 -887 -1 -255 -2 -263 -31
-380 -24 -98 -30 -141 -30 -235 0 -125 15 -312 31 -400 6 -30 14 -104 19 -165
4 -60 21 -164 37 -230 34 -144 33 -205 -2 -305 -14 -41 -29 -108 -32 -147 -8
-99 11 -147 85 -213 l57 -51 5 -487 c3 -268 2 -512 -3 -542 -17 -121 -40 -218
-67 -285 -18 -45 -32 -107 -39 -170 -7 -55 -19 -146 -27 -203 -9 -57 -13 -122
-10 -145 3 -23 10 -253 16 -512 5 -259 14 -507 19 -553 7 -63 7 -93 -3 -127
-8 -24 -12 -63 -9 -87 4 -36 -5 -68 -59 -198 -63 -155 -63 -155 -63 -255 0
-116 13 -162 62 -216 66 -73 140 -73 206 0 48 53 54 89 68 419 10 234 10 289
-1 323 -11 33 -11 55 -1 117 6 42 14 109 17 147 10 148 53 422 95 605 17 74
35 173 40 220 6 47 24 162 39 255 37 211 50 327 50 430 0 44 11 166 24 270 14
105 30 237 35 295 20 192 30 249 81 450 39 157 55 244 74 417 14 120 34 263
44 318 11 55 26 142 33 193 12 86 15 95 41 108 36 19 38 18 38 -13 0 -16 13
-95 29 -178 16 -82 43 -239 60 -349 17 -109 33 -202 36 -206 6 -10 53 -190
110 -420 48 -193 61 -274 70 -430 7 -112 29 -232 50 -265 19 -32 35 -175 36
-329 0 -147 12 -245 46 -381 11 -44 30 -134 43 -200 12 -66 29 -156 37 -200 9
-44 16 -87 16 -95 0 -8 8 -51 18 -95 10 -44 30 -143 44 -220 14 -77 34 -174
45 -215 14 -54 18 -99 15 -160 -7 -133 -7 -136 4 -295 21 -342 46 -454 116
-521 30 -29 55 -44 83 -49 61 -10 93 12 132 90 32 65 33 68 27 163 -9 151 -64
329 -127 409 -16 20 -20 40 -19 92 0 36 -5 80 -11 96 -9 21 -13 178 -16 550
-4 545 -17 933 -35 999 -6 22 -33 96 -61 164 -59 146 -60 152 -80 727 -16 456
-14 556 9 569 10 5 37 28 61 51 l42 42 0 77 c0 72 -17 223 -40 356 -11 63 -6
99 44 350 36 178 51 344 60 649 4 120 2 140 -20 203 -30 89 -32 110 -39 378
-3 124 -10 266 -15 315 -6 50 -12 140 -15 200 -6 141 -22 313 -36 392 -9 50
-19 72 -51 108 -51 58 -86 75 -228 114 -193 54 -248 72 -268 92 -26 24 -35 95
-28 226 4 90 8 106 35 149 17 26 31 54 31 61 0 23 32 108 44 118 51 40 66 175
21 175 -12 0 -15 19 -15 101 0 141 -11 171 -90 251 -53 53 -77 69 -120 82 -56
17 -123 19 -176 6z m256 -74 c36 -28 65 -62 83 -97 27 -52 28 -60 27 -194 0
-77 -4 -164 -9 -193 -13 -81 -65 -127 -166 -143 l-50 -8 57 3 c42 2 68 10 99
30 l42 28 -7 -42 c-7 -47 -37 -110 -61 -130 -13 -11 -22 -11 -52 4 -48 23 -54
13 -6 -11 l38 -20 5 -144 c3 -85 10 -153 17 -165 17 -30 49 -48 123 -68 36
-10 123 -36 193 -58 220 -67 246 -109 267 -428 6 -96 16 -222 21 -280 6 -58
14 -233 19 -390 8 -265 10 -291 34 -365 22 -69 26 -98 26 -210 0 -270 -17
-444 -67 -697 l-47 -236 12 -94 c54 -405 54 -407 -16 -469 l-47 -41 -3 55 c-2
42 2 63 17 88 12 19 21 45 20 59 0 20 -4 15 -17 -20 l-17 -45 -2 100 c-8 412
-35 699 -90 945 -31 136 -31 153 -2 492 11 135 7 245 -12 280 -17 32 -57 252
-69 379 -10 111 -10 138 9 264 24 161 24 158 12 151 -4 -3 -11 -36 -15 -73 -9
-91 -33 -221 -58 -313 -27 -100 -35 -139 -47 -240 -6 -47 -20 -114 -32 -150
-13 -41 -21 -96 -22 -150 l-1 -85 62 -127 c113 -231 158 -373 202 -640 30
-185 41 -409 45 -998 5 -587 8 -707 29 -976 l15 -182 54 -133 c30 -74 57 -153
61 -175 15 -101 26 -509 27 -979 1 -411 4 -515 15 -537 8 -15 14 -57 14 -95 0
-60 4 -74 36 -125 62 -101 114 -294 114 -422 0 -55 -42 -158 -75 -186 -27 -22
-89 -16 -134 13 -74 49 -105 161 -122 453 -6 104 -15 205 -21 224 -6 24 -6 44
1 62 19 51 14 158 -12 268 -14 58 -33 148 -42 200 -8 52 -24 138 -35 190 -22
108 -38 196 -75 395 -14 77 -36 185 -50 240 -31 127 -44 240 -44 385 0 144
-17 292 -41 347 -25 57 -37 128 -45 256 -3 60 -12 147 -21 194 -14 83 -149
626 -159 643 -3 5 -14 71 -26 147 -11 76 -38 236 -60 357 -22 120 -39 220 -37
222 2 2 24 -3 48 -10 161 -48 345 -19 430 69 30 31 78 135 62 135 -5 0 -14
-18 -21 -40 -16 -54 -63 -105 -125 -138 -48 -26 -58 -27 -186 -27 -117 1 -141
4 -182 23 l-48 21 -2 108 -1 108 -7 -115 c-4 -63 -8 -115 -9 -116 -10 -7 -94
-25 -160 -35 -190 -27 -319 22 -380 146 -11 22 -20 35 -21 28 -1 -46 69 -131
133 -161 81 -38 144 -44 257 -27 57 8 107 15 112 15 10 0 6 -31 -32 -250 -27
-155 -33 -205 -61 -455 -6 -55 -35 -199 -65 -320 -35 -147 -58 -268 -69 -365
-8 -80 -27 -235 -41 -345 -15 -110 -30 -274 -34 -365 -5 -103 -20 -231 -38
-340 -17 -96 -33 -204 -37 -240 -3 -36 -24 -148 -45 -250 -22 -102 -44 -214
-49 -250 -21 -137 -40 -288 -47 -360 -3 -41 -12 -108 -19 -148 -12 -62 -12
-78 1 -114 12 -35 13 -81 4 -312 -15 -381 -24 -420 -112 -464 l-48 -24 -44 21
c-59 29 -92 80 -107 165 -21 122 -9 174 97 423 30 72 34 87 25 118 -7 27 -6
47 6 81 13 40 14 60 3 152 -6 59 -15 298 -18 532 -9 585 -9 635 5 715 6 39 16
111 22 160 6 53 20 115 35 152 29 69 41 118 61 243 11 68 13 216 9 772 -7 924
10 1301 67 1512 6 23 13 59 16 81 5 48 53 171 139 356 70 151 77 192 49 285
-26 85 -62 244 -85 374 -12 69 -28 145 -36 170 -7 25 -17 83 -20 130 -4 47
-11 94 -15 105 -10 22 -7 -24 12 -173 10 -79 9 -103 -5 -170 -9 -42 -18 -102
-21 -132 -10 -126 -24 -229 -40 -290 -14 -55 -16 -89 -9 -215 13 -263 10 -492
-9 -575 -35 -160 -48 -323 -54 -665 -3 -187 -7 -341 -8 -343 -1 -1 -12 17 -24
40 -19 37 -21 39 -16 13 3 -16 15 -43 26 -58 11 -15 19 -39 17 -54 l-3 -26
-27 28 c-15 14 -34 45 -42 68 -12 35 -15 38 -15 16 -1 -28 40 -96 71 -117 30
-22 10 -34 -23 -15 -41 25 -87 96 -95 149 -8 54 -2 91 38 222 35 119 35 144
-6 320 -15 62 -31 161 -36 220 -4 59 -16 159 -25 222 -11 71 -18 184 -19 295
-1 171 1 185 28 280 l29 100 2 320 c2 372 20 753 41 843 26 118 60 154 179
192 39 12 102 33 140 45 39 13 102 33 142 44 52 16 78 29 97 52 25 29 26 36
26 157 0 70 3 137 6 149 3 12 20 27 37 34 17 7 25 15 18 17 -6 2 -22 -3 -35
-11 -22 -15 -25 -14 -44 6 -30 32 -94 167 -79 167 2 0 25 -11 49 -25 37 -20
63 -26 139 -29 l94 -5 -90 10 c-90 10 -149 32 -191 70 -18 17 -23 37 -29 112
-4 51 -7 137 -6 192 1 128 25 183 109 249 112 89 240 89 352 2z m-472 -457
l-3 -64 -18 58 c-15 47 -16 61 -6 73 20 25 30 1 27 -67z m621 12 c-17 -78 -28
-82 -29 -10 0 70 6 87 26 67 10 -10 11 -24 3 -57z m204 -1717 c4 -54 14 -126
23 -159 68 -252 65 -196 36 -655 l-7 -115 -29 75 c-16 41 -58 135 -94 209
l-65 135 6 85 c3 47 16 129 30 182 14 53 29 125 32 160 3 35 16 102 28 148 25
100 31 90 40 -65z m-999 4 c22 -119 63 -301 82 -356 28 -85 20 -129 -54 -289
-38 -82 -77 -170 -88 -198 l-19 -50 -6 105 c-4 58 -12 134 -18 170 -15 91 -13
205 4 270 8 30 20 96 25 145 18 158 43 295 54 295 2 0 11 -42 20 -92z"/>
<path d="M8180 6152 c0 -5 13 -15 29 -22 24 -9 34 -9 58 3 l28 16 -42 -6 c-27
-4 -48 -1 -58 7 -8 7 -15 8 -15 2z"/>
<path d="M9655 6141 c-40 -5 -45 -7 -26 -13 27 -8 79 0 87 13 3 5 2 8 -3 7 -4
0 -30 -4 -58 -7z"/>
<path d="M9695 4584 c-4 -22 -16 -52 -27 -67 -25 -36 -17 -47 10 -12 20 25 39
101 29 112 -3 3 -9 -12 -12 -33z"/>
<path d="M8413 3415 c-18 -8 -33 -18 -33 -23 0 -6 17 -1 37 9 39 20 66 17 96
-9 9 -8 20 -13 23 -10 9 10 -47 48 -70 48 -11 -1 -36 -7 -53 -15z"/>
<path d="M9453 3408 c-18 -13 -33 -27 -33 -31 0 -4 17 4 37 18 46 30 62 31 97
4 14 -11 26 -16 26 -10 0 16 -42 41 -70 41 -14 0 -40 -10 -57 -22z"/>
<path d="M9860 1095 c0 -9 -11 -27 -25 -40 -31 -32 -87 -34 -112 -5 -10 11
-22 20 -27 20 -17 0 35 -48 59 -54 45 -11 95 21 117 76 4 10 3 18 -2 18 -6 0
-10 -7 -10 -15z"/>
<path d="M8159 1068 c23 -65 173 -64 170 0 0 13 -3 11 -11 -6 -6 -12 -22 -25
-36 -29 -39 -9 -96 9 -107 35 -5 12 -13 22 -17 22 -4 0 -4 -10 1 -22z"/>
<path d="M5700 7584 c-47 -14 -89 -30 -94 -35 -16 -15 13 -10 103 16 47 14 93
25 102 25 9 0 36 -16 59 -35 23 -19 48 -35 55 -35 7 0 32 16 55 35 23 19 50
35 59 35 9 0 55 -11 102 -25 90 -26 119 -31 103 -16 -12 12 -182 61 -211 61
-13 0 -40 -16 -62 -35 -21 -19 -42 -35 -46 -35 -4 0 -25 16 -46 35 -47 42 -63
43 -179 9z"/>
<path d="M5166 6221 c-3 -5 13 -11 37 -13 47 -5 52 -4 42 11 -8 13 -72 15 -79
2z"/>
<path d="M6605 6219 c-10 -15 -5 -16 42 -11 24 2 40 8 37 13 -7 13 -71 11 -79
-2z"/>
<path d="M5300 3482 c0 -6 12 -20 26 -31 30 -24 90 -27 117 -7 26 20 20 30 -8
12 -35 -23 -69 -20 -104 10 -17 14 -31 21 -31 16z"/>
<path d="M6312 3468 c8 -24 72 -52 101 -44 31 7 72 44 61 54 -3 4 -9 1 -11 -6
-5 -13 -54 -42 -71 -42 -5 0 -26 11 -47 25 -20 14 -35 20 -33 13z"/>
</g>
</svg>
