<?xml version="1.0" standalone="no"?>
<!DOCTYPE svg PUBLIC "-//W3C//DTD SVG 20010904//EN"
 "http://www.w3.org/TR/2001/REC-SVG-20010904/DTD/svg10.dtd">
<svg version="1.0" xmlns="http://www.w3.org/2000/svg"
 width="1500.000000pt" height="936.000000pt" viewBox="0 0 1500.000000 936.000000"
 preserveAspectRatio="xMidYMid meet">

<g transform="translate(0.000000,936.000000) scale(0.100000,-0.100000)"
fill="#000000" stroke="none">
<path d="M8536 5236 c-3 -28 -11 -116 -16 -196 -6 -80 -18 -183 -26 -231 -15
-82 -17 -207 -2 -149 8 33 36 236 45 335 l8 79 65 14 c41 8 170 15 352 19
l286 5 4 -23 c2 -13 0 -51 -4 -84 -12 -97 -10 -1089 2 -1093 21 -7 11 -108
-18 -178 -33 -78 -60 -182 -96 -364 -14 -69 -37 -168 -51 -220 -34 -121 -39
-291 -11 -385 31 -103 25 -143 -38 -253 -122 -214 -131 -255 -86 -397 43 -137
49 -243 21 -349 -12 -44 -21 -99 -21 -123 0 -51 8 -50 -164 -27 -105 15 -137
15 -243 4 -99 -10 -132 -10 -167 0 -75 21 -78 30 -49 140 24 93 24 100 18 365
-7 282 -4 326 37 582 22 135 24 142 48 146 30 6 91 -3 107 -15 7 -5 17 -7 22
-4 5 4 29 1 53 -5 54 -15 93 -6 112 24 9 13 21 86 31 181 20 196 41 310 65
358 40 77 34 162 -13 193 -12 7 -62 21 -112 30 -72 13 -143 31 -163 41 -1 0
-7 70 -12 155 -30 458 -39 637 -34 666 7 38 -3 103 -16 103 -12 0 -4 -632 11
-800 13 -147 7 -281 -16 -375 -8 -35 -10 -62 -5 -65 5 -3 -2 -48 -16 -105 -35
-135 -38 -154 -25 -135 13 18 13 3 1 -25 -6 -14 -9 -15 -10 -5 -4 40 -43 -176
-46 -250 -1 -47 -9 -122 -18 -168 -29 -151 -41 -397 -26 -525 16 -142 9 -300
-18 -385 -19 -60 -20 -65 -4 -93 11 -18 33 -35 61 -46 38 -15 57 -15 175 -4
94 8 153 9 211 1 227 -29 227 -29 227 38 -1 20 9 77 20 127 27 115 21 227 -17
335 -41 115 -39 167 13 275 24 49 58 114 77 145 52 85 58 130 34 231 -33 136
-28 269 16 435 20 74 45 185 55 246 21 115 75 304 91 313 10 7 54 -137 70
-230 8 -49 10 -142 5 -317 -8 -272 -7 -276 56 -364 36 -50 37 -61 24 -224 -7
-77 -5 -106 9 -153 14 -50 15 -68 5 -121 -10 -56 -10 -68 10 -122 13 -32 31
-83 42 -113 12 -33 25 -112 32 -200 8 -80 18 -158 24 -173 19 -46 80 -105 134
-128 50 -21 60 -22 193 -15 77 5 182 8 233 8 50 0 92 2 92 4 0 1 -9 12 -19 22
-32 32 -45 145 -43 371 1 113 7 240 12 282 17 119 15 421 -3 494 -8 33 -19 70
-26 82 -14 27 -15 53 -1 32 13 -19 11 -6 -45 220 -24 96 -49 204 -55 240 -22
118 -21 310 3 530 20 182 22 233 16 455 -10 343 -18 425 -75 775 -3 14 -8 58
-13 98 -5 40 -11 75 -13 78 -3 3 -316 6 -696 8 l-690 3 -6 -51z m713 29 c634
-2 655 -2 661 -21 11 -29 20 -140 11 -126 -13 21 -1221 11 -1308 -10 -34 -9
-65 -13 -68 -10 -5 5 1 83 11 150 4 27 9 32 22 27 9 -4 311 -9 671 -10z m606
-174 l80 -6 6 -85 c3 -47 11 -202 17 -345 7 -143 17 -314 22 -380 6 -66 10
-145 10 -175 0 -31 5 -61 11 -67 9 -9 2 -109 -27 -340 l-5 -43 -123 0 c-114 0
-124 -1 -143 -22 -32 -37 -34 -54 -13 -156 36 -179 51 -286 61 -427 11 -176
17 -211 35 -226 15 -12 80 -9 209 11 106 16 110 14 124 -73 15 -90 15 -378 1
-479 -16 -114 -15 -520 2 -594 l14 -62 -85 -6 c-329 -24 -360 -21 -436 46 -55
49 -70 95 -84 270 -8 93 -18 144 -37 195 -59 156 -57 144 -44 205 11 48 10 67
-5 128 -14 58 -16 88 -9 154 14 137 11 180 -18 218 -65 85 -63 75 -63 408 l0
305 -28 85 c-20 61 -31 119 -37 205 -5 65 -14 129 -21 141 -8 16 -9 104 -3
349 5 180 6 329 2 332 -10 5 -10 227 -2 351 l7 91 61 4 c71 5 404 -2 521 -12z
m132 -478 c-2 -16 -4 -5 -4 22 0 28 2 40 4 28 2 -13 2 -35 0 -50z m-1264
-1024 c60 -12 94 -33 98 -59 2 -8 -13 -63 -32 -122 l-34 -108 -85 0 c-47 0
-102 4 -123 9 -21 5 -39 5 -43 0 -7 -12 39 -29 78 -29 l31 0 -7 -72 c-6 -61
-47 -278 -62 -327 -3 -11 -18 -12 -67 -6 -34 3 -63 8 -64 9 -3 3 15 112 32
194 7 34 10 64 6 66 -4 3 5 56 21 118 15 62 33 163 39 223 6 61 12 115 14 121
3 12 97 4 198 -17z m1251 -71 c3 -57 9 -124 12 -150 l6 -46 -73 -1 c-41 0 -93
-3 -116 -7 -38 -6 -43 -4 -43 14 0 10 -13 66 -30 123 -46 159 -39 169 120 169
l117 0 7 -102z m-55 -380 c-1 -84 2 -183 6 -219 4 -37 3 -69 -1 -72 -5 -2 -32
-8 -61 -12 -47 -6 -53 -5 -63 16 -12 22 -33 416 -23 432 2 4 35 7 73 7 l70 0
-1 -152z m92 95 c6 -32 27 -112 45 -178 19 -66 34 -134 34 -152 0 -34 3 -33
-101 -47 l-36 -4 -8 144 c-3 79 -4 178 0 219 7 70 9 75 30 75 21 0 25 -8 36
-57z m-1258 27 c4 -3 3 -38 -2 -76 -5 -38 -15 -122 -22 -187 -8 -82 -17 -124
-28 -139 -17 -20 -20 -20 -70 -7 -29 7 -56 20 -59 28 -3 7 7 68 21 135 15 67
30 148 33 181 3 33 7 65 9 71 4 12 104 7 118 -6z"/>
<path d="M4616 5196 c-3 -28 -11 -116 -16 -196 -6 -80 -17 -183 -25 -230 -40
-243 -41 -494 -3 -870 15 -141 14 -355 -2 -475 -6 -49 -25 -144 -41 -210 -40
-158 -44 -174 -30 -155 13 18 13 3 1 -25 -6 -14 -9 -16 -10 -5 -5 38 -42 -165
-46 -250 -2 -52 -11 -130 -19 -174 -26 -137 -40 -404 -27 -505 20 -145 15
-273 -12 -375 -22 -83 -23 -90 -7 -117 10 -18 33 -35 60 -46 38 -15 57 -15
175 -4 94 8 153 9 211 1 157 -20 212 -23 219 -12 4 6 8 37 10 69 2 32 12 87
21 123 24 90 15 219 -20 320 -41 115 -39 167 13 275 24 49 58 114 77 145 54
89 59 125 35 227 -34 141 -29 272 15 439 20 74 45 185 55 246 21 115 75 304
91 313 10 7 54 -137 70 -230 8 -49 10 -142 5 -317 -8 -272 -7 -276 56 -364 36
-50 37 -61 24 -224 -7 -77 -5 -106 9 -153 14 -50 15 -68 5 -121 -10 -56 -10
-68 10 -122 13 -32 31 -83 42 -113 12 -33 25 -112 32 -200 8 -80 18 -158 24
-173 19 -46 80 -105 134 -128 50 -21 60 -22 193 -15 77 5 182 8 233 8 50 0 92
2 92 4 0 1 -9 12 -19 22 -31 31 -45 145 -43 364 1 109 6 237 12 285 18 145 16
415 -4 505 -10 42 -22 80 -27 83 -5 3 -9 13 -8 22 0 14 2 13 9 -3 19 -44 8 13
-39 202 -27 109 -55 227 -61 263 -22 118 -21 309 4 530 20 185 22 232 15 485
-7 287 -11 330 -59 640 -16 99 -31 202 -33 228 -3 26 -7 50 -10 53 -2 3 -315
6 -695 8 l-690 3 -6 -51z m712 29 c359 -1 655 -4 658 -8 7 -6 22 -113 29 -212
3 -38 12 -144 21 -234 8 -90 12 -166 9 -169 -6 -7 -162 52 -236 89 -61 30
-105 75 -115 116 -4 14 -1 71 5 127 7 56 14 108 14 116 2 12 26 15 137 18 74
1 138 6 143 11 5 5 -267 8 -615 6 -509 -2 -634 -5 -685 -18 -34 -8 -65 -12
-68 -9 -5 5 1 83 11 150 4 27 9 32 22 27 9 -4 311 -9 670 -10z m-365 -302 c-3
-82 -10 -153 -15 -160 -9 -11 -351 -203 -362 -203 -11 0 -6 111 9 214 8 55 18
137 22 181 l8 80 45 8 c90 16 166 24 232 26 l67 1 -6 -147z m363 34 c-11 -185
-8 -1081 4 -1085 21 -7 11 -108 -18 -178 -37 -90 -56 -161 -86 -319 -14 -71
-39 -182 -56 -245 -39 -142 -45 -305 -16 -405 31 -103 25 -143 -38 -253 -122
-214 -131 -255 -86 -397 43 -137 49 -243 21 -349 -12 -44 -21 -99 -21 -123 0
-51 6 -50 -160 -27 -100 14 -133 15 -251 4 -129 -12 -138 -11 -181 8 -25 11
-48 24 -51 28 -2 5 6 52 20 104 24 93 24 100 18 365 -7 282 -4 326 37 582 22
135 24 142 48 146 30 6 91 -3 107 -15 7 -5 17 -7 22 -4 5 4 29 1 53 -5 54 -15
93 -6 112 24 9 13 21 86 31 181 20 196 41 310 65 358 40 77 34 162 -13 193
-12 7 -60 21 -107 29 -47 9 -104 21 -126 28 -40 11 -42 13 -48 62 -3 28 -6 74
-6 101 0 28 -4 95 -10 150 -18 193 -30 461 -24 538 l7 77 93 50 c52 28 137 73
189 101 52 28 102 60 110 72 11 16 15 52 15 147 0 188 -19 170 183 170 l170 0
-7 -113z m179 -122 c-1 -214 -2 -234 -23 -285 -22 -54 -113 -170 -134 -170
-12 0 -7 658 6 678 5 9 29 12 79 10 l72 -3 0 -230z m185 193 c0 -23 -5 -79
-12 -125 -11 -78 -11 -86 9 -127 12 -24 37 -55 55 -69 35 -26 193 -97 266
-118 l42 -12 0 -126 c0 -142 16 -364 31 -430 9 -40 2 -130 -27 -368 l-5 -43
-123 0 c-114 0 -124 -1 -143 -22 -32 -37 -34 -54 -13 -156 36 -179 51 -286 60
-427 11 -160 18 -205 32 -222 14 -17 68 -16 185 3 135 21 138 20 152 -69 15
-90 15 -378 1 -479 -16 -114 -15 -520 2 -594 l14 -62 -85 -6 c-329 -24 -360
-21 -436 46 -55 49 -70 95 -84 270 -8 93 -18 144 -37 195 -14 37 -32 85 -40
107 -12 31 -13 49 -3 98 10 52 10 71 -6 130 -14 56 -16 84 -9 151 14 138 11
181 -18 219 -65 85 -63 75 -63 408 l0 305 -28 85 c-21 62 -31 119 -37 209 -6
69 -14 129 -20 135 -6 6 -10 88 -10 212 l0 202 34 25 c19 15 54 53 79 86 63
85 81 161 76 339 -2 75 -2 167 -1 205 l2 67 80 0 80 0 0 -42z m389 -475 l-2
-78 -7 70 c-7 65 -6 85 6 85 2 0 3 -35 3 -77z m-1276 -1004 c60 -12 94 -33 98
-59 2 -8 -13 -63 -32 -122 l-34 -108 -85 0 c-47 0 -102 4 -123 9 -21 5 -39 5
-43 0 -7 -12 39 -29 78 -29 l31 0 -7 -72 c-6 -61 -47 -278 -62 -327 -3 -11
-18 -12 -67 -6 -34 3 -63 8 -64 9 -3 3 15 112 32 194 7 34 10 64 6 66 -4 3 5
56 21 118 15 62 33 163 39 223 6 61 12 115 14 121 3 12 97 4 198 -17z m1251
-71 c3 -57 9 -124 12 -150 l6 -46 -73 -1 c-41 0 -93 -3 -116 -7 -40 -6 -43 -5
-43 17 0 13 -14 69 -30 123 -47 155 -39 166 120 166 l117 0 7 -102z m-55 -380
c-1 -84 2 -183 6 -219 4 -37 3 -69 -1 -72 -5 -2 -32 -8 -61 -12 -47 -6 -53 -5
-63 16 -12 22 -33 416 -23 432 2 4 35 7 73 7 l70 0 -1 -152z m92 95 c6 -32 27
-112 45 -178 19 -66 34 -134 34 -152 0 -34 3 -33 -101 -47 l-36 -4 -7 139 c-4
76 -4 175 0 219 6 75 8 80 30 80 20 0 24 -8 35 -57z m-1262 31 c9 -3 12 -14 8
-34 -4 -16 -14 -100 -22 -187 -16 -154 -30 -203 -58 -203 -6 0 -32 6 -57 14
-32 9 -46 19 -48 33 -2 11 8 69 22 129 14 60 28 138 31 174 4 36 8 70 10 76 3
11 78 9 114 -2z"/>
</g>
</svg>
