<?xml version="1.0" standalone="no"?>
<!DOCTYPE svg PUBLIC "-//W3C//DTD SVG 20010904//EN"
 "http://www.w3.org/TR/2001/REC-SVG-20010904/DTD/svg10.dtd">
<svg version="1.0" xmlns="http://www.w3.org/2000/svg"
 width="1500.000000pt" height="936.000000pt" viewBox="0 0 1500.000000 936.000000"
 preserveAspectRatio="xMidYMid meet">

<g transform="translate(0.000000,936.000000) scale(0.100000,-0.100000)"
fill="#000000" stroke="none">
<path d="M8399 5844 c-81 -178 -138 -704 -125 -1149 3 -115 9 -446 12 -735 6
-563 3 -629 -41 -769 -31 -99 -62 -240 -70 -321 -11 -111 -17 -819 -10 -1157
l7 -322 90 -3 c106 -4 102 -7 113 113 4 41 13 106 21 144 7 39 20 135 29 215
9 80 20 161 25 180 5 19 16 87 25 150 21 155 76 420 86 420 5 0 8 10 7 23 0
12 9 69 21 127 17 79 24 160 30 330 5 124 13 237 19 251 6 15 16 82 23 150 22
226 81 610 129 844 11 55 27 165 35 245 8 80 24 192 34 250 20 110 36 209 46
297 7 52 7 52 41 51 39 -1 38 1 58 -135 8 -56 24 -128 35 -160 10 -32 24 -94
31 -138 6 -44 20 -118 31 -165 10 -47 21 -107 25 -135 3 -27 19 -104 36 -170
46 -185 48 -193 73 -310 13 -60 31 -144 40 -185 12 -51 17 -113 16 -192 -2
-102 2 -131 30 -235 29 -108 32 -134 36 -308 4 -166 8 -204 33 -305 15 -63 31
-140 35 -170 14 -113 66 -402 81 -442 52 -146 117 -468 131 -646 l6 -82 96 2
96 3 -1 80 c0 44 -1 229 -1 410 -1 535 -3 663 -14 790 -12 144 -59 400 -94
510 -61 196 -89 578 -101 1370 -3 215 -6 410 -8 435 -9 172 -17 318 -21 400
-4 94 -45 271 -95 414 -11 33 -20 67 -20 76 0 15 -42 16 -526 16 l-527 0 -28
-62z m1085 -48 c76 -240 84 -287 97 -531 6 -126 13 -255 14 -285 2 -30 8 -305
15 -610 6 -305 15 -613 19 -685 11 -173 44 -379 81 -506 38 -132 76 -341 90
-489 6 -63 11 -375 13 -693 l2 -577 -76 0 -77 0 -6 68 c-20 197 -84 512 -131
642 -15 44 -67 320 -80 430 -3 30 -20 111 -37 180 -27 112 -30 144 -33 310 -3
169 -6 195 -34 304 -34 130 -43 280 -18 289 9 3 9 9 0 28 -7 13 -20 62 -28
109 -16 90 -40 201 -104 470 -43 179 -64 284 -87 426 -8 50 -26 136 -40 190
-29 110 -38 154 -55 262 -11 71 -12 73 -35 68 -14 -4 -34 -2 -45 5 -11 6 -23
8 -25 6 -3 -3 -14 -65 -24 -138 -11 -74 -29 -179 -40 -234 -11 -55 -27 -165
-35 -245 -8 -80 -26 -202 -40 -272 -14 -70 -32 -173 -40 -230 -8 -57 -20 -114
-25 -128 -10 -26 -28 -168 -55 -425 -9 -82 -23 -175 -31 -205 -10 -37 -16
-118 -19 -245 -4 -215 -9 -258 -37 -369 -30 -124 -77 -358 -98 -496 -10 -69
-25 -165 -34 -215 -9 -49 -20 -133 -25 -185 -5 -52 -16 -135 -25 -185 -8 -49
-19 -121 -23 -160 -5 -46 -12 -70 -20 -69 -7 1 -43 2 -80 3 l-68 1 -4 618 c-4
784 3 876 97 1202 l27 95 -2 580 c-1 319 -4 672 -8 785 -14 421 43 976 117
1141 l26 56 508 0 509 0 29 -91z"/>
<path d="M5391 5886 c-5 -6 -22 -42 -38 -81 -29 -69 -29 -74 -31 -270 -1 -110
-5 -279 -8 -376 l-7 -177 32 -58 c29 -54 31 -64 31 -159 0 -59 6 -122 14 -148
8 -26 10 -47 6 -47 -18 0 -49 53 -60 103 -18 81 -21 88 -30 82 -12 -7 -2 -201
12 -237 5 -14 27 -42 49 -61 42 -38 49 -57 22 -57 -13 0 -14 -3 -5 -12 7 -7
12 -19 12 -27 0 -10 -11 -5 -32 16 -18 17 -54 40 -80 51 -42 18 -47 19 -48 4
-1 -10 -5 -181 -10 -382 -5 -201 -13 -399 -19 -440 -5 -41 -13 -115 -17 -165
-6 -96 -32 -199 -90 -360 -55 -153 -63 -253 -69 -809 -3 -265 -7 -546 -10
-626 -3 -80 -2 -170 3 -200 l7 -55 40 3 c22 1 65 5 96 8 l56 6 6 86 c3 48 21
161 40 252 19 91 44 215 56 275 11 61 34 169 51 240 87 372 130 654 145 958 2
52 14 136 25 187 11 50 23 115 25 143 3 28 17 105 31 172 14 66 36 170 49 230
25 117 27 125 73 310 17 66 33 141 36 166 3 25 14 86 25 135 11 49 25 125 31
169 7 44 21 106 31 138 11 32 27 104 35 160 20 136 18 133 58 134 34 1 34 0
41 -51 10 -87 26 -186 46 -296 10 -58 25 -170 33 -250 9 -80 25 -190 36 -245
48 -234 107 -618 129 -844 7 -68 17 -135 23 -150 6 -14 14 -127 19 -251 6
-170 13 -250 30 -330 12 -58 22 -112 21 -120 -1 -39 41 -342 68 -490 52 -289
97 -651 88 -713 -3 -24 -14 -23 141 -19 l79 2 6 113 c20 399 28 1135 13 1307
-9 106 -36 237 -72 350 -38 122 -45 211 -46 583 0 194 -4 408 -8 477 -5 79 -4
130 2 138 33 43 -41 6 -91 -45 -22 -22 -50 -23 -36 -2 3 6 -1 18 -10 28 -15
16 -14 19 7 38 12 11 32 24 44 27 12 4 26 21 33 39 12 33 31 276 23 290 -10
16 -21 -5 -28 -51 -7 -51 -42 -123 -63 -130 -9 -3 -10 3 -2 24 6 15 13 83 16
152 5 115 8 129 35 178 l30 52 -6 239 c-13 555 -10 514 -47 600 l-33 78 -528
1 c-366 0 -530 -3 -536 -10z m1081 -75 l30 -66 9 -378 9 -379 -29 -58 c-26
-50 -30 -72 -36 -176 -4 -66 -11 -134 -17 -152 -21 -69 32 -76 72 -9 l20 32 0
-37 c0 -20 -5 -59 -12 -87 -9 -40 -17 -52 -39 -61 -15 -6 -37 -22 -49 -35 -21
-22 -22 -27 -10 -57 27 -68 42 -73 90 -27 30 29 34 30 43 14 6 -11 11 -196 14
-469 4 -488 9 -559 53 -711 69 -241 85 -411 77 -840 -5 -237 -22 -840 -26
-877 -1 -5 -41 -8 -90 -8 l-89 0 -7 98 c-9 126 -49 419 -80 591 -34 183 -65
405 -65 464 0 27 -9 83 -19 125 -27 109 -32 153 -36 367 -3 127 -9 208 -19
245 -8 30 -22 123 -31 205 -27 257 -45 399 -55 425 -5 14 -17 71 -25 128 -8
57 -26 160 -40 230 -14 70 -32 192 -40 272 -8 80 -24 190 -35 245 -11 55 -29
160 -40 234 -10 73 -21 135 -24 138 -2 2 -14 0 -25 -6 -11 -7 -31 -9 -45 -5
-23 5 -24 3 -35 -68 -17 -108 -26 -152 -55 -262 -14 -54 -32 -140 -40 -190
-23 -143 -44 -245 -96 -466 -69 -297 -85 -368 -115 -530 -15 -80 -35 -190 -46
-245 -11 -55 -24 -165 -29 -245 -21 -323 -56 -558 -125 -840 -23 -96 -50 -218
-60 -270 -10 -52 -29 -149 -42 -215 -47 -231 -63 -329 -63 -375 0 -47 0 -47
-37 -54 -21 -3 -57 -6 -79 -6 l-41 0 -7 61 c-4 33 -5 95 -2 137 6 82 21 963
17 1047 -1 28 3 104 10 170 9 96 20 146 54 247 68 198 95 308 95 384 0 38 5
98 10 134 12 80 20 295 21 591 l0 226 35 -12 c19 -6 50 -27 70 -46 44 -42 67
-33 71 30 2 38 -1 46 -33 74 -46 41 -64 76 -64 124 l0 38 18 -30 c11 -16 26
-36 36 -44 15 -12 19 -12 31 0 12 12 12 22 -1 69 -8 30 -14 98 -14 152 0 91
-2 102 -30 152 l-30 53 5 314 c3 173 8 348 11 389 5 65 31 153 56 186 5 8 163
11 524 11 l516 0 30 -66z"/>
</g>
</svg>
