<?xml version="1.0" standalone="no"?>
<!DOCTYPE svg PUBLIC "-//W3C//DTD SVG 20010904//EN"
 "http://www.w3.org/TR/2001/REC-SVG-20010904/DTD/svg10.dtd">
<svg version="1.0" xmlns="http://www.w3.org/2000/svg"
 width="1500.000000pt" height="936.000000pt" viewBox="0 0 1500.000000 936.000000"
 preserveAspectRatio="xMidYMid meet">

<g transform="translate(0.000000,936.000000) scale(0.100000,-0.100000)"
fill="#000000" stroke="none">
<path d="M4610 5505 c-8 -10 -18 -197 -41 -705 -6 -135 -17 -297 -25 -360 -8
-63 -19 -263 -24 -445 -25 -882 -30 -1048 -40 -1150 -10 -105 -25 -839 -24
-1148 1 -123 3 -151 17 -164 15 -15 52 -17 319 -17 297 -1 303 -1 328 21 31
25 50 82 50 144 0 25 14 100 30 168 22 89 27 127 20 136 -7 9 -9 100 -6 282 6
304 16 436 46 608 12 66 25 194 30 285 8 157 21 278 39 365 7 31 9 13 10 -75
1 -164 36 -466 77 -669 20 -96 40 -231 45 -300 9 -113 38 -349 70 -576 7 -44
16 -83 21 -86 5 -3 10 -58 10 -122 1 -64 5 -122 9 -129 6 -10 48 -13 156 -14
81 0 221 -4 310 -9 122 -6 177 -5 224 5 l61 13 -6 40 c-4 22 -16 121 -27 221
-11 99 -24 183 -29 184 -6 2 -10 43 -10 90 0 91 -22 356 -40 477 -12 85 -32
472 -35 685 -1 85 -7 171 -14 190 -6 20 -11 105 -11 202 0 92 -4 178 -10 192
-5 14 -21 153 -35 308 -13 156 -32 328 -40 383 -20 130 -52 352 -71 490 -8 61
-16 188 -18 283 -1 94 -6 175 -10 180 -4 4 -96 6 -204 4 -109 -2 -345 2 -527
9 -417 16 -614 17 -625 4z m254 -67 c3 -34 6 -90 6 -125 l0 -65 -127 8 c-71 3
-130 8 -131 10 -2 1 -1 52 3 113 9 127 -6 115 146 118 l96 1 7 -60z m214 46
c10 -3 12 -32 10 -121 l-3 -118 -94 2 c-51 1 -95 3 -97 5 -2 2 -6 59 -10 125
l-7 122 94 -5 c52 -3 100 -7 107 -10z m387 -15 c3 -4 9 -57 12 -117 l6 -110
-184 3 -184 4 -3 116 -3 117 175 -4 c96 -2 177 -6 181 -9z m491 -116 l1 -123
-27 0 c-15 0 -68 3 -118 6 l-92 7 0 113 0 113 33 4 c17 2 70 4 117 3 l85 -1 1
-122z m-256 2 l0 -115 -99 0 -98 0 -7 61 c-3 34 -6 86 -6 115 l0 54 105 0 105
0 0 -115z m-655 -129 l80 -1 0 -445 c1 -464 0 -459 46 -647 17 -68 50 -131 98
-183 47 -53 55 -40 10 16 -52 65 -79 130 -106 253 -24 110 -26 135 -30 481 -2
201 -1 402 2 448 l7 83 61 -3 62 -3 7 -220 c4 -121 12 -319 18 -440 6 -121 15
-359 20 -530 8 -311 1 -453 -30 -615 -6 -30 -15 -136 -20 -235 -5 -99 -16
-220 -24 -270 -43 -256 -54 -410 -56 -715 -1 -246 -5 -312 -25 -410 -7 -36
-18 -99 -24 -140 -16 -123 0 -117 -352 -112 -162 2 -298 8 -303 13 -12 11 -12
137 -3 729 4 245 12 489 17 544 6 54 10 135 10 181 0 45 3 103 6 129 6 44 9
47 32 41 13 -3 102 -8 197 -11 161 -5 175 -4 193 14 22 22 28 75 38 329 7 180
1 223 -36 243 -9 5 -66 14 -126 20 -60 6 -130 15 -155 20 -26 5 -64 6 -84 3
l-38 -6 6 264 c3 145 13 320 21 389 8 69 18 155 21 191 l6 67 40 5 c21 3 75
22 120 43 126 59 207 160 228 285 18 102 24 182 13 175 -5 -3 -13 -39 -17 -78
-15 -165 -74 -276 -176 -334 -62 -34 -127 -60 -174 -68 l-30 -4 0 96 c0 53 1
171 3 261 l2 163 183 -7 c100 -5 218 -9 262 -9z m871 -12 l41 -5 7 -67 c3 -37
18 -154 32 -260 15 -106 23 -196 20 -200 -8 -7 -70 9 -150 39 -73 27 -159 110
-211 203 -36 65 -45 108 -55 279 0 4 -4 7 -8 7 -13 0 -3 -157 13 -215 8 -28
32 -79 54 -112 78 -122 156 -177 295 -213 l71 -18 26 -208 c23 -181 35 -307
66 -671 l6 -73 -39 0 c-22 0 -101 5 -177 11 -76 5 -147 7 -157 4 -25 -8 -31
-46 -21 -125 6 -40 5 -123 -2 -215 -5 -83 -7 -163 -4 -177 9 -33 39 -44 162
-58 177 -21 203 -23 236 -11 18 6 33 10 35 9 1 -2 7 -119 14 -261 6 -142 15
-282 20 -310 17 -90 40 -396 40 -519 0 -65 4 -118 9 -118 9 0 31 -84 31 -120
0 -17 -7 -20 -45 -20 -25 0 -45 -4 -45 -9 0 -17 -37 -22 -220 -32 -102 -5
-229 -12 -282 -15 l-98 -7 0 57 c0 31 -4 56 -9 56 -8 0 -14 33 -46 265 -26
190 -35 270 -45 395 -5 71 -23 184 -40 260 -17 74 -35 180 -40 235 -5 55 -14
134 -20 175 -6 41 -15 190 -20 330 -5 140 -13 404 -19 585 -6 182 -16 386 -21
455 -6 69 -13 251 -17 405 l-6 281 289 -3 c159 -2 308 -6 330 -9z m-1082
-1466 c115 -14 126 -24 126 -115 0 -38 -3 -84 -6 -104 l-6 -37 -107 -6 c-58
-3 -153 -7 -211 -8 l-105 -2 3 95 c1 52 5 118 8 148 l6 54 101 -7 c56 -4 142
-12 191 -18z m1169 -64 l127 -7 0 -108 0 -109 -27 0 c-15 0 -89 -5 -164 -11
-93 -7 -144 -7 -156 -1 -14 8 -20 32 -29 114 -14 134 -10 142 64 134 32 -3
114 -9 185 -12z m-1057 -346 c-4 -77 -11 -137 -18 -146 -10 -12 -38 -13 -163
-8 -82 4 -171 9 -197 12 l-48 6 0 123 0 122 38 5 c20 3 105 6 187 8 83 1 152
4 154 6 2 2 16 4 29 4 l25 0 -7 -132z m1189 90 c2 -7 6 -66 8 -131 8 -174 12
-172 -258 -137 -151 20 -152 21 -140 177 l7 92 41 -5 c23 -2 89 0 147 4 159
14 190 14 195 0z m146 -1718 c3 -30 9 -71 13 -91 l6 -36 -72 -12 c-56 -10
-115 -10 -257 -1 -102 6 -228 8 -281 4 -112 -8 -112 -8 -103 79 l6 54 101 7
c55 4 180 11 276 16 169 9 253 20 267 34 4 4 14 5 23 4 10 -2 17 -20 21 -58z"/>
<path d="M4480 1753 c0 -16 83 -22 378 -29 182 -5 272 -4 272 3 0 7 -89 13
-242 17 -134 3 -280 9 -325 12 -53 4 -83 3 -83 -3z"/>
<path d="M8546 5442 c-12 -20 15 -24 122 -21 l107 4 7 -45 c3 -25 7 -78 7
-117 l1 -73 -131 0 -131 0 7 118 c5 80 4 114 -3 107 -10 -10 -22 -194 -42
-680 -6 -137 -18 -302 -26 -365 -13 -97 -27 -449 -39 -970 -7 -301 -17 -535
-26 -635 -6 -60 -10 -206 -10 -323 1 -117 -3 -384 -9 -594 -6 -210 -7 -385 -2
-390 4 -4 149 -9 322 -11 l313 -3 27 23 c17 14 32 41 39 69 24 96 49 272 50
359 7 498 20 799 36 825 2 3 13 69 24 146 14 96 22 221 26 404 4 146 10 290
14 320 l7 55 8 -65 c4 -36 11 -90 17 -120 5 -30 11 -147 14 -260 6 -239 6
-240 56 -475 23 -105 44 -234 50 -310 9 -118 40 -376 70 -580 7 -44 16 -83 21
-86 5 -3 10 -60 11 -127 1 -66 6 -124 10 -129 8 -8 205 -14 552 -17 l170 -1
-2 45 c-1 25 -7 95 -13 155 -6 61 -17 207 -25 325 -16 245 -31 418 -45 505
-11 75 -33 489 -35 690 -1 83 -7 166 -14 185 -6 20 -11 104 -11 202 0 92 -4
178 -10 192 -5 14 -21 153 -35 308 -24 279 -47 459 -65 529 -6 20 -10 54 -10
75 0 22 -7 77 -15 124 -28 163 -43 326 -41 456 2 71 0 139 -4 149 -6 17 -23
19 -281 20 -151 1 -450 5 -665 10 -270 5 -393 4 -398 -3z m462 -144 l3 -118
-99 0 -99 0 -7 77 c-3 42 -6 96 -6 120 l0 44 103 -3 102 -3 3 -117z m377 102
c3 -5 9 -57 12 -115 l6 -105 -186 0 -187 0 0 115 0 115 174 0 c105 0 177 -4
181 -10z m477 -114 l0 -120 -58 2 c-33 1 -83 5 -111 8 l-53 6 0 109 0 108 43
4 c23 2 73 3 111 3 l68 -1 0 -119z m-242 -2 l0 -117 -97 7 c-54 4 -100 9 -101
11 -2 2 -7 51 -9 109 l-6 106 107 0 106 0 0 -116z m-645 -129 c77 -2 159 -4
183 -4 l42 -1 0 -242 c0 -134 7 -313 15 -398 7 -85 17 -263 21 -395 5 -210 4
-262 -15 -420 -14 -115 -24 -272 -27 -435 -4 -169 -12 -297 -25 -380 -10 -69
-22 -154 -28 -190 -18 -126 -30 -338 -31 -578 -1 -161 -6 -268 -15 -316 -8
-40 -12 -82 -9 -93 3 -12 -1 -45 -9 -75 -8 -29 -18 -69 -21 -89 -4 -20 -16
-45 -27 -55 -20 -18 -39 -19 -328 -16 l-306 3 1 102 c4 490 16 1100 24 1181 6
54 10 137 10 185 0 47 3 103 6 124 l7 37 198 -5 c243 -6 234 -11 243 121 18
265 18 400 3 431 -21 39 -25 40 -160 54 -62 6 -122 15 -135 20 -13 5 -37 9
-55 9 -18 0 -43 3 -56 7 l-24 6 6 256 c4 141 13 306 21 366 24 185 31 312 34
663 l2 142 158 -5 c86 -3 220 -7 297 -10z m821 -11 l80 -7 17 -136 c8 -75 36
-296 60 -491 39 -310 53 -441 83 -802 l7 -78 -39 0 c-22 0 -101 5 -177 11 -76
5 -146 7 -157 4 -25 -8 -30 -38 -20 -120 5 -41 4 -133 -3 -220 -5 -83 -7 -163
-4 -177 9 -33 39 -44 162 -58 185 -23 211 -23 244 -7 l31 15 0 -36 c0 -108 22
-495 30 -542 14 -83 40 -393 40 -485 0 -44 6 -129 14 -190 24 -179 38 -317 32
-322 -6 -7 -177 -8 -453 -3 -183 4 -234 8 -238 18 -3 8 -2 37 1 66 l6 53 97 7
c53 3 177 11 276 16 228 13 303 25 282 46 -3 3 -30 1 -59 -6 -29 -6 -132 -15
-228 -20 -96 -5 -221 -12 -277 -16 l-103 -7 0 56 c0 32 -4 57 -9 57 -8 0 -14
33 -46 265 -25 184 -35 269 -45 395 -5 69 -23 184 -39 255 -52 229 -62 311
-67 525 -2 113 -9 230 -15 260 -6 30 -13 177 -15 325 -2 149 -9 374 -15 500
-6 127 -13 371 -16 543 l-5 312 244 0 c134 0 279 -3 324 -6z m-1235 -1443 c41
-6 121 -16 178 -22 142 -16 142 -16 139 -167 l-3 -117 -90 -3 c-88 -3 -323 13
-332 22 -7 7 -4 180 3 249 5 39 11 57 19 53 6 -2 45 -9 86 -15z m1362 -87
l127 -7 0 -108 0 -109 -27 0 c-15 0 -89 -5 -164 -11 -93 -7 -144 -7 -156 -1
-14 8 -20 32 -29 114 -14 134 -10 142 64 134 32 -3 114 -9 185 -12z m-1239
-241 l189 -6 -7 -116 c-4 -64 -12 -120 -17 -126 -6 -6 -90 -10 -210 -10 l-199
0 0 76 c0 42 3 104 7 138 5 57 8 62 27 57 12 -3 106 -9 210 -13z m1371 -15 c2
-7 6 -66 8 -131 8 -174 12 -172 -258 -137 -151 20 -152 21 -140 177 l7 92 41
-5 c23 -2 87 -1 142 4 152 14 195 14 200 0z"/>
<path d="M8410 1683 c0 -5 64 -15 143 -21 163 -14 517 -16 517 -3 0 4 -118 11
-262 15 -145 3 -293 9 -330 12 -40 4 -68 2 -68 -3z"/>
</g>
</svg>
