<?xml version="1.0" standalone="no"?>
<!DOCTYPE svg PUBLIC "-//W3C//DTD SVG 20010904//EN"
 "http://www.w3.org/TR/2001/REC-SVG-20010904/DTD/svg10.dtd">
<svg version="1.0" xmlns="http://www.w3.org/2000/svg"
 width="1500.000000pt" height="936.000000pt" viewBox="0 0 1500.000000 936.000000"
 preserveAspectRatio="xMidYMid meet">

<g transform="translate(0.000000,936.000000) scale(0.100000,-0.100000)"
fill="#000000" stroke="none">
<path d="M8638 5639 c-11 -6 -24 -43 -38 -107 -12 -53 -30 -115 -40 -137 -63
-141 -105 -382 -145 -815 -18 -199 -45 -774 -45 -957 0 -158 3 -163 108 -187
164 -37 523 -45 568 -12 14 10 32 104 90 450 45 273 79 447 89 462 20 31 50
31 70 0 9 -13 55 -221 104 -461 71 -356 91 -440 107 -452 16 -12 54 -14 224
-10 272 7 416 33 441 79 12 22 9 100 -22 508 -52 687 -132 1190 -219 1378 -16
34 -41 106 -55 159 -14 54 -30 102 -35 107 -5 5 -68 1 -147 -8 -331 -40 -811
-35 -1018 9 -11 2 -28 0 -37 -6z m376 -50 c192 -12 411 -6 646 16 80 8 35 -9
-80 -30 -145 -26 -454 -32 -618 -11 -72 10 -151 24 -174 31 -36 12 -38 14 -11
10 18 -2 125 -10 237 -16z m834 -30 c7 -24 15 -61 17 -81 4 -36 4 -38 -38 -49
-121 -32 -264 -61 -360 -71 -100 -11 -108 -10 -120 7 -13 17 -14 17 -20 -4 -5
-20 -11 -21 -96 -21 -74 0 -91 3 -91 15 0 18 -5 19 -30 3 -15 -10 -43 -10
-126 0 -111 12 -362 67 -379 83 -5 6 -5 9 2 9 5 0 9 10 6 23 -2 12 3 45 10 72
16 60 10 59 187 22 190 -41 419 -53 609 -33 142 15 330 48 375 66 32 13 39 7
54 -41z m59 -185 c66 -119 136 -490 187 -994 35 -345 68 -824 58 -835 -2 -2
-17 1 -34 7 -47 17 -355 3 -464 -20 -50 -11 -104 -27 -121 -36 -38 -19 -22
-72 -124 434 -54 272 -85 403 -98 420 -25 34 -77 34 -103 0 -14 -19 -35 -129
-87 -443 -38 -230 -71 -421 -74 -424 -3 -2 -18 2 -34 10 -43 23 -162 45 -308
57 -119 10 -174 9 -276 -6 l-37 -5 -1 93 c-2 130 26 727 45 938 32 364 75 630
126 770 28 77 24 77 194 36 333 -79 706 -72 1026 19 46 13 88 22 93 21 6 -1
20 -20 32 -42z m226 -1849 c32 -14 18 -34 -35 -49 -90 -26 -177 -36 -349 -43
-230 -8 -290 6 -196 47 89 38 257 60 437 56 69 -2 133 -7 143 -11z m-1313 -10
c97 -15 183 -37 210 -55 33 -22 -18 -30 -190 -30 -237 0 -440 30 -440 66 0 8
10 19 23 24 35 14 293 11 397 -5z"/>
<path d="M5786 5574 c-250 -42 -723 -46 -1007 -9 -62 9 -72 -4 -95 -112 -10
-48 -30 -115 -45 -148 -44 -98 -88 -320 -119 -605 -41 -384 -76 -1170 -52
-1207 26 -41 196 -67 442 -68 155 0 190 3 211 16 23 16 28 37 93 415 37 220
72 416 77 436 15 59 65 73 90 26 6 -10 48 -202 94 -425 46 -223 91 -416 100
-429 15 -24 18 -24 168 -24 238 0 448 31 489 72 23 23 23 54 -13 513 -50 644
-130 1121 -219 1310 -15 33 -38 96 -50 140 -36 129 -25 123 -164 99z m-1 -35
c-16 -5 -86 -19 -155 -31 -219 -40 -636 -28 -785 22 l-30 10 35 -5 c19 -3 121
-10 225 -16 184 -10 415 -3 615 21 36 4 79 7 95 8 l30 0 -30 -9z m142 -54 c7
-27 11 -58 9 -67 -2 -10 1 -18 7 -18 7 0 7 -3 2 -9 -25 -22 -414 -101 -500
-101 -17 0 -20 31 -4 47 6 6 9 26 7 44 -2 28 -8 34 -28 37 -14 1 -31 -2 -39
-7 -19 -12 -16 -72 3 -83 21 -12 20 -34 0 -42 -9 -3 -49 -6 -90 -6 -56 0 -74
3 -74 14 0 7 7 19 15 26 8 7 15 28 15 46 0 28 -5 36 -25 44 -14 5 -32 7 -40 4
-20 -8 -19 -63 1 -85 38 -42 -12 -49 -185 -23 -59 8 -152 25 -207 37 l-99 22
3 33 c7 66 27 127 42 126 8 -1 60 -11 115 -22 293 -61 625 -56 910 12 140 33
146 32 162 -29z m-704 -99 c13 4 17 1 17 -14 0 -12 -4 -24 -10 -27 -5 -3 -10
1 -10 9 0 22 -18 20 -23 -1 -4 -17 -4 -17 -12 0 -9 22 3 57 14 39 4 -7 15 -10
24 -6z m215 -14 c2 -12 -1 -22 -7 -22 -6 0 -11 5 -11 10 0 17 -18 11 -23 -7
-4 -17 -4 -17 -12 0 -11 26 0 44 27 42 15 -1 24 -9 26 -23z m550 -60 c62 -143
123 -450 168 -841 23 -207 60 -650 67 -818 l3 -82 -30 7 c-48 11 -280 6 -381
-7 -49 -7 -121 -23 -160 -36 -38 -13 -73 -20 -76 -17 -4 4 -25 97 -47 207
-100 488 -121 585 -137 609 -32 48 -84 45 -111 -5 -8 -16 -45 -207 -83 -424
-37 -217 -70 -397 -73 -400 -3 -3 -22 2 -42 10 -88 37 -434 63 -557 42 l-47
-8 -1 90 c-2 104 25 672 40 846 44 515 115 855 178 855 11 0 57 -9 103 -19
100 -24 280 -51 337 -51 51 0 53 -15 11 -85 -39 -65 -39 -109 0 -185 37 -73
37 -95 3 -145 -19 -28 -28 -56 -31 -96 -4 -49 -1 -59 23 -85 15 -16 22 -21 16
-12 -7 9 -15 42 -18 72 -5 51 -3 61 26 107 17 28 31 61 31 73 0 13 -13 53 -30
89 -16 37 -30 78 -30 92 0 14 17 57 38 95 l37 70 100 0 100 0 38 -70 c20 -38
37 -81 37 -95 0 -15 -13 -57 -30 -95 -16 -38 -30 -74 -30 -80 0 -7 17 -39 37
-72 42 -67 47 -113 20 -167 -8 -17 -12 -31 -7 -31 4 0 18 20 30 45 27 55 22
92 -20 159 -36 57 -37 79 -5 148 35 75 33 122 -10 188 -19 30 -35 60 -35 65 0
6 60 18 133 28 72 11 179 31 237 47 151 40 153 40 178 -18z m218 -1759 c20 -7
17 -30 -3 -38 -67 -26 -215 -46 -379 -52 -176 -6 -234 -2 -234 16 0 24 181 69
328 81 94 8 261 4 288 -7z m-1306 -23 c47 -6 112 -17 145 -25 116 -31 97 -54
-45 -57 -216 -4 -382 8 -472 34 -38 11 -49 30 -26 44 36 22 215 24 398 4z"/>
<path d="M5835 5380 c-3 -6 1 -7 9 -4 18 7 21 14 7 14 -6 0 -13 -4 -16 -10z"/>
<path d="M4738 5373 c7 -3 16 -2 19 1 4 3 -2 6 -13 5 -11 0 -14 -3 -6 -6z"/>
<path d="M5578 5323 c7 -3 16 -2 19 1 4 3 -2 6 -13 5 -11 0 -14 -3 -6 -6z"/>
<path d="M5048 5313 c7 -3 16 -2 19 1 4 3 -2 6 -13 5 -11 0 -14 -3 -6 -6z"/>
<path d="M5888 5214 c-3 -3 7 -37 22 -77 34 -88 75 -267 97 -424 15 -113 33
-171 33 -107 -1 100 -56 376 -106 526 -25 75 -35 93 -46 82z"/>
<path d="M4736 5172 c-9 -17 -27 -73 -40 -126 -41 -156 -82 -486 -61 -486 6 0
17 66 28 163 19 172 44 302 78 405 23 68 20 92 -5 44z"/>
<path d="M6118 3623 c7 -3 16 -2 19 1 4 3 -2 6 -13 5 -11 0 -14 -3 -6 -6z"/>
</g>
</svg>
