<?xml version="1.0" standalone="no"?>
<!DOCTYPE svg PUBLIC "-//W3C//DTD SVG 20010904//EN"
 "http://www.w3.org/TR/2001/REC-SVG-20010904/DTD/svg10.dtd">
<svg version="1.0" xmlns="http://www.w3.org/2000/svg"
 width="1500.000000pt" height="936.000000pt" viewBox="0 0 1500.000000 936.000000"
 preserveAspectRatio="xMidYMid meet">

<g transform="translate(0.000000,936.000000) scale(0.100000,-0.100000)"
fill="#000000" stroke="none">
<path d="M5992 5575 c-10 -20 -27 -20 -665 -25 -361 -3 -659 -8 -663 -12 -9
-9 -13 -57 -69 -842 -25 -352 -45 -660 -43 -685 l3 -45 215 -23 c118 -12 288
-30 378 -39 98 -10 166 -14 172 -8 4 5 13 83 20 174 6 90 12 165 14 167 1 2 9
-74 16 -168 9 -119 17 -172 26 -176 16 -6 757 86 766 95 3 4 0 70 -7 147 -7
77 -20 230 -29 340 -9 110 -21 229 -26 265 -5 36 -23 227 -40 425 -18 198 -36
369 -40 380 -5 11 -10 27 -13 35 -3 11 -6 10 -15 -5z m-382 -109 c0 -40 -4
-55 -16 -60 -9 -3 -130 -6 -270 -6 l-254 0 0 60 0 60 270 0 270 0 0 -54z m356
17 c-3 -21 -6 -46 -6 -55 0 -16 -14 -18 -160 -18 l-160 0 0 55 0 55 166 0 167
0 -7 -37z m-926 -28 l0 -55 -180 0 -180 0 0 48 c0 27 3 52 7 55 3 4 84 7 180
7 l173 0 0 -55z m960 0 c0 -32 -4 -45 -14 -45 -8 0 -13 7 -11 18 18 87 25 95
25 27z m-54 -135 c-3 -33 -9 -87 -12 -120 -4 -37 -2 -60 4 -60 5 0 13 39 16
88 10 129 16 152 35 152 30 0 43 -64 45 -216 l1 -143 -33 32 c-50 47 -114 141
-161 234 l-41 82 33 4 c17 2 52 5 75 5 l44 2 -6 -60z m-624 -192 c3 -232 4
-243 23 -247 27 -5 78 25 98 59 14 24 17 59 17 229 l0 201 154 0 153 0 31 -71
c44 -98 115 -203 188 -274 l61 -60 12 -155 c7 -85 14 -171 16 -190 2 -19 8
-96 15 -170 6 -74 15 -162 21 -196 11 -73 12 -144 2 -144 -5 0 -48 -6 -98 -14
-49 -8 -119 -16 -154 -18 l-65 -3 -8 35 c-11 52 -54 313 -83 504 -26 172 -29
186 -46 186 -14 0 -11 -52 10 -148 10 -48 24 -127 31 -177 7 -49 21 -144 32
-210 31 -186 33 -205 17 -205 -8 0 -85 -9 -173 -20 -87 -12 -161 -18 -164 -16
-3 3 -14 106 -26 228 -17 182 -24 223 -36 223 -12 0 -18 -38 -30 -222 -8 -122
-18 -224 -21 -227 -3 -4 -83 1 -178 11 -142 14 -171 19 -171 32 0 25 78 581
98 694 6 38 -14 34 -27 -5 -8 -26 -52 -308 -98 -634 -9 -68 -3 -67 -178 -48
l-158 18 7 120 c4 67 17 261 30 431 l23 310 57 57 c82 84 156 204 207 336 8
22 10 22 209 22 l200 0 2 -242z m108 41 l0 -201 -32 -31 -33 -32 -7 85 c-3 47
-6 151 -7 233 l-1 147 40 0 40 0 0 -201z m-561 164 c-39 -103 -125 -239 -189
-298 l-33 -30 6 60 c4 33 9 113 13 178 l7 117 103 0 104 0 -11 -27z m1261
-1288 c0 -19 -4 -35 -8 -35 -4 0 -64 -7 -132 -15 -69 -8 -136 -16 -150 -18
-20 -2 -25 3 -31 31 -6 28 -4 32 15 33 16 0 238 28 299 38 4 0 7 -15 7 -34z
m-1395 0 c77 -8 147 -15 156 -15 13 0 15 -6 10 -32 -8 -37 0 -36 -206 -15
l-110 12 -3 33 c-2 17 0 32 5 32 4 0 71 -7 148 -15z m1043 -47 c2 -16 2 -28 0
-29 -2 0 -82 -11 -178 -23 -183 -24 -190 -23 -190 20 0 19 11 22 153 42 195
26 211 25 215 -10z m-645 5 l167 -17 0 -34 c0 -33 0 -34 -37 -28 -21 3 -87 10
-148 16 -176 16 -185 18 -185 44 0 25 7 36 24 36 6 0 86 -7 179 -17z"/>
<path d="M5325 5470 c-8 -25 1 -40 25 -40 20 0 32 22 24 45 -9 22 -42 18 -49
-5z"/>
<path d="M9270 5529 c-272 -3 -543 -7 -602 -8 -103 -1 -108 -2 -112 -23 -3
-13 -19 -223 -36 -468 -16 -245 -35 -506 -41 -580 -31 -391 -35 -485 -25 -496
6 -6 110 -21 231 -33 121 -12 289 -29 373 -38 93 -10 156 -13 161 -7 5 5 14
83 21 174 6 90 12 165 14 167 1 2 9 -74 16 -168 9 -120 17 -172 26 -176 16 -6
756 87 767 96 4 4 3 20 -3 35 -5 15 -10 62 -10 104 0 42 -5 120 -11 172 -6 52
-14 147 -19 210 -4 63 -24 279 -43 480 -20 201 -39 406 -43 455 -3 50 -11 96
-17 103 -6 8 -34 11 -81 10 -39 -1 -294 -5 -566 -9z m622 -34 c4 -5 8 -31 8
-57 l0 -48 -180 0 -180 0 0 55 0 54 113 3 c186 5 232 3 239 -7z m-954 -57 l3
-58 -181 0 -181 0 3 53 3 52 55 6 c30 4 109 6 175 5 l120 -1 3 -57z m570 5
l-3 -58 -267 -3 -268 -2 0 60 0 60 270 0 271 0 -3 -57z m406 -161 c4 -43 13
-131 21 -197 8 -66 24 -246 35 -400 11 -154 27 -334 35 -400 8 -66 15 -136 15
-157 0 -34 -3 -38 -32 -43 -103 -17 -671 -85 -676 -81 -3 3 -14 106 -26 228
-17 182 -24 223 -36 223 -12 0 -18 -38 -30 -222 -8 -122 -18 -224 -21 -227 -6
-6 -168 8 -449 39 -74 8 -164 18 -199 21 l-64 7 7 126 c6 118 39 570 50 691 3
30 6 62 6 70 1 8 6 96 12 196 l11 181 136 7 c75 4 237 6 360 6 123 -1 225 0
226 2 2 2 141 4 308 5 l305 1 6 -76z m116 -1256 c0 -35 0 -35 -57 -41 -32 -4
-191 -24 -353 -45 -307 -39 -310 -39 -310 6 0 19 11 22 178 43 97 12 207 28
244 36 37 8 73 13 80 10 10 -3 116 9 211 24 4 0 7 -14 7 -33z m-1350 -5 c102
-11 260 -27 353 -37 l167 -18 0 -34 c0 -33 0 -34 -37 -28 -21 3 -130 15 -243
26 -113 11 -257 26 -320 33 l-115 12 -3 33 c-2 17 0 32 5 32 4 0 91 -9 193
-19z"/>
</g>
</svg>
