<?xml version="1.0" standalone="no"?>
<!DOCTYPE svg PUBLIC "-//W3C//DTD SVG 20010904//EN"
 "http://www.w3.org/TR/2001/REC-SVG-20010904/DTD/svg10.dtd">
<svg version="1.0" xmlns="http://www.w3.org/2000/svg"
 width="1500.000000pt" height="936.000000pt" viewBox="0 0 1500.000000 936.000000"
 preserveAspectRatio="xMidYMid meet">

<g transform="translate(0.000000,936.000000) scale(0.100000,-0.100000)"
fill="#000000" stroke="none">
<path d="M5534 6194 c-8 -22 -35 -82 -59 -134 -23 -52 -55 -122 -69 -154 -15
-33 -40 -82 -57 -108 -28 -47 -30 -56 -34 -181 -2 -73 -7 -193 -10 -267 -4
-74 -4 -190 0 -257 l7 -122 61 -30 c34 -16 91 -39 127 -50 138 -45 307 -93
341 -98 l36 -5 6 99 c16 241 31 328 51 294 7 -12 24 -168 33 -303 l5 -88 30 0
c16 0 37 4 47 10 10 5 89 30 177 55 87 25 193 62 235 81 l77 36 6 122 c4 66 5
159 2 206 -3 47 -8 168 -11 270 -5 130 -11 189 -20 200 -14 16 -95 174 -95
185 0 4 -24 59 -54 124 -29 64 -56 124 -60 135 -5 16 -13 17 -49 12 -155 -26
-519 -25 -669 0 -37 6 -38 5 -54 -32z m226 -3 c186 -13 135 -14 491 13 l36 3
52 -114 c29 -63 51 -116 49 -119 -3 -2 -64 -7 -136 -10 -73 -4 -132 -8 -132
-8 -7 -18 -10 -89 -5 -123 8 -53 53 -108 110 -134 49 -23 158 -25 233 -5 l52
13 2 -41 c2 -58 4 -107 12 -305 4 -95 5 -219 1 -276 l-7 -103 -67 -30 c-36
-17 -113 -45 -171 -62 -58 -17 -142 -42 -186 -56 -45 -13 -86 -24 -92 -24 -5
0 -12 39 -16 88 -4 48 -11 105 -16 127 -13 55 -13 165 1 165 5 0 7 5 4 10 -8
13 -92 13 -99 1 -4 -5 -1 -11 5 -13 7 -2 7 -35 -1 -113 -6 -61 -14 -145 -17
-187 -5 -69 -8 -78 -25 -78 -11 0 -27 4 -37 10 -10 5 -85 28 -167 50 -82 23
-184 57 -226 77 l-77 36 -7 55 c-7 58 2 530 12 618 l6 50 51 -13 c74 -19 184
-16 232 6 57 26 102 81 110 134 5 34 2 105 -5 123 0 0 -59 4 -132 8 -72 3
-134 8 -136 11 -3 3 13 44 36 92 23 49 46 100 51 114 8 21 15 26 38 24 15 -2
93 -8 173 -14z m-82 -251 l44 0 -4 -68 c-6 -119 -71 -172 -207 -172 -58 0
-155 14 -169 25 -3 3 17 47 67 144 l43 84 90 -7 c50 -3 111 -6 136 -6z m777
-101 c31 -61 55 -112 53 -114 -14 -11 -110 -25 -169 -25 -136 0 -201 54 -207
172 l-4 67 78 4 c44 1 105 4 136 5 l56 2 57 -111z"/>
<path d="M8530 6186 c-5 -15 -10 -29 -10 -32 0 -2 -20 -46 -44 -97 -49 -101
-106 -237 -106 -250 0 -23 22 11 50 81 17 42 49 114 71 159 22 45 44 94 49
109 l10 26 118 -8 c148 -11 403 -11 552 -1 l115 9 39 -89 c21 -48 51 -117 66
-153 15 -36 35 -83 45 -105 10 -22 19 -51 21 -65 1 -14 18 -88 37 -165 47
-186 95 -563 74 -584 -5 -5 -7 -32 -6 -60 2 -28 1 -51 -2 -51 -3 0 -29 -17
-57 -39 -57 -42 -138 -74 -312 -121 -63 -17 -132 -38 -153 -46 -67 -25 -77
-21 -77 34 0 26 -7 92 -15 146 -18 117 -19 198 -4 213 7 7 1 12 -21 17 -43 8
-82 -2 -72 -19 8 -15 1 -118 -19 -293 l-13 -114 -26 5 c-36 7 -154 42 -315 93
-116 37 -146 50 -174 79 -18 19 -41 37 -50 40 -16 5 -20 32 -20 180 -1 107 39
376 78 535 21 85 37 157 34 160 -9 10 -23 -30 -57 -165 -50 -201 -90 -531 -79
-651 5 -54 9 -63 34 -78 16 -9 29 -23 29 -31 0 -18 126 -69 278 -111 70 -19
151 -44 180 -55 30 -10 67 -19 83 -19 29 0 29 1 29 58 0 31 5 86 11 122 6 36
13 103 17 150 6 68 10 85 24 88 14 3 17 -9 22 -75 4 -43 11 -108 16 -145 6
-37 10 -96 10 -132 l0 -66 29 0 c16 0 71 13 122 29 52 16 141 43 199 61 108
33 220 78 220 89 0 3 18 17 40 31 29 18 40 30 36 43 -2 10 0 32 5 50 18 63
-24 417 -76 630 -19 82 -33 153 -29 158 3 5 -2 21 -10 34 -9 14 -32 62 -50
107 -19 46 -57 133 -84 193 -44 95 -54 110 -74 109 -13 0 -77 -6 -143 -13
-189 -19 -436 -13 -597 15 -34 6 -38 4 -48 -20z"/>
<path d="M8490 5855 c-16 -43 -11 -128 11 -201 16 -52 32 -79 64 -111 37 -38
48 -43 87 -43 61 0 98 38 128 129 17 54 21 85 17 157 l-3 89 -147 3 -147 3
-10 -26z m284 -41 c10 -75 7 -108 -14 -176 -26 -85 -56 -118 -108 -118 -49 0
-84 31 -117 103 -25 55 -42 168 -31 211 l6 26 129 0 128 0 7 -46z"/>
<path d="M9108 5873 c-2 -5 -5 -47 -7 -96 -3 -106 24 -200 71 -247 24 -25 38
-30 75 -30 42 0 51 5 88 44 24 24 50 65 59 92 22 63 31 181 17 217 l-11 27
-144 0 c-80 0 -146 -3 -148 -7z m288 -50 c9 -45 -10 -162 -32 -206 -30 -59
-74 -97 -114 -97 -49 0 -73 20 -99 80 -27 63 -36 130 -27 204 l7 56 129 0 129
0 7 -37z"/>
</g>
</svg>
