<?xml version="1.0" standalone="no"?>
<!DOCTYPE svg PUBLIC "-//W3C//DTD SVG 20010904//EN"
 "http://www.w3.org/TR/2001/REC-SVG-20010904/DTD/svg10.dtd">
<svg version="1.0" xmlns="http://www.w3.org/2000/svg"
 width="1500.000000pt" height="936.000000pt" viewBox="0 0 1500.000000 936.000000"
 preserveAspectRatio="xMidYMid meet">

<g transform="translate(0.000000,936.000000) scale(0.100000,-0.100000)"
fill="#000000" stroke="none">
<path d="M5544 6194 c-8 -22 -37 -86 -63 -144 -26 -58 -54 -121 -61 -140 -8
-19 -31 -63 -52 -98 -38 -63 -39 -64 -44 -195 -3 -73 -6 -251 -8 -396 -2 -242
0 -265 16 -287 43 -54 56 -105 60 -233 2 -90 0 -125 -9 -128 -16 -6 -40 43
-57 118 -16 68 -22 77 -36 63 -9 -9 3 -121 25 -239 2 -11 25 -44 50 -73 46
-55 58 -98 29 -109 -16 -6 -66 26 -163 104 -30 24 -35 25 -45 11 -6 -8 -20
-62 -30 -119 -10 -57 -30 -171 -46 -254 -38 -201 -64 -391 -56 -411 6 -15 34
-16 334 -8 421 10 663 10 1049 0 172 -5 324 -5 339 -2 25 7 25 8 19 64 -4 31
-13 100 -21 152 -13 87 -25 154 -84 465 -11 60 -24 113 -29 118 -5 5 -48 -20
-100 -58 -54 -40 -98 -65 -106 -61 -27 10 -17 60 19 95 45 43 62 87 77 196 16
122 16 130 0 130 -9 0 -19 -21 -27 -61 -14 -72 -40 -127 -57 -121 -9 3 -11 40
-10 130 2 135 12 167 70 245 24 31 25 38 26 210 3 269 -12 594 -28 612 -15 17
-105 194 -105 206 0 5 -22 56 -49 114 -27 58 -52 113 -55 124 -5 16 -13 17
-49 12 -155 -26 -519 -25 -669 0 -37 6 -38 5 -54 -32z m231 -3 c171 -12 150
-12 320 1 77 6 154 11 170 12 28 2 32 -3 73 -88 24 -50 57 -125 74 -166 18
-41 49 -106 69 -145 36 -66 38 -76 45 -190 3 -66 7 -235 9 -375 l2 -255 -30
-34 c-54 -63 -67 -107 -72 -247 -3 -84 -1 -132 7 -141 17 -21 46 -15 62 15
l15 27 1 -41 c0 -42 -30 -95 -79 -138 -14 -13 -21 -31 -21 -56 0 -78 42 -79
146 -1 94 70 84 80 119 -118 13 -75 28 -156 34 -181 14 -66 50 -298 53 -350
l3 -45 -300 4 c-434 6 -749 6 -1092 -2 -187 -4 -304 -3 -308 3 -7 11 27 248
60 420 13 69 31 166 40 215 9 50 20 95 24 102 4 8 32 -8 83 -48 101 -77 148
-78 148 -2 0 25 -10 44 -39 76 -48 53 -61 78 -61 119 0 32 0 32 16 10 18 -26
50 -29 62 -4 6 10 7 72 3 147 -6 113 -11 137 -34 182 -15 28 -31 54 -37 58 -7
4 -8 116 -4 333 8 462 2 419 67 552 56 115 149 321 160 351 4 12 15 16 39 13
18 -1 96 -7 173 -13z"/>
<path d="M8570 6186 c-5 -15 -34 -79 -63 -144 -30 -64 -60 -133 -67 -152 -8
-19 -35 -69 -60 -111 -49 -80 -55 -105 -76 -332 -3 -37 -10 -82 -15 -100 -15
-51 -37 -295 -49 -522 -11 -218 -24 -327 -59 -505 -74 -371 -118 -647 -107
-676 6 -15 33 -16 334 -8 417 10 660 10 1049 0 172 -5 324 -5 339 -2 25 7 25
8 19 64 -9 74 -45 296 -89 542 -40 223 -62 421 -71 630 -8 193 -21 330 -45
475 -11 66 -25 175 -32 243 -6 68 -17 132 -22 142 -49 85 -74 133 -95 180 -13
30 -45 102 -71 160 -26 58 -51 113 -54 124 -5 16 -13 17 -49 12 -155 -26 -520
-25 -669 0 -34 6 -38 4 -48 -20z m230 -15 c69 -6 139 -10 155 -10 17 0 86 4
155 10 69 5 143 11 166 13 l41 3 51 -111 c28 -61 62 -138 76 -171 13 -33 39
-87 57 -120 18 -33 37 -80 41 -105 4 -25 12 -67 17 -95 5 -27 10 -73 10 -102
1 -28 8 -83 16 -121 23 -111 34 -220 50 -502 18 -316 52 -583 104 -810 14 -65
50 -297 53 -350 l3 -45 -305 4 c-441 6 -744 6 -1087 -2 -194 -5 -304 -4 -308
2 -6 11 38 328 54 389 6 21 17 82 26 137 9 55 21 105 26 111 16 20 48 303 59
519 12 246 27 407 46 505 8 41 19 122 24 179 7 72 15 109 26 122 11 12 15 28
11 46 -4 21 10 59 53 148 58 119 152 325 163 356 4 13 16 16 49 13 24 -2 99
-8 168 -13z"/>
</g>
</svg>
