<?xml version="1.0" standalone="no"?>
<!DOCTYPE svg PUBLIC "-//W3C//DTD SVG 20010904//EN"
 "http://www.w3.org/TR/2001/REC-SVG-20010904/DTD/svg10.dtd">
<svg version="1.0" xmlns="http://www.w3.org/2000/svg"
 width="1500.000000pt" height="936.000000pt" viewBox="0 0 1500.000000 936.000000"
 preserveAspectRatio="xMidYMid meet">

<g transform="translate(0.000000,936.000000) scale(0.100000,-0.100000)"
fill="#000000" stroke="none">
<path d="M4666 5460 c-4 -44 -15 -89 -30 -118 -101 -201 -176 -614 -225 -1237
-35 -436 -41 -547 -67 -1145 -37 -861 -39 -912 -24 -994 12 -71 40 -138 61
-152 8 -4 10 -45 8 -128 l-4 -121 280 -6 c171 -4 282 -3 286 3 3 5 9 59 12
118 5 97 9 113 31 143 43 56 83 201 101 359 8 79 22 195 30 258 8 63 21 183
30 265 9 83 25 229 36 325 39 344 78 698 99 895 22 206 28 250 35 243 5 -5 56
-412 90 -723 14 -126 34 -302 45 -390 11 -88 33 -281 50 -430 52 -461 61 -527
82 -613 22 -94 31 -117 71 -184 25 -42 30 -62 35 -155 l7 -108 40 -3 c22 -2
150 -1 284 3 l244 7 -6 116 c-6 111 -6 116 18 143 44 53 59 157 52 369 -14
427 -72 1511 -97 1800 -61 713 -131 1112 -233 1315 -21 42 -31 80 -35 126 l-5
67 -386 6 c-212 3 -503 9 -647 12 l-261 6 -7 -72z m1090 34 l191 -6 7 -52 c3
-28 9 -61 12 -73 6 -23 5 -23 -78 -23 -211 0 -479 13 -468 24 16 16 12 54 -7
65 -38 21 -73 -35 -41 -67 9 -9 -1 -12 -45 -12 -53 0 -71 10 -47 25 17 11 11
44 -10 55 -40 22 -80 -26 -48 -58 6 -6 9 -15 5 -18 -3 -4 -130 -3 -281 1
l-274 7 5 62 c2 33 7 67 9 74 3 11 82 13 442 8 240 -4 523 -9 628 -12z m-509
-477 c-1 -73 -3 -10 -3 138 0 149 2 208 3 132 2 -76 2 -198 0 -270z m150 0
c-1 -73 -3 -10 -3 138 0 149 2 208 3 132 2 -76 2 -198 0 -270z m-727 286 c-1
-80 -65 -267 -114 -328 -22 -28 -20 -9 8 105 27 110 83 260 97 260 5 0 9 -17
9 -37z m493 30 l67 -6 0 -214 c0 -135 -4 -222 -11 -235 -13 -24 -5 -64 16 -72
39 -15 40 -5 36 264 l-3 260 26 0 26 0 0 -488 c0 -479 -1 -494 -30 -753 -17
-145 -35 -307 -40 -359 -6 -52 -17 -153 -25 -225 -9 -71 -29 -249 -45 -395
-17 -146 -41 -362 -55 -480 -14 -118 -32 -280 -40 -360 -24 -225 -55 -354
-104 -425 l-27 -40 -105 3 c-57 1 -182 5 -277 8 -202 7 -200 6 -226 124 -20
87 -20 209 -1 594 8 166 24 506 35 756 11 250 25 505 30 565 5 61 14 175 20
255 21 275 53 554 81 705 5 28 11 59 13 71 1 11 22 46 45 76 23 31 53 84 66
119 26 65 55 189 55 234 l0 25 203 0 c111 0 232 -3 270 -7z m217 -215 c0 -141
-4 -223 -12 -245 -15 -41 -2 -68 33 -68 28 0 27 -22 15 308 l-8 217 223 -1
c123 0 244 -4 269 -7 l45 -7 6 -55 c14 -129 66 -262 131 -335 17 -20 33 -48
34 -63 2 -15 8 -49 14 -77 12 -57 44 -291 60 -440 41 -393 83 -1108 126 -2140
7 -156 -6 -279 -35 -335 -23 -45 -37 -47 -340 -57 l-234 -8 -23 31 c-63 82
-85 199 -154 794 -17 146 -42 357 -55 470 -14 113 -41 345 -60 515 -19 171
-44 380 -55 465 -17 137 -20 218 -20 690 0 294 0 541 0 548 0 6 9 12 20 12 19
0 20 -7 20 -212z m620 175 c30 -65 100 -303 100 -339 0 -29 -27 4 -64 77 -32
63 -57 153 -70 252 -6 45 14 51 34 10z m-730 -443 c0 -23 -4 -30 -20 -30 -16
0 -20 7 -20 30 0 23 4 30 20 30 16 0 20 -7 20 -30z m145 -5 c0 -43 -29 -40
-33 3 -3 28 0 33 15 30 13 -2 18 -12 18 -33z m-510 -3064 l40 -7 -3 -79 c-5
-127 16 -115 -210 -115 -108 0 -226 3 -262 6 l-65 6 3 82 c5 138 -23 124 234
119 123 -3 241 -8 263 -12z m1338 -48 c4 -38 7 -84 7 -104 l0 -37 -232 -7
c-128 -4 -246 -5 -263 -4 l-30 4 -3 98 c-1 53 -1 98 0 99 3 2 309 13 434 16
l81 2 6 -67z"/>
<path d="M8586 5430 c-5 -59 -14 -84 -51 -148 -76 -132 -121 -306 -131 -506
-3 -55 -7 -103 -9 -107 -8 -11 -44 -337 -60 -529 -31 -386 -46 -641 -71 -1210
-37 -854 -39 -912 -24 -994 12 -71 40 -138 61 -152 8 -4 10 -45 8 -128 l-4
-121 280 -6 c171 -4 282 -3 286 3 3 5 9 59 12 118 5 97 9 113 31 143 43 56 83
201 101 359 8 79 22 195 30 258 8 63 21 183 30 265 9 83 25 229 36 325 39 344
78 698 99 895 22 206 28 250 35 243 5 -5 56 -412 90 -723 14 -126 34 -302 45
-390 11 -88 33 -281 50 -430 52 -461 61 -527 82 -613 22 -94 31 -117 71 -184
25 -42 30 -62 35 -155 l7 -108 40 -3 c22 -2 150 -1 284 3 l244 7 -6 116 c-6
111 -6 116 18 143 14 18 30 59 41 106 20 89 18 176 -16 873 -44 903 -80 1395
-130 1773 -27 200 -54 340 -58 303 -2 -17 3 -71 12 -120 72 -416 122 -1129
182 -2561 7 -156 -6 -279 -35 -335 -23 -45 -37 -47 -340 -57 l-234 -8 -23 31
c-63 82 -85 199 -154 794 -17 146 -42 357 -55 470 -14 113 -41 345 -60 515
-19 171 -45 382 -56 470 -20 145 -22 213 -23 707 l-1 547 215 -5 c336 -7 383
-11 397 -31 12 -16 13 -16 13 0 0 9 6 17 14 17 18 0 49 -74 81 -191 53 -189
83 -246 40 -73 -34 135 -53 188 -88 259 -21 42 -31 80 -35 126 l-5 67 -386 6
c-212 3 -503 9 -647 12 l-261 6 -7 -72z m1090 34 l191 -6 7 -52 c3 -28 9 -62
13 -75 l6 -24 -219 7 c-349 13 -511 16 -806 16 l-276 0 5 63 c2 34 7 68 9 75
3 11 82 13 442 8 240 -4 523 -9 628 -12z m-449 -404 c1 -135 4 -357 7 -494 5
-231 3 -268 -25 -510 -16 -143 -34 -304 -39 -356 -6 -52 -17 -153 -25 -225 -9
-71 -29 -249 -45 -395 -17 -146 -41 -362 -55 -480 -14 -118 -32 -280 -40 -360
-24 -225 -55 -354 -104 -425 l-27 -40 -105 3 c-57 1 -182 5 -277 8 -202 7
-200 6 -226 124 -20 87 -20 209 -1 594 8 166 24 504 35 751 11 248 25 506 30
575 6 69 15 184 20 255 16 203 40 431 56 535 8 52 19 133 24 180 22 192 37
256 84 370 27 63 53 121 59 128 8 11 75 13 331 10 l321 -3 2 -245z m-402
-3309 l40 -7 -3 -79 c-5 -127 16 -115 -210 -115 -108 0 -226 3 -262 6 l-65 6
3 82 c5 138 -23 124 234 119 123 -3 241 -8 263 -12z m1338 -48 c4 -38 7 -84 7
-104 l0 -37 -232 -7 c-128 -4 -246 -5 -263 -4 l-30 4 -3 98 c-1 53 -1 98 0 99
3 2 309 13 434 16 l81 2 6 -67z"/>
</g>
</svg>
