<?xml version="1.0" standalone="no"?>
<!DOCTYPE svg PUBLIC "-//W3C//DTD SVG 20010904//EN"
 "http://www.w3.org/TR/2001/REC-SVG-20010904/DTD/svg10.dtd">
<svg version="1.0" xmlns="http://www.w3.org/2000/svg"
 width="1500.000000pt" height="936.000000pt" viewBox="0 0 1500.000000 936.000000"
 preserveAspectRatio="xMidYMid meet">

<g transform="translate(0.000000,936.000000) scale(0.100000,-0.100000)"
fill="#000000" stroke="none">
<path d="M5259 8889 c-82 -9 -116 -26 -166 -83 -48 -55 -69 -122 -78 -248 -6
-72 -11 -98 -21 -98 -19 0 -34 -33 -34 -76 0 -40 31 -98 61 -114 10 -6 19 -16
19 -22 0 -16 47 -136 71 -181 18 -33 20 -51 16 -164 -6 -147 9 -126 -157 -225
-58 -34 -132 -71 -165 -81 -148 -45 -203 -70 -275 -123 -53 -39 -81 -68 -98
-101 -30 -60 -52 -207 -52 -350 0 -74 -4 -113 -11 -115 -7 -2 -15 -46 -20
-108 -5 -58 -16 -168 -24 -245 -9 -77 -16 -166 -15 -197 1 -64 -14 -160 -35
-228 -21 -64 -53 -255 -65 -390 -6 -63 -19 -203 -30 -310 -10 -107 -24 -322
-31 -476 -15 -365 -12 -378 116 -549 60 -80 136 -135 185 -135 34 0 77 45 61
64 -10 11 -8 17 6 25 15 8 16 13 5 30 -9 16 -9 25 -1 39 9 14 3 40 -25 125
-33 95 -36 114 -30 167 7 60 6 63 -51 176 l-59 114 11 103 c8 76 28 159 78
322 37 121 70 225 74 230 4 6 15 35 24 65 9 30 25 84 36 121 10 36 29 128 40
205 11 76 25 171 31 209 12 81 110 379 121 368 4 -5 20 -48 35 -98 24 -81 28
-109 32 -285 4 -182 3 -199 -18 -255 -48 -130 -61 -181 -75 -298 -23 -183 -34
-247 -50 -304 -9 -29 -20 -83 -25 -120 -5 -38 -20 -122 -34 -188 -13 -66 -30
-174 -36 -240 -6 -66 -13 -126 -16 -134 -9 -28 -4 -743 7 -815 14 -98 17 -250
9 -446 -7 -156 -9 -170 -44 -265 -20 -55 -45 -140 -56 -190 -11 -49 -31 -137
-45 -195 -32 -132 -37 -235 -25 -525 14 -339 18 -405 37 -568 l17 -148 -28
-85 c-28 -87 -37 -191 -22 -246 7 -21 2 -34 -22 -65 -17 -21 -40 -71 -52 -113
-12 -41 -30 -91 -40 -110 -24 -50 -44 -153 -37 -201 6 -47 32 -78 120 -145 62
-47 91 -53 156 -34 38 11 95 60 116 101 17 32 25 125 29 354 3 163 5 183 25
215 26 43 28 111 4 151 -15 25 -16 44 -6 196 6 92 12 193 13 223 1 55 16 132
44 230 9 30 30 140 46 245 17 104 35 206 39 225 5 19 12 85 16 145 16 280 20
307 57 414 48 142 98 357 109 465 20 211 39 463 39 513 0 29 4 72 10 95 5 24
26 133 46 243 20 110 52 264 71 343 18 78 33 162 34 185 1 68 6 72 82 73 l68
1 -6 -44 c-2 -24 2 -74 11 -111 9 -37 22 -107 30 -156 8 -48 23 -109 34 -135
11 -25 27 -77 35 -116 8 -38 22 -95 31 -125 8 -30 20 -116 25 -190 6 -74 14
-184 19 -245 5 -60 12 -198 15 -305 5 -159 10 -204 26 -242 10 -26 19 -56 19
-66 0 -11 14 -46 30 -78 20 -38 34 -83 41 -133 5 -42 14 -96 20 -121 5 -25 16
-101 25 -170 8 -69 24 -161 35 -205 11 -44 31 -154 45 -245 26 -165 34 -206
73 -354 12 -44 21 -109 21 -145 0 -36 5 -137 12 -224 10 -143 10 -161 -5 -187
-23 -39 -21 -103 5 -153 20 -39 22 -59 24 -252 3 -265 11 -306 66 -362 43 -44
87 -63 144 -63 38 0 155 86 191 139 35 52 28 138 -22 261 -13 30 -31 82 -40
115 -10 33 -31 77 -46 97 -30 38 -38 81 -18 94 16 10 2 124 -28 219 -25 77
-25 84 -14 185 32 288 56 890 41 1005 -19 141 -121 536 -157 608 -18 36 -22
528 -5 632 7 43 12 203 12 417 0 289 -3 375 -20 515 -12 92 -25 188 -29 213
-23 124 -54 282 -66 340 -8 36 -19 112 -25 168 -8 77 -22 133 -52 215 -22 61
-47 140 -54 176 -17 80 -19 414 -3 493 16 79 50 188 58 188 10 0 79 -189 102
-280 11 -41 26 -129 34 -195 17 -142 40 -264 60 -320 7 -22 21 -67 31 -100 9
-33 21 -64 25 -70 4 -5 25 -71 47 -145 22 -74 52 -173 67 -220 14 -47 31 -131
37 -187 l12 -102 -57 -113 c-56 -111 -57 -114 -56 -193 1 -68 -3 -94 -31 -169
-27 -72 -31 -92 -21 -107 8 -15 8 -24 -1 -39 -11 -17 -10 -22 1 -29 8 -5 11
-16 7 -26 -9 -23 32 -65 64 -65 86 0 248 179 292 324 20 66 20 76 9 345 -11
265 -21 413 -41 586 -5 44 -12 118 -16 165 -7 103 -30 263 -44 309 -5 19 -8
37 -6 40 3 4 -7 45 -21 91 -17 61 -27 126 -33 230 -5 80 -14 183 -20 230 -17
146 -32 340 -35 460 -4 135 -26 269 -55 324 -23 46 -104 115 -175 151 -27 14
-95 41 -150 61 -92 33 -294 135 -343 173 -19 14 -21 30 -25 147 -2 95 0 137 9
149 7 9 29 59 49 110 22 58 49 107 70 129 19 20 37 52 41 70 7 42 -14 92 -39
88 -9 -2 -17 3 -18 10 -1 7 -3 56 -4 109 -5 126 -29 191 -94 252 -67 63 -164
83 -312 66z m246 -39 c25 -12 59 -38 75 -58 35 -42 69 -142 62 -180 -5 -24 -5
-24 -19 -6 -8 10 -30 49 -49 86 -41 82 -53 89 -113 72 -25 -7 -84 -24 -131
-37 -47 -14 -93 -28 -102 -32 -13 -5 -18 -2 -18 9 0 9 -4 16 -8 16 -17 0 -90
-59 -117 -94 -34 -45 -45 -45 -45 -3 0 52 30 129 64 165 71 77 109 89 264 85
72 -1 103 -7 137 -23z m22 -112 c6 -7 27 -47 47 -88 21 -41 44 -88 52 -104 29
-56 34 -121 19 -209 -16 -89 -71 -239 -105 -287 -54 -76 -190 -111 -287 -75
-73 27 -117 76 -158 174 -73 173 -82 312 -27 413 30 55 103 129 110 110 2 -7
10 -12 18 -12 16 0 178 54 228 76 39 17 91 18 103 2z m-512 -377 c6 -49 4 -62
-5 -56 -17 11 -41 71 -35 89 3 9 7 24 10 33 10 29 23 0 30 -66z m690 45 c7
-33 -12 -87 -34 -101 -9 -5 -5 91 5 123 7 23 23 12 29 -22z m-435 -454 c65
-20 98 -22 135 -8 61 23 96 41 106 53 24 28 29 9 29 -110 l0 -124 98 -60 c129
-81 225 -128 292 -143 125 -28 266 -124 310 -211 23 -43 52 -248 49 -336 -3
-57 11 -234 31 -403 6 -47 15 -152 20 -235 6 -93 18 -178 31 -225 11 -41 22
-86 23 -100 2 -14 11 -63 20 -110 9 -47 23 -155 31 -240 8 -85 21 -220 29
-300 8 -80 18 -215 21 -300 3 -85 8 -216 11 -290 4 -109 2 -149 -11 -200 -33
-127 -199 -321 -274 -320 -12 1 -11 4 6 13 12 7 30 24 41 38 24 30 66 158 82
248 10 54 9 66 -4 79 -8 8 -22 12 -31 8 -20 -7 -52 -79 -64 -140 -9 -50 -34
-94 -57 -103 -33 -12 -34 14 -3 98 26 69 32 100 33 176 2 85 5 97 40 165 21
40 45 80 52 89 43 48 -23 367 -146 704 -65 179 -120 422 -120 532 0 49 -47
230 -89 341 -16 42 -32 88 -36 100 -10 35 14 148 47 221 34 75 32 106 -3 41
-30 -58 -46 -103 -54 -154 -4 -23 -18 -66 -31 -96 -54 -124 -67 -201 -72 -422
-4 -236 -1 -260 72 -478 34 -100 47 -157 50 -215 3 -44 10 -96 16 -115 6 -19
17 -75 25 -125 7 -49 25 -144 39 -210 13 -66 30 -169 37 -230 18 -162 23 -829
8 -935 -18 -125 -20 -584 -2 -635 56 -160 82 -246 88 -280 4 -22 18 -80 31
-130 36 -138 54 -270 49 -370 -2 -49 -4 -128 -5 -175 -1 -149 -21 -481 -36
-598 -19 -154 -18 -187 11 -271 13 -39 21 -79 18 -87 -3 -8 0 -26 7 -39 8 -14
10 -35 6 -52 -20 -79 -19 -91 12 -130 18 -23 41 -74 58 -128 14 -49 32 -99 39
-110 19 -31 38 -140 31 -178 -7 -37 -59 -92 -134 -142 -36 -24 -47 -26 -90
-20 -40 5 -57 14 -91 49 -36 37 -43 51 -51 107 -5 35 -11 154 -13 264 -3 183
-5 203 -25 242 -26 49 -28 100 -7 130 20 28 21 82 6 236 -6 70 -9 131 -7 136
9 14 -13 169 -34 246 -33 121 -40 156 -65 315 -13 85 -32 187 -41 225 -9 39
-24 130 -34 204 -11 74 -23 155 -29 180 -5 25 -13 76 -16 113 -4 46 -17 89
-41 138 -19 39 -34 81 -34 91 0 11 -9 41 -19 67 -16 38 -21 82 -25 237 -4 105
-11 249 -17 320 -5 72 -12 162 -14 200 -9 146 -41 301 -96 465 -15 47 -30 105
-33 130 -3 25 -14 86 -26 135 -25 104 -21 184 11 240 33 56 16 62 -18 7 -25
-41 -39 -53 -71 -62 -54 -14 -85 -1 -119 52 -15 24 -28 45 -30 47 -2 2 -6 2
-9 -2 -4 -3 6 -27 21 -52 24 -42 26 -53 21 -113 -3 -37 -22 -128 -42 -202 -20
-74 -38 -151 -40 -170 -7 -54 -64 -360 -76 -410 -7 -25 -11 -61 -10 -80 2 -37
-21 -349 -39 -530 -10 -100 -78 -400 -100 -441 -26 -49 -50 -185 -61 -339 -6
-91 -11 -174 -11 -185 0 -11 -3 -36 -8 -55 -5 -19 -22 -118 -39 -220 -32 -199
-37 -223 -69 -345 -16 -57 -23 -121 -26 -223 -3 -79 -9 -171 -14 -205 -10 -71
-4 -123 15 -152 21 -29 17 -77 -10 -135 -22 -48 -24 -63 -25 -249 -2 -262 -9
-303 -62 -357 -34 -34 -50 -43 -91 -48 -44 -6 -56 -4 -91 20 -74 49 -126 104
-133 141 -7 36 11 143 30 178 5 11 24 64 42 117 17 54 44 112 59 130 27 32 28
45 9 121 -4 17 -2 38 6 52 7 13 10 31 7 39 -3 8 5 48 18 87 27 78 30 128 15
229 -13 83 -39 485 -40 610 0 52 -2 138 -5 190 -6 116 7 219 45 367 17 62 30
121 30 133 0 24 53 196 81 260 27 65 36 407 14 610 -10 99 -15 249 -15 471 0
359 18 587 64 801 13 62 29 142 35 178 6 36 20 110 31 165 11 55 26 154 34
220 10 87 25 154 55 242 l41 122 0 161 c0 177 -19 292 -67 405 -14 33 -31 87
-38 120 -32 140 -50 205 -58 205 -11 0 2 -85 18 -126 7 -17 18 -62 25 -100 11
-63 10 -74 -8 -124 -17 -46 -67 -200 -103 -316 -5 -17 -9 -50 -9 -75 0 -112
-50 -345 -106 -500 -125 -341 -205 -704 -164 -745 5 -5 29 -48 53 -95 42 -81
44 -90 40 -155 -3 -58 2 -85 31 -169 19 -55 30 -104 26 -109 -24 -24 -73 37
-84 104 -8 54 -42 129 -62 137 -8 3 -23 -1 -31 -10 -13 -13 -14 -23 -4 -61 6
-25 11 -56 11 -70 0 -33 37 -141 62 -184 11 -18 32 -39 46 -47 21 -11 23 -14
9 -15 -34 0 -104 50 -149 108 -142 182 -142 184 -128 580 6 169 12 318 15 332
3 14 16 144 30 290 14 146 33 301 42 345 9 44 17 91 18 105 1 14 12 59 24 100
14 49 25 126 31 225 5 83 16 211 25 285 8 74 15 156 15 182 0 28 5 48 13 50 8
3 13 40 14 131 2 141 25 299 49 336 53 81 136 142 244 182 44 16 89 29 99 29
22 0 142 62 264 137 l87 54 0 48 c0 26 3 82 6 124 l7 76 26 -19 c15 -10 56
-27 91 -38z m-881 -3389 c11 -40 18 -73 16 -73 -2 0 -15 5 -28 11 -19 9 -25
22 -34 77 -5 37 -8 71 -5 75 10 18 32 -21 51 -90z m1938 15 c-7 -44 -16 -69
-26 -72 -9 -3 -21 -9 -28 -12 -13 -6 -10 12 14 91 31 100 56 96 40 -7z m-1908
-135 c27 -21 57 -43 67 -49 14 -9 16 -15 8 -23 -8 -8 -22 -3 -52 19 -23 16
-46 30 -51 30 -5 0 -14 14 -20 30 -5 17 -8 30 -5 30 2 0 26 -17 53 -37z m1880
7 c-6 -16 -15 -30 -20 -30 -5 0 -28 -14 -51 -30 -27 -20 -45 -27 -51 -21 -11
11 8 41 26 41 5 0 27 16 48 35 48 43 61 45 48 5z m-1809 -125 c0 -16 -45 -1
-65 21 -39 42 -29 48 20 14 25 -17 45 -33 45 -35z m1780 56 c0 -17 -50 -61
-70 -61 -31 0 -24 13 23 42 50 31 47 30 47 19z"/>
<path d="M4790 6751 c0 -17 73 -70 119 -86 24 -8 79 -15 120 -15 64 0 86 5
140 30 80 38 73 52 -9 16 -48 -22 -75 -27 -132 -27 -91 0 -126 11 -189 55 -27
20 -49 32 -49 27z"/>
<path d="M5850 6731 c0 -35 -203 -89 -284 -77 -22 4 -55 18 -72 31 -36 27 -44
30 -44 15 0 -17 73 -58 115 -64 41 -7 177 14 230 34 47 18 96 70 65 70 -5 0
-10 -4 -10 -9z"/>
<path d="M4390 6180 c0 -5 10 -10 23 -10 31 0 86 -36 96 -62 5 -14 10 -17 15
-10 11 19 -23 59 -65 76 -45 18 -69 20 -69 6z"/>
<path d="M6162 6135 c-20 -19 -31 -35 -23 -35 7 0 24 11 37 25 17 19 33 25 64
25 25 0 39 4 35 10 -3 6 -22 10 -41 10 -25 0 -44 -9 -72 -35z"/>
<path d="M4670 3329 c0 -7 20 -32 45 -57 41 -41 48 -44 82 -39 21 4 46 16 56
28 24 30 14 36 -19 10 -39 -31 -63 -26 -111 24 -45 47 -53 52 -53 34z"/>
<path d="M5923 3295 c-35 -39 -73 -46 -110 -20 -13 9 -24 11 -28 6 -9 -16 37
-41 78 -41 30 0 44 7 68 32 24 27 38 58 26 58 -2 0 -17 -16 -34 -35z"/>
<path d="M4690 1944 c0 -8 5 -12 10 -9 6 3 10 10 10 16 0 5 -4 9 -10 9 -5 0
-10 -7 -10 -16z"/>
<path d="M9106 8850 c-70 -22 -117 -64 -145 -131 -24 -55 -51 -174 -51 -224 0
-22 -8 -41 -21 -54 -45 -42 -29 -180 22 -196 13 -5 19 -16 19 -38 1 -44 21
-95 58 -151 32 -47 32 -48 32 -175 0 -87 -4 -132 -12 -142 -13 -16 -168 -109
-243 -147 -22 -11 -99 -38 -171 -61 -176 -55 -204 -76 -259 -195 -51 -109 -65
-175 -65 -310 0 -125 -15 -334 -36 -486 -8 -63 -21 -171 -29 -240 -8 -75 -26
-164 -44 -222 -34 -109 -61 -295 -61 -420 0 -46 -7 -130 -15 -188 -8 -58 -22
-172 -30 -255 -9 -82 -20 -184 -24 -225 -5 -41 -7 -147 -5 -235 4 -172 8 -190
68 -275 18 -25 44 -66 59 -92 49 -85 147 -153 200 -140 26 7 36 33 48 123 9
72 8 88 -11 143 -11 35 -25 108 -29 164 -9 102 -20 135 -83 247 -29 51 -30
153 -5 275 18 85 103 356 117 375 29 38 111 383 130 545 11 89 22 139 61 280
40 142 71 230 81 230 4 0 8 -1 8 -2 0 -2 14 -68 30 -148 26 -128 30 -165 30
-315 0 -198 -9 -262 -49 -365 -40 -100 -57 -173 -71 -305 -7 -60 -29 -189 -50
-285 -84 -389 -91 -496 -88 -1233 2 -409 -1 -613 -9 -660 -6 -37 -35 -141 -63
-232 -28 -91 -58 -198 -65 -238 -18 -88 -39 -545 -31 -642 40 -453 45 -681 17
-784 -11 -38 -25 -79 -31 -91 -8 -15 -10 -44 -5 -85 6 -61 5 -67 -44 -172 -61
-132 -91 -237 -91 -321 0 -63 0 -64 56 -122 107 -113 205 -130 287 -52 51 48
52 53 57 322 5 237 7 259 28 304 26 58 28 107 5 143 -14 21 -17 47 -16 130 2
115 24 247 83 509 23 99 50 229 61 289 73 404 119 685 119 725 0 14 16 70 36
125 48 137 72 289 84 549 12 246 24 368 45 430 7 22 23 97 35 166 12 69 34
177 50 240 40 160 92 449 84 462 -5 8 -1 9 10 5 10 -4 42 -7 71 -7 l53 0 12
-82 c6 -46 24 -132 40 -193 117 -457 141 -628 160 -1135 l8 -235 55 -175 c64
-204 71 -236 92 -390 24 -182 70 -444 125 -715 59 -293 90 -487 90 -561 0 -30
-9 -77 -20 -106 -26 -69 -25 -100 6 -173 25 -56 27 -74 34 -290 10 -284 18
-319 90 -355 52 -26 104 -25 165 4 87 41 145 124 145 209 0 70 -24 144 -91
281 -55 111 -59 123 -59 190 0 39 -7 103 -15 141 -17 82 -20 319 -5 500 16
198 24 751 12 809 -7 28 -21 100 -32 159 -12 59 -28 127 -36 150 -60 164 -82
275 -85 417 -1 85 16 559 26 700 7 96 -10 476 -30 650 -17 162 -33 260 -80
488 -19 96 -37 195 -41 220 -16 135 -29 189 -70 311 -43 124 -47 145 -56 285
-5 83 -7 187 -3 231 6 86 55 292 85 365 40 94 89 234 84 239 -2 2 -8 0 -12 -5
-18 -20 -113 -286 -141 -395 -28 -109 -55 -323 -43 -343 3 -6 8 -64 12 -130 6
-109 11 -135 54 -258 31 -90 50 -166 56 -220 5 -46 29 -182 54 -303 25 -121
52 -276 61 -345 9 -69 21 -161 27 -205 14 -100 16 -700 4 -1060 -10 -319 -3
-392 55 -572 100 -307 110 -442 84 -1113 -2 -41 -5 -187 -6 -325 -3 -212 -1
-257 13 -296 11 -31 15 -63 11 -105 -5 -57 -2 -64 57 -184 69 -139 102 -251
91 -302 -32 -139 -188 -230 -289 -168 -58 36 -65 68 -71 330 -6 219 -8 238
-29 278 -34 66 -38 116 -12 192 19 56 21 78 16 155 -4 50 -11 113 -16 140
-111 558 -179 941 -200 1125 -13 108 -19 131 -96 380 l-46 145 -9 270 c-9 287
-44 683 -63 714 -20 31 -152 645 -142 658 0 1 26 -5 56 -13 79 -22 211 -14
273 15 58 28 154 141 119 141 -4 0 -24 -22 -44 -49 -56 -75 -109 -96 -233 -95
-79 0 -112 5 -157 23 -93 36 -98 47 -98 227 0 100 -4 154 -10 154 -7 0 -10
-57 -9 -167 l1 -168 -57 -31 c-80 -44 -159 -60 -232 -45 -79 16 -139 47 -187
98 -43 45 -64 56 -46 24 30 -58 113 -113 205 -137 68 -19 112 -17 185 5 l62
19 -6 -21 c-3 -12 -18 -96 -35 -187 -16 -91 -39 -199 -50 -240 -11 -41 -31
-133 -45 -205 -14 -71 -35 -168 -45 -215 -24 -100 -28 -148 -41 -412 -5 -108
-14 -225 -19 -260 -6 -35 -15 -92 -20 -128 -6 -36 -29 -120 -51 -187 -24 -74
-40 -141 -40 -170 0 -52 -25 -217 -64 -413 -13 -69 -32 -174 -41 -234 -9 -60
-28 -155 -42 -210 -56 -230 -94 -445 -103 -574 -8 -128 -7 -135 15 -173 25
-45 23 -70 -11 -144 -16 -35 -19 -72 -21 -270 -2 -126 -5 -244 -8 -261 -3 -17
-22 -46 -45 -69 -33 -33 -47 -39 -92 -42 -46 -4 -59 -1 -99 26 -57 39 -115
111 -123 155 -9 50 36 212 94 338 50 106 51 112 45 172 -6 52 -4 70 13 103 36
70 46 161 38 363 -4 102 -12 251 -19 331 -15 167 -14 538 2 682 11 98 27 164
102 417 36 123 40 153 52 330 10 141 11 255 4 410 -10 246 -2 816 13 905 5 33
16 114 25 180 8 66 29 176 45 245 17 69 38 181 46 250 18 157 38 241 82 355
l35 90 5 205 c4 200 3 209 -28 360 -30 147 -101 384 -121 404 -17 18 -9 -19
22 -104 34 -93 34 -88 -11 -215 -40 -116 -95 -328 -110 -430 -22 -149 -72
-380 -95 -440 -29 -75 -96 -277 -123 -370 -56 -189 -66 -364 -24 -408 44 -47
75 -136 83 -240 4 -54 18 -127 29 -163 12 -36 20 -68 17 -71 -11 -10 -48 9
-63 32 -9 13 -22 54 -30 91 -7 37 -21 77 -29 90 -14 23 -14 24 5 24 11 0 20 5
20 10 0 6 -13 10 -29 10 -33 0 -71 -39 -71 -73 0 -19 -1 -19 -18 -4 -27 25
-34 21 -18 -11 16 -30 118 -131 184 -182 38 -28 41 -35 27 -43 -9 -5 -32 -6
-50 -3 -45 9 -175 105 -224 167 l-41 52 -2 106 c-3 214 12 436 52 726 10 77
21 203 25 280 8 184 19 258 56 376 19 62 35 145 44 226 7 70 18 148 24 173 13
55 29 270 41 530 9 210 19 253 85 366 38 65 80 91 228 139 124 40 194 73 369
175 54 32 56 35 62 84 3 28 7 96 8 151 1 97 1 102 -25 127 -42 42 -32 48 36
20 85 -36 229 -42 337 -14 41 11 77 18 79 16 3 -2 -7 -17 -22 -32 -25 -26 -26
-33 -33 -174 -6 -122 -5 -148 7 -151 126 -35 228 -75 306 -122 51 -30 127 -69
168 -85 96 -38 118 -52 183 -114 98 -93 109 -135 116 -461 3 -126 10 -246 15
-265 5 -19 19 -111 30 -205 28 -228 37 -280 71 -415 41 -164 49 -225 66 -495
9 -132 20 -287 25 -345 5 -58 12 -220 15 -360 l6 -255 -51 -62 c-28 -34 -71
-76 -96 -93 -49 -34 -163 -90 -182 -90 -26 0 -12 20 24 35 39 16 198 173 222
218 8 15 11 30 6 34 -4 5 -10 2 -12 -4 -3 -7 -13 -23 -23 -35 l-19 -23 -1 30
c0 49 -25 75 -71 75 -21 0 -39 -4 -39 -10 0 -5 9 -10 21 -10 16 0 19 -4 14
-17 -19 -45 -45 -137 -45 -158 0 -43 -59 -93 -82 -70 -3 3 6 36 19 73 17 45
27 102 33 173 7 95 11 112 37 150 43 63 64 132 70 229 5 78 2 93 -30 190 -19
58 -56 177 -81 265 -25 88 -61 205 -81 259 -21 58 -42 142 -50 200 -16 114
-46 265 -73 376 -25 97 -91 323 -97 329 -19 18 -11 -27 25 -151 66 -222 96
-359 125 -563 8 -56 29 -142 49 -196 19 -53 49 -145 66 -205 52 -183 71 -245
101 -337 17 -52 29 -110 29 -141 0 -70 -32 -188 -63 -234 -36 -52 -47 -86 -47
-146 0 -72 -16 -153 -40 -199 -22 -41 -26 -72 -10 -82 6 -4 5 -13 -2 -24 -7
-11 -8 -26 -3 -37 4 -11 7 -24 6 -31 -4 -25 28 -83 45 -83 58 0 167 89 209
168 13 26 38 67 54 92 17 25 31 50 31 56 0 6 7 18 16 25 15 12 16 42 10 284
-4 148 -11 320 -16 380 -4 61 -15 214 -23 340 -18 267 -25 312 -72 500 -19 77
-40 183 -45 235 -17 158 -40 323 -50 360 -5 19 -12 143 -15 275 -8 319 -16
354 -98 442 -72 76 -105 99 -202 137 -38 15 -95 42 -125 60 -112 68 -286 146
-326 146 -19 0 -22 7 -27 83 -8 106 3 186 31 222 12 15 27 46 33 69 34 131 40
145 62 148 15 2 30 19 46 52 28 56 22 94 -18 111 -22 10 -23 14 -18 85 2 41 1
103 -4 138 -18 127 -70 181 -207 213 -97 24 -180 23 -256 -1z m289 -25 c73
-25 104 -52 131 -109 36 -76 33 -214 -7 -448 -21 -121 -36 -153 -76 -171 -68
-29 -130 -39 -230 -35 -89 3 -105 7 -175 40 -86 41 -79 27 -98 191 -17 139
-14 243 9 329 36 140 63 174 165 210 63 23 205 19 281 -7z m-476 -520 c1 -36
0 -38 -15 -24 -27 28 -35 89 -16 122 l17 28 7 -43 c3 -24 7 -61 7 -83z m688
69 c8 -21 -26 -93 -50 -105 -17 -10 -18 -8 -13 18 3 15 8 49 12 75 6 43 8 47
26 37 10 -6 22 -17 25 -25z m-337 -3379 c0 -3 -17 -5 -37 -5 -35 1 -37 2 -19
15 13 10 24 11 37 4 11 -5 19 -12 19 -14z m-1016 -373 c8 -15 17 -50 21 -77
l7 -50 -36 34 c-35 34 -45 67 -30 105 9 23 22 20 38 -12z m2013 -28 c-3 -28
-15 -57 -37 -84 -18 -22 -35 -39 -37 -36 -9 9 18 112 37 144 26 43 44 32 37
-24z m-1939 -245 c53 -13 61 -29 15 -29 -40 0 -107 38 -155 88 l-43 44 66 -45
c37 -24 89 -50 117 -58z m1942 46 c-35 -37 -111 -84 -149 -91 -32 -7 -33 -6
-22 15 7 11 19 21 29 21 9 0 49 18 87 40 39 21 72 39 74 40 3 0 -6 -11 -19
-25z m-1949 -92 c46 -7 55 -33 11 -33 -30 0 -92 39 -127 80 -16 19 -10 17 28
-9 27 -18 66 -35 88 -38z m1948 50 c-28 -36 -123 -103 -146 -103 -25 0 -13 28
15 35 15 3 52 23 82 44 64 45 67 47 49 24z"/>
<path d="M9136 6818 c-17 -94 -22 -103 -50 -117 -16 -7 -73 -20 -125 -28 -53
-8 -114 -18 -136 -23 -37 -7 -35 -8 25 -9 84 -1 248 33 271 56 19 19 41 130
28 139 -5 3 -10 -5 -13 -18z"/>
<path d="M9306 6814 c-22 -56 4 -121 53 -134 137 -36 295 -57 305 -41 4 5 -18
12 -51 16 -72 8 -208 33 -250 46 -36 11 -49 47 -38 99 7 31 -8 42 -19 14z"/>
<path d="M8210 5967 c0 -9 20 -25 45 -37 39 -19 49 -20 80 -10 19 6 33 16 29
21 -3 5 -13 5 -25 -2 -25 -13 -71 -4 -104 22 -20 16 -25 17 -25 6z"/>
<path d="M10250 5939 c-20 -17 -35 -20 -78 -17 -56 5 -68 -10 -18 -23 37 -10
105 11 124 39 18 27 5 28 -28 1z"/>
<path d="M9742 3261 c-9 -5 18 -8 67 -8 44 0 78 4 75 8 -7 12 -125 11 -142 0z"/>
<path d="M8582 3241 c-9 -5 18 -8 67 -8 44 0 78 4 75 8 -7 12 -125 11 -142 0z"/>
<path d="M8300 986 c0 -71 117 -109 166 -55 21 24 11 37 -11 15 -39 -39 -106
-28 -131 22 -16 32 -24 38 -24 18z"/>
<path d="M10160 900 c-30 -24 -98 -26 -126 -5 -22 17 -34 19 -34 5 0 -16 57
-40 95 -40 41 0 95 27 95 47 0 16 0 16 -30 -7z"/>
</g>
</svg>
