<?xml version="1.0" standalone="no"?>
<!DOCTYPE svg PUBLIC "-//W3C//DTD SVG 20010904//EN"
 "http://www.w3.org/TR/2001/REC-SVG-20010904/DTD/svg10.dtd">
<svg version="1.0" xmlns="http://www.w3.org/2000/svg"
 width="1500.000000pt" height="936.000000pt" viewBox="0 0 1500.000000 936.000000"
 preserveAspectRatio="xMidYMid meet">

 <defs>
  <pattern id="fabricPattern" patternUnits="objectBoundingBox" width="1" height="1">
    <image href="fabric1.jpg" width="100%" height="100%" />
  </pattern>
</defs>

<g transform="translate(0.000000,936.000000) scale(0.100000,-0.100000)"
fill="#000000" stroke="none">
<path d="M9527 7643 c-2 -5 -7 -19 -10 -33 -13 -52 -97 -127 -208 -185 -127
-65 -209 -85 -354 -85 -152 0 -226 19 -362 93 -117 62 -146 89 -209 193 -10
15 -15 16 -25 7 -10 -10 -10 -32 0 -110 21 -172 29 -311 21 -350 -14 -61 15
-216 88 -468 23 -81 41 -240 46 -404 l3 -113 43 -34 c57 -45 119 -62 271 -76
95 -8 158 -8 250 0 153 14 212 31 272 78 l47 37 0 81 c1 115 26 385 40 421 6
17 30 100 52 185 l40 155 3 250 c1 138 5 276 10 308 5 39 4 57 -3 57 -6 0 -13
-3 -15 -7z m-1055 -175 c67 -49 237 -128 308 -143 92 -19 259 -19 352 0 97 21
267 106 328 165 l46 45 -2 -250 -1 -250 -36 -135 c-19 -74 -43 -157 -52 -185
-16 -52 -45 -331 -45 -447 0 -62 -2 -68 -30 -92 -64 -53 -250 -82 -460 -71
-153 8 -247 28 -296 63 l-36 27 -4 105 c-6 165 -23 318 -45 400 -92 334 -93
338 -91 475 2 124 -12 338 -24 380 -3 11 8 1 25 -21 17 -23 46 -52 63 -66z"/>
<path d="M5310 7613 c0 -10 7 -61 16 -113 10 -58 17 -172 19 -290 2 -192 3
-198 43 -350 22 -85 46 -168 52 -185 14 -36 39 -306 40 -421 l0 -81 47 -37
c60 -47 119 -64 272 -78 92 -8 155 -8 250 0 152 14 214 31 271 76 l43 34 3
118 c2 66 8 162 14 214 11 100 18 132 75 346 49 188 56 243 43 328 -9 58 -8
99 6 216 31 256 30 240 13 240 -9 0 -18 -9 -22 -20 -3 -10 -25 -45 -49 -77
-37 -51 -57 -66 -159 -120 -136 -74 -210 -93 -362 -93 -146 0 -227 20 -354 85
-112 59 -175 114 -212 187 -20 39 -49 52 -49 21z m260 -240 c63 -31 135 -59
178 -68 93 -19 260 -19 351 0 102 21 282 115 345 180 l49 50 -6 -39 c-3 -21
-12 -92 -18 -157 -10 -97 -10 -127 0 -156 18 -49 7 -135 -39 -312 -21 -80 -45
-173 -53 -206 -18 -68 -35 -230 -42 -385 -4 -100 -5 -106 -32 -128 -42 -34
-114 -52 -256 -64 -220 -19 -438 10 -507 68 -27 23 -30 32 -30 82 0 122 -24
370 -42 437 -96 353 -91 325 -93 525 -1 102 -7 217 -14 255 -6 39 -11 73 -11
78 0 4 26 -18 58 -50 42 -43 85 -72 162 -110z"/>
<path d="M5805 6880 c-42 -28 -149 -60 -201 -60 -47 0 -59 -14 -21 -24 61 -16
171 12 234 60 53 40 43 61 -12 24z"/>
<path d="M6000 6893 c0 -30 102 -87 177 -99 46 -7 113 2 113 15 0 5 -32 11
-70 13 -53 4 -87 14 -138 39 -87 44 -82 42 -82 32z"/>
</g>
</svg>
