<?xml version="1.0" standalone="no"?>
<!DOCTYPE svg PUBLIC "-//W3C//DTD SVG 20010904//EN"
 "http://www.w3.org/TR/2001/REC-SVG-20010904/DTD/svg10.dtd">
<svg version="1.0" xmlns="http://www.w3.org/2000/svg"
 width="1500.000000pt" height="936.000000pt" viewBox="0 0 1500.000000 936.000000"
 preserveAspectRatio="xMidYMid meet">

<g transform="translate(0.000000,936.000000) scale(0.100000,-0.100000)"
fill="#000000" stroke="none">
<path d="M5461 7685 c-106 -30 -141 -45 -141 -59 0 -6 6 -99 14 -206 8 -107
14 -242 13 -300 -1 -93 4 -122 40 -260 23 -85 47 -168 53 -185 14 -36 39 -306
40 -421 l0 -81 47 -37 c60 -47 119 -64 272 -78 92 -8 155 -8 250 0 152 14 214
31 271 76 l43 34 3 118 c2 66 8 162 14 214 11 100 18 132 75 347 47 179 57
249 45 311 -9 48 10 395 26 455 5 21 0 26 -33 39 -21 9 -77 26 -125 38 l-87
23 -72 -68 c-193 -181 -399 -176 -586 14 -28 28 -57 51 -64 50 -8 0 -52 -11
-98 -24z m185 -85 c188 -163 393 -156 573 18 53 51 74 66 88 61 10 -4 58 -19
106 -34 48 -14 85 -30 82 -35 -12 -19 -33 -405 -23 -430 15 -39 1 -146 -42
-308 -21 -81 -45 -174 -53 -207 -18 -68 -35 -230 -42 -385 -4 -100 -5 -106
-32 -128 -42 -34 -114 -52 -256 -64 -220 -19 -438 10 -507 68 -27 23 -30 32
-30 82 0 122 -24 370 -42 437 -95 350 -91 329 -93 505 -2 91 -8 225 -14 299
-7 74 -8 138 -4 142 4 4 50 19 102 33 51 14 96 28 100 31 3 4 10 -2 14 -12 5
-10 38 -43 73 -73z"/>
<path d="M5805 6880 c-42 -28 -149 -60 -201 -60 -47 0 -59 -14 -21 -24 61 -16
171 12 234 60 53 40 43 61 -12 24z"/>
<path d="M6000 6893 c0 -30 102 -87 177 -99 46 -7 113 2 113 15 0 5 -32 11
-70 13 -53 4 -87 14 -138 39 -87 44 -82 42 -82 32z"/>
<path d="M8491 7665 c-122 -34 -143 -45 -135 -64 13 -28 23 -221 22 -406 -1
-171 1 -187 31 -310 18 -71 43 -166 56 -210 26 -89 44 -243 49 -414 l3 -113
43 -34 c56 -45 118 -62 269 -76 92 -8 155 -8 250 0 154 14 213 31 274 78 l47
37 0 81 c1 115 26 385 40 421 6 17 30 100 52 185 44 168 46 191 33 445 -7 130
4 251 28 302 6 14 7 27 1 33 -5 5 -62 24 -126 41 l-117 33 -52 -53 c-189 -192
-395 -198 -586 -17 -39 36 -77 66 -84 65 -8 0 -52 -11 -98 -24z m293 -160
c111 -54 225 -55 339 -2 53 24 172 122 182 149 5 13 11 15 28 8 12 -5 58 -19
102 -31 44 -11 81 -22 83 -24 1 -1 -5 -44 -14 -95 -12 -70 -14 -125 -9 -229
12 -253 10 -276 -28 -421 -20 -74 -43 -157 -52 -185 -16 -52 -45 -331 -45
-447 0 -62 -2 -68 -30 -92 -64 -53 -250 -82 -460 -71 -153 8 -247 28 -296 63
l-36 27 -4 105 c-6 165 -23 318 -45 400 -93 336 -90 321 -95 615 -2 149 -5
283 -7 299 -2 29 1 31 73 53 41 12 86 26 99 30 20 7 33 -2 92 -59 38 -37 93
-78 123 -93z"/>
</g>
</svg>
