<?xml version="1.0" standalone="no"?>
<!DOCTYPE svg PUBLIC "-//W3C//DTD SVG 20010904//EN"
 "http://www.w3.org/TR/2001/REC-SVG-20010904/DTD/svg10.dtd">
<svg version="1.0" xmlns="http://www.w3.org/2000/svg"
 width="1500.000000pt" height="936.000000pt" viewBox="0 0 1500.000000 936.000000"
 preserveAspectRatio="xMidYMid meet">

<g transform="translate(0.000000,936.000000) scale(0.100000,-0.100000)"
fill="#000000" stroke="none">
<path d="M5318 7635 c-2 -3 2 -47 9 -98 20 -134 31 -337 20 -371 -5 -15 -7
-56 -4 -90 6 -60 73 -340 97 -401 14 -36 39 -306 40 -421 l0 -81 47 -37 c60
-47 119 -64 272 -78 92 -8 155 -8 250 0 152 14 214 31 271 76 l43 34 3 118 c4
144 19 288 39 369 8 33 33 130 56 215 32 124 40 170 38 230 -5 191 0 343 15
432 19 117 19 108 2 108 -24 0 -74 -67 -123 -163 -37 -74 -47 -105 -51 -159
l-5 -67 -36 18 c-136 70 -312 65 -364 -9 -15 -22 -15 -22 -26 -2 -6 11 -31 30
-57 42 -68 33 -185 26 -278 -18 -38 -18 -69 -32 -70 -32 0 0 -2 30 -3 66 -1
53 -9 82 -38 143 -57 119 -123 199 -147 176z m109 -169 c40 -80 46 -101 51
-173 2 -46 6 -83 7 -83 1 0 36 16 78 35 42 19 104 39 138 44 94 12 146 -3 192
-59 14 -16 29 -30 34 -30 4 0 16 14 25 30 46 81 208 82 366 1 50 -25 49 -27
55 79 3 62 11 88 42 150 21 41 47 86 58 100 l20 25 -6 -35 c-19 -113 -29 -250
-22 -309 16 -126 8 -207 -34 -366 -21 -82 -46 -177 -54 -210 -18 -68 -35 -230
-42 -385 -4 -100 -5 -106 -32 -128 -42 -34 -114 -52 -256 -64 -220 -19 -438
10 -507 68 -27 23 -30 32 -30 82 0 122 -24 370 -42 437 -10 39 -35 131 -56
205 -36 133 -37 137 -34 305 2 152 -7 284 -24 370 -6 27 -5 28 11 15 9 -7 37
-55 62 -104z"/>
<path d="M5805 6880 c-42 -28 -149 -60 -201 -60 -47 0 -59 -14 -21 -24 61 -16
171 12 234 60 53 40 43 61 -12 24z"/>
<path d="M6000 6893 c0 -30 102 -87 177 -99 46 -7 113 2 113 15 0 5 -32 11
-70 13 -53 4 -87 14 -138 39 -87 44 -82 42 -82 32z"/>
<path d="M8355 7558 c3 -40 7 -179 10 -308 6 -250 14 -306 90 -565 26 -89 44
-243 49 -414 l3 -113 43 -34 c56 -45 118 -62 269 -76 92 -8 155 -8 250 0 154
14 213 31 274 78 l47 37 0 81 c1 115 26 385 40 421 6 17 30 100 52 185 43 164
42 152 37 435 -1 88 3 157 15 214 20 103 20 131 1 131 -21 0 -88 -93 -130
-182 -31 -64 -37 -90 -39 -146 l-1 -68 -345 0 c-190 1 -378 -1 -418 -4 l-73
-5 -3 75 c-2 66 -7 85 -45 160 -52 102 -99 170 -118 170 -11 0 -13 -15 -8 -72z
m1148 -65 c-8 -43 -14 -132 -13 -198 1 -66 1 -158 2 -205 1 -82 -32 -236 -87
-405 -16 -52 -45 -331 -45 -447 0 -62 -2 -68 -30 -92 -64 -53 -250 -82 -460
-71 -153 8 -247 28 -296 63 l-36 27 -4 105 c-6 165 -23 318 -45 400 -92 332
-91 327 -94 570 -1 124 -6 247 -10 275 -8 47 -7 49 9 36 10 -8 36 -51 59 -95
35 -71 41 -92 45 -164 3 -63 8 -85 21 -91 9 -4 57 -4 106 1 83 9 711 6 745 -3
12 -3 16 13 21 82 6 73 13 98 49 170 35 70 66 119 75 119 1 0 -4 -35 -12 -77z"/>
</g>
</svg>
