<?xml version="1.0" standalone="no"?>
<!DOCTYPE svg PUBLIC "-//W3C//DTD SVG 20010904//EN"
 "http://www.w3.org/TR/2001/REC-SVG-20010904/DTD/svg10.dtd">
<svg version="1.0" xmlns="http://www.w3.org/2000/svg"
 width="1500.000000pt" height="936.000000pt" viewBox="0 0 1500.000000 936.000000"
 preserveAspectRatio="xMidYMid meet">

<g transform="translate(0.000000,936.000000) scale(0.100000,-0.100000)"
fill="#000000" stroke="none">
<path d="M5400 7675 c-79 -29 -90 -43 -80 -93 5 -20 16 -104 26 -186 14 -127
15 -160 4 -217 -8 -40 -10 -88 -6 -121 8 -57 77 -334 96 -383 14 -36 39 -306
40 -421 l0 -81 47 -37 c60 -47 119 -64 272 -78 92 -8 155 -8 250 0 152 14 214
31 271 76 l43 34 3 118 c2 66 8 162 14 214 11 100 18 132 75 347 53 200 59
252 39 329 -14 59 -14 76 0 207 9 78 21 166 27 196 7 34 7 57 1 63 -13 13
-138 58 -162 58 -26 0 -28 -12 -35 -201 l-7 -166 -197 -6 c-108 -3 -284 -3
-392 0 l-197 6 -6 111 c-4 61 -9 144 -12 184 -7 85 -10 86 -114 47z m95 -187
c4 -101 8 -184 10 -186 5 -5 825 -3 834 2 4 3 11 85 15 183 4 98 9 180 11 182
6 5 100 -28 118 -42 14 -11 14 -21 2 -92 -7 -44 -19 -132 -25 -196 -12 -105
-11 -118 5 -152 23 -49 15 -126 -35 -316 -21 -80 -45 -173 -53 -206 -18 -68
-35 -230 -42 -385 -4 -100 -5 -106 -32 -128 -42 -34 -114 -52 -256 -64 -220
-19 -438 10 -507 68 -27 23 -30 32 -30 82 0 122 -24 370 -42 437 -68 251 -90
350 -95 421 -4 55 -2 83 6 88 6 4 11 24 11 45 0 48 -29 303 -40 354 -8 37 -7
39 23 52 48 19 91 33 103 34 8 1 14 -58 19 -181z"/>
<path d="M5805 6880 c-42 -28 -149 -60 -201 -60 -47 0 -59 -14 -21 -24 61 -16
171 12 234 60 53 40 43 61 -12 24z"/>
<path d="M6000 6893 c0 -30 102 -87 177 -99 46 -7 113 2 113 15 0 5 -32 11
-70 13 -53 4 -87 14 -138 39 -87 44 -82 42 -82 32z"/>
<path d="M8444 7670 c-79 -28 -97 -39 -89 -58 7 -16 29 -355 27 -417 0 -16 -2
-62 -3 -100 -1 -70 29 -213 86 -410 26 -89 44 -243 49 -414 l3 -113 43 -34
c56 -45 118 -62 269 -76 92 -8 155 -8 250 0 154 14 213 31 274 78 l47 37 0 81
c1 115 26 385 40 421 6 17 30 100 52 185 l40 155 3 230 c2 127 8 266 13 310 6
44 7 84 2 88 -11 12 -137 57 -159 57 -20 0 -24 -23 -37 -256 l-6 -111 -197 -6
c-108 -3 -284 -3 -392 0 l-197 6 -7 166 c-3 91 -9 174 -11 184 -7 21 -34 21
-100 -3z m79 -132 c4 -66 7 -147 7 -179 0 -32 4 -61 10 -64 10 -6 829 -9 835
-3 2 2 6 85 10 186 4 100 11 182 15 182 16 0 106 -34 116 -44 8 -8 9 -34 2
-91 -5 -44 -11 -179 -12 -300 -3 -216 -4 -222 -39 -355 -19 -74 -43 -157 -52
-185 -16 -52 -45 -331 -45 -447 0 -62 -2 -68 -30 -92 -64 -53 -250 -82 -460
-71 -153 8 -247 28 -296 63 l-36 27 -4 105 c-6 165 -23 318 -45 400 -86 313
-110 443 -92 497 6 16 7 59 2 103 -4 41 -9 137 -12 212 l-4 138 51 19 c28 11
56 20 62 20 7 1 13 -43 17 -121z"/>
</g>
</svg>
