<?xml version="1.0" standalone="no"?>
<!DOCTYPE svg PUBLIC "-//W3C//DTD SVG 20010904//EN"
 "http://www.w3.org/TR/2001/REC-SVG-20010904/DTD/svg10.dtd">
<svg version="1.0" xmlns="http://www.w3.org/2000/svg"
 width="1500.000000pt" height="936.000000pt" viewBox="0 0 1500.000000 936.000000"
 preserveAspectRatio="xMidYMid meet">

<g transform="translate(0.000000,936.000000) scale(0.100000,-0.100000)"
fill="#000000" stroke="none">
<path d="M5414 7680 c-98 -35 -98 -34 -89 -104 16 -145 30 -388 22 -409 -19
-49 6 -182 97 -512 18 -65 40 -375 34 -460 -5 -53 -16 -86 -58 -171 -29 -57
-51 -106 -49 -107 41 -32 83 -51 175 -80 100 -32 153 -44 322 -78 62 -13 116
-5 317 47 160 40 209 58 257 89 l37 25 -57 117 -57 116 2 126 c1 69 7 169 13
221 11 99 15 119 80 370 24 91 40 178 40 210 -1 285 2 378 14 460 8 52 11 99
7 103 -12 12 -139 57 -161 57 -26 0 -28 -12 -35 -201 l-7 -166 -197 -6 c-108
-3 -284 -3 -392 0 l-197 6 -6 111 c-14 242 -16 256 -40 255 -11 0 -44 -9 -72
-19z m81 -192 c4 -101 8 -184 10 -186 6 -6 825 -3 835 3 6 3 10 32 10 64 0 32
3 113 7 180 l6 122 26 -6 c14 -4 44 -15 67 -24 l40 -18 -12 -85 c-11 -76 -15
-211 -13 -433 1 -72 -39 -262 -83 -390 -21 -65 -35 -163 -47 -347 -11 -174 -2
-231 53 -344 54 -112 54 -109 -49 -143 -195 -64 -298 -85 -415 -85 -125 -1
-188 11 -375 69 -125 39 -162 60 -145 80 6 7 29 49 50 94 28 58 41 99 46 149
9 97 -14 401 -38 487 -96 351 -91 320 -93 560 -2 121 -8 249 -14 285 -18 107
-18 106 47 128 31 11 62 21 68 21 8 1 14 -58 19 -181z"/>
<path d="M5805 6880 c-42 -28 -149 -60 -201 -60 -47 0 -59 -14 -21 -24 61 -16
171 12 234 60 53 40 43 61 -12 24z"/>
<path d="M6000 6893 c0 -30 102 -87 177 -99 46 -7 113 2 113 15 0 5 -32 11
-70 13 -53 4 -87 14 -138 39 -87 44 -82 42 -82 32z"/>
<path d="M8421 7665 c-35 -13 -67 -27 -71 -32 -4 -4 -2 -82 6 -173 7 -91 13
-226 12 -300 -1 -141 15 -227 87 -475 28 -96 46 -255 48 -421 l2 -121 -57
-117 -57 -116 37 -25 c48 -31 97 -49 257 -89 206 -53 254 -60 322 -46 32 7 90
18 128 26 150 31 308 87 364 131 2 1 -20 49 -49 106 -43 85 -53 116 -57 171
-7 86 15 396 33 461 98 353 115 447 94 518 -10 36 -9 76 6 223 26 267 30 244
-40 272 -33 13 -74 26 -91 29 l-32 5 -7 -73 c-3 -41 -8 -124 -12 -185 l-6
-111 -197 -6 c-108 -3 -284 -3 -392 0 l-197 6 -7 166 c-3 91 -9 174 -11 184
-7 23 -35 21 -113 -8z m92 -127 c4 -66 7 -147 7 -179 0 -32 4 -61 10 -64 10
-6 829 -9 835 -3 2 2 6 85 10 186 4 100 11 182 14 182 4 0 35 -10 70 -21 l63
-22 -6 -36 c-11 -66 -29 -285 -27 -336 9 -234 11 -219 -87 -580 -23 -85 -48
-398 -38 -487 7 -61 62 -201 94 -240 12 -14 10 -19 -13 -34 -36 -23 -252 -89
-362 -110 -146 -27 -296 -8 -541 71 -120 39 -120 39 -76 126 60 120 65 143 65
274 0 153 -16 310 -43 405 -91 333 -91 334 -92 515 -1 94 -6 229 -10 301 l-9
132 54 20 c30 12 59 21 65 21 7 1 13 -43 17 -121z"/>
</g>
</svg>
