<?xml version="1.0" standalone="no"?>
<!DOCTYPE svg PUBLIC "-//W3C//DTD SVG 20010904//EN"
 "http://www.w3.org/TR/2001/REC-SVG-20010904/DTD/svg10.dtd">
<svg version="1.0" xmlns="http://www.w3.org/2000/svg"
 width="1500.000000pt" height="936.000000pt" viewBox="0 0 1500.000000 936.000000"
 preserveAspectRatio="xMidYMid meet">

<g transform="translate(0.000000,936.000000) scale(0.100000,-0.100000)"
fill="#000000" stroke="none">
<path d="M8354 7593 c3 -21 8 -155 11 -297 5 -277 12 -323 90 -591 28 -96 46
-255 48 -421 l2 -121 -57 -117 -57 -116 37 -25 c48 -31 97 -49 257 -89 206
-53 254 -60 322 -46 32 7 90 18 128 26 150 31 308 87 364 131 2 1 -20 49 -49
106 -43 85 -53 116 -57 171 -7 86 15 396 33 461 103 373 106 394 89 605 -5 64
-1 117 14 214 11 71 18 133 15 138 -10 15 -22 8 -34 -21 -25 -62 -101 -128
-211 -186 -127 -65 -209 -85 -354 -85 -152 0 -226 19 -362 92 -96 52 -123 72
-153 113 -21 27 -43 60 -49 73 -19 35 -34 27 -27 -15z m1139 -153 c-9 -60 -12
-125 -8 -175 16 -210 15 -218 -83 -580 -23 -85 -48 -398 -38 -487 7 -61 62
-201 94 -240 12 -14 10 -19 -13 -34 -36 -23 -252 -89 -362 -110 -146 -27 -296
-8 -541 71 -120 39 -120 39 -76 126 60 120 65 143 65 274 0 153 -16 310 -43
405 -92 336 -90 324 -94 592 l-4 248 42 -43 c57 -57 245 -153 339 -172 91 -19
258 -19 351 0 103 22 269 106 333 170 27 28 51 51 51 50 1 0 -5 -43 -13 -95z"/>
<path d="M5327 7608 c-2 -7 2 -47 9 -88 10 -51 13 -144 12 -290 l-2 -215 42
-155 c23 -85 48 -177 56 -205 18 -65 40 -375 34 -460 -5 -53 -16 -86 -58 -171
-29 -57 -51 -106 -49 -107 41 -32 83 -51 175 -80 100 -32 153 -44 322 -78 62
-13 116 -5 317 47 160 40 209 58 257 89 l37 25 -57 117 -57 116 2 126 c1 69 7
169 13 221 11 99 15 119 80 370 43 167 46 197 35 395 -6 102 -4 154 10 238 16
107 14 140 -9 103 -61 -102 -92 -131 -209 -193 -136 -74 -210 -93 -362 -93
-145 0 -227 20 -354 85 -110 58 -186 124 -211 186 -13 31 -25 37 -33 17z m244
-235 c62 -32 133 -59 177 -68 93 -19 260 -19 351 0 86 18 278 113 331 164 l37
36 1 -165 c1 -91 2 -197 3 -235 1 -72 -38 -258 -83 -390 -21 -65 -35 -163 -47
-347 -11 -174 -2 -231 53 -344 54 -112 54 -109 -49 -143 -195 -64 -298 -85
-415 -85 -125 -1 -188 11 -375 69 -125 39 -162 60 -145 80 6 7 29 49 50 94 28
58 41 99 46 149 9 97 -14 401 -38 487 -10 39 -35 131 -55 205 l-36 135 -1 250
-1 250 46 -45 c28 -28 85 -65 150 -97z"/>
<path d="M5805 6880 c-42 -28 -149 -60 -201 -60 -47 0 -59 -14 -21 -24 61 -16
171 12 234 60 53 40 43 61 -12 24z"/>
<path d="M6000 6893 c0 -30 102 -87 177 -99 46 -7 113 2 113 15 0 5 -32 11
-70 13 -53 4 -87 14 -138 39 -87 44 -82 42 -82 32z"/>
</g>
</svg>
