<?xml version="1.0" standalone="no"?>
<!DOCTYPE svg PUBLIC "-//W3C//DTD SVG 20010904//EN"
 "http://www.w3.org/TR/2001/REC-SVG-20010904/DTD/svg10.dtd">
<svg version="1.0" xmlns="http://www.w3.org/2000/svg"
 width="1500.000000pt" height="936.000000pt" viewBox="0 0 1500.000000 936.000000"
 preserveAspectRatio="xMidYMid meet">

<g transform="translate(0.000000,936.000000) scale(0.100000,-0.100000)"
fill="#000000" stroke="none">
<path d="M5310 7637 c0 -2 9 -45 21 -97 18 -83 20 -123 18 -310 l-3 -215 42
-155 c23 -85 48 -177 56 -205 18 -65 40 -375 34 -460 -5 -53 -16 -86 -58 -171
-29 -57 -51 -106 -49 -107 41 -32 83 -51 175 -80 100 -32 153 -44 322 -78 62
-13 116 -5 317 47 160 40 209 58 257 89 l37 25 -57 117 -57 116 2 126 c1 69 7
169 13 221 11 100 16 120 80 370 43 167 46 193 35 415 -6 120 -4 154 14 242
25 120 24 113 7 113 -24 0 -74 -67 -123 -163 -37 -74 -47 -105 -51 -159 l-5
-67 -36 18 c-136 70 -312 65 -364 -9 -15 -22 -15 -22 -26 -2 -6 11 -31 30 -57
42 -68 33 -185 26 -278 -18 -38 -18 -69 -32 -70 -32 0 0 -2 30 -3 68 -2 57 -9
80 -47 157 -47 94 -102 165 -130 165 -9 0 -16 -1 -16 -3z m117 -171 c40 -80
46 -101 51 -173 2 -46 6 -83 7 -83 1 0 36 16 78 35 42 19 104 39 138 44 94 12
146 -3 192 -59 14 -16 29 -30 34 -30 4 0 16 14 25 30 46 81 208 82 366 1 50
-25 49 -27 55 79 3 63 10 88 45 156 58 115 73 124 55 31 -11 -53 -13 -112 -8
-222 3 -82 6 -172 5 -200 0 -52 -47 -257 -82 -360 -21 -65 -35 -163 -47 -347
-11 -174 -2 -231 53 -344 54 -112 54 -109 -49 -143 -195 -64 -298 -85 -415
-85 -125 -1 -188 11 -375 69 -125 39 -162 60 -145 80 6 7 29 49 50 94 28 58
41 99 46 149 9 97 -14 401 -38 487 -10 39 -35 131 -55 205 l-37 135 3 210 c1
147 -2 232 -12 282 -18 95 -3 84 60 -41z"/>
<path d="M5805 6880 c-42 -28 -149 -60 -201 -60 -47 0 -59 -14 -21 -24 61 -16
171 12 234 60 53 40 43 61 -12 24z"/>
<path d="M6000 6893 c0 -30 102 -87 177 -99 46 -7 113 2 113 15 0 5 -32 11
-70 13 -53 4 -87 14 -138 39 -87 44 -82 42 -82 32z"/>
<path d="M8364 7563 c4 -43 10 -181 12 -307 4 -244 13 -300 89 -561 28 -96 46
-255 48 -421 l2 -121 -57 -117 -57 -116 37 -25 c48 -31 97 -49 257 -89 206
-53 254 -60 322 -46 32 7 90 18 128 26 150 31 308 87 364 131 2 1 -20 49 -49
106 -43 85 -53 116 -57 171 -7 86 15 396 33 461 81 294 97 363 96 435 -3 324
2 439 23 523 12 45 -20 33 -64 -25 -68 -90 -112 -195 -114 -272 -1 -36 -3 -66
-3 -66 -1 0 -32 14 -70 32 -93 44 -210 51 -278 18 -26 -12 -51 -31 -57 -42
-11 -20 -11 -20 -26 2 -52 74 -228 79 -364 9 l-36 -18 -5 67 c-4 54 -14 85
-51 159 -46 90 -99 163 -119 163 -7 0 -8 -26 -4 -77z m98 -97 c35 -68 42 -93
45 -156 6 -106 5 -104 55 -79 158 81 320 80 366 -1 9 -16 21 -30 25 -30 5 0
20 14 34 30 46 56 98 71 192 59 34 -5 96 -25 138 -44 42 -19 77 -35 78 -35 1
0 5 37 7 83 5 73 11 93 51 174 49 97 70 123 62 76 -14 -75 -23 -316 -13 -351
21 -74 3 -173 -90 -517 -23 -85 -48 -398 -38 -487 7 -61 62 -201 94 -240 12
-14 10 -19 -13 -34 -36 -23 -252 -89 -362 -110 -146 -27 -296 -8 -541 71 -120
39 -120 39 -76 126 60 120 65 143 65 274 0 153 -16 310 -43 405 -91 334 -90
326 -93 580 -2 129 -6 253 -11 275 -7 37 -6 39 10 26 10 -8 36 -51 58 -95z"/>
</g>
</svg>
