<?xml version="1.0" standalone="no"?>
<!DOCTYPE svg PUBLIC "-//W3C//DTD SVG 20010904//EN"
 "http://www.w3.org/TR/2001/REC-SVG-20010904/DTD/svg10.dtd">
<svg version="1.0" xmlns="http://www.w3.org/2000/svg"
 width="1500.000000pt" height="936.000000pt" viewBox="0 0 1500.000000 936.000000"
 preserveAspectRatio="xMidYMid meet">

<g transform="translate(0.000000,936.000000) scale(0.100000,-0.100000)"
fill="#000000" stroke="none">
<path d="M5461 7685 c-135 -38 -141 -42 -141 -84 0 -20 5 -70 11 -111 6 -41
12 -165 14 -275 3 -215 0 -203 99 -560 18 -65 40 -375 34 -460 -5 -53 -16 -86
-58 -171 -29 -57 -51 -106 -49 -107 41 -32 83 -51 175 -80 100 -32 153 -44
322 -78 62 -13 116 -5 317 47 160 40 209 58 257 89 l37 25 -57 117 -57 116 2
126 c1 69 7 169 13 221 11 101 17 125 81 370 31 120 40 172 39 230 -3 220 -2
274 9 375 7 61 14 122 17 136 4 23 0 28 -33 41 -21 9 -77 26 -125 38 l-87 23
-72 -68 c-193 -181 -399 -176 -586 14 -28 28 -57 51 -64 50 -8 0 -52 -11 -98
-24z m185 -85 c188 -163 393 -156 573 18 53 52 74 66 88 60 10 -4 53 -17 96
-29 44 -13 82 -29 85 -37 3 -9 0 -67 -7 -131 -7 -64 -11 -159 -10 -211 5 -190
1 -235 -31 -365 -17 -72 -40 -157 -52 -190 -21 -65 -35 -163 -47 -347 -11
-174 -2 -231 53 -344 54 -112 54 -109 -49 -143 -195 -64 -298 -85 -415 -85
-125 -1 -188 11 -375 69 -125 39 -162 60 -145 80 6 7 29 49 50 94 28 58 41 99
46 149 9 97 -14 401 -38 487 -96 353 -91 325 -93 525 -1 102 -8 233 -15 292
-7 59 -10 113 -7 121 3 7 45 24 94 37 48 13 95 27 103 31 10 5 18 2 23 -9 5
-9 38 -42 73 -72z"/>
<path d="M5805 6880 c-42 -28 -149 -60 -201 -60 -47 0 -59 -14 -21 -24 61 -16
171 12 234 60 53 40 43 61 -12 24z"/>
<path d="M6000 6893 c0 -30 102 -87 177 -99 46 -7 113 2 113 15 0 5 -32 11
-70 13 -53 4 -87 14 -138 39 -87 44 -82 42 -82 32z"/>
<path d="M8456 7677 l-110 -32 3 -110 c1 -60 5 -113 7 -117 2 -3 6 -92 9 -198
4 -200 17 -275 90 -525 28 -96 46 -255 48 -421 l2 -121 -57 -117 -57 -116 37
-25 c48 -31 97 -49 257 -89 206 -53 254 -60 322 -46 32 7 90 18 128 26 150 31
308 87 364 131 2 1 -20 49 -49 106 -43 85 -53 116 -57 171 -7 86 15 396 33
461 86 310 97 361 95 445 0 47 -1 118 -2 159 0 41 7 141 17 223 11 92 14 152
8 158 -5 5 -62 24 -126 41 l-117 33 -52 -53 c-189 -192 -395 -198 -586 -17
-39 36 -77 66 -84 65 -8 0 -63 -14 -123 -32z m318 -152 c111 -54 225 -55 339
-2 54 25 172 122 182 150 4 9 11 15 16 12 5 -4 53 -18 107 -33 l97 -27 0 -45
c-1 -25 -9 -118 -19 -208 -16 -137 -17 -170 -6 -202 21 -65 7 -144 -88 -495
-23 -85 -48 -398 -38 -487 7 -61 62 -201 94 -240 12 -14 10 -19 -13 -34 -36
-23 -252 -89 -362 -110 -146 -27 -296 -8 -541 71 -120 39 -120 39 -76 126 60
120 65 143 65 274 0 153 -16 310 -43 405 -87 321 -90 335 -96 535 -3 105 -6
239 -6 300 l-1 109 75 23 c41 12 86 26 99 30 20 7 33 -2 92 -59 38 -37 93 -78
123 -93z"/>
</g>
</svg>
