<?xml version="1.0" standalone="no"?>
<!DOCTYPE svg PUBLIC "-//W3C//DTD SVG 20010904//EN"
 "http://www.w3.org/TR/2001/REC-SVG-20010904/DTD/svg10.dtd">
<svg version="1.0" xmlns="http://www.w3.org/2000/svg"
 width="1500.000000pt" height="936.000000pt" viewBox="0 0 1500.000000 936.000000"
 preserveAspectRatio="xMidYMid meet">

<g transform="translate(0.000000,936.000000) scale(0.100000,-0.100000)"
fill="#000000" stroke="none">
<path d="M4998 7717 c-136 -76 -259 -143 -350 -189 -99 -50 -98 -49 -196 -178
-25 -33 -42 -89 -97 -315 -71 -293 -142 -665 -175 -925 -18 -135 -41 -271 -56
-320 -16 -57 -28 -130 -34 -220 -6 -74 -15 -161 -21 -192 -6 -31 -9 -68 -5
-81 8 -32 71 -65 231 -121 153 -54 149 -56 158 61 3 43 17 125 32 182 14 57
30 149 36 205 11 100 67 344 154 666 34 126 47 194 54 288 5 68 11 125 14 128
12 12 19 -205 14 -439 -5 -265 -20 -411 -62 -602 -31 -139 -51 -263 -65 -388
-6 -55 -15 -107 -20 -117 -6 -10 -10 -21 -10 -23 0 -2 58 -7 129 -11 70 -4
191 -18 267 -31 102 -19 173 -25 273 -25 175 0 469 38 611 80 58 16 136 33
173 36 l68 7 -5 41 c-3 23 -25 86 -50 142 -47 106 -65 169 -86 294 -7 41 -16
91 -21 110 -42 179 -56 356 -50 655 l3 170 18 -73 c10 -40 26 -136 35 -215 9
-78 22 -167 30 -197 8 -30 23 -109 35 -175 11 -66 39 -195 60 -287 22 -92 48
-220 59 -284 22 -127 37 -160 78 -171 37 -9 276 33 323 57 64 33 66 51 30 267
-17 103 -44 247 -60 318 -16 72 -38 193 -49 270 -12 77 -37 205 -56 285 -36
151 -76 427 -95 664 -18 221 -63 326 -166 392 -29 19 -55 34 -58 34 -3 0 -66
29 -139 64 -107 52 -148 78 -206 131 l-72 66 -57 -6 c-87 -9 -418 -11 -497 -3
-67 8 -73 6 -127 -25z m222 -1 c25 -2 137 -1 250 4 l205 7 65 -59 c53 -49 98
-76 245 -147 188 -92 222 -117 264 -199 26 -50 47 -164 56 -287 12 -184 56
-486 95 -654 22 -91 49 -231 60 -311 11 -80 32 -190 45 -246 13 -55 38 -187
56 -293 35 -211 34 -228 -20 -255 -32 -17 -172 -45 -261 -53 -78 -7 -85 4
-116 173 -14 77 -29 155 -34 174 -22 79 -70 300 -80 365 -6 39 -21 122 -35
185 -13 63 -29 162 -35 220 -6 58 -22 157 -36 220 l-25 115 22 100 c22 103 46
164 82 202 11 13 18 25 15 28 -11 11 -104 -103 -122 -151 -17 -44 -19 -86 -23
-409 -5 -387 -4 -399 58 -725 37 -195 48 -237 93 -341 24 -57 47 -118 50 -135
l7 -32 -57 -7 c-32 -4 -104 -20 -161 -36 -56 -17 -135 -34 -175 -39 -40 -5
-120 -16 -178 -25 -161 -24 -382 -23 -510 4 -58 11 -169 26 -248 33 -122 10
-142 14 -137 27 2 9 11 77 20 151 8 74 33 225 54 335 22 110 45 238 51 285 17
128 23 465 12 640 -9 132 -17 176 -50 294 -42 143 -71 202 -58 116 4 -25 16
-73 26 -108 11 -34 22 -90 26 -125 9 -91 -12 -290 -41 -398 -95 -350 -158
-617 -171 -729 -8 -68 -26 -167 -40 -220 -13 -52 -27 -126 -30 -165 -3 -38 -7
-76 -9 -82 -5 -14 -231 62 -300 100 -47 27 -46 13 -22 277 10 105 24 198 35
230 23 66 28 91 47 240 8 63 19 153 25 200 25 194 107 601 180 890 64 253 126
344 287 423 79 38 181 94 328 178 53 30 43 29 215 15z"/>
<path d="M8960 7705 c-74 -66 -237 -143 -381 -180 -151 -39 -223 -108 -285
-271 -18 -50 -24 -84 -24 -150 0 -71 -8 -115 -50 -267 -27 -100 -61 -232 -74
-292 -14 -61 -34 -148 -45 -195 -11 -47 -38 -192 -60 -322 -23 -130 -50 -260
-61 -288 -28 -70 -39 -123 -50 -243 -6 -56 -18 -134 -27 -173 -9 -39 -13 -83
-9 -97 8 -34 59 -63 227 -132 103 -42 137 -51 145 -42 6 7 16 51 23 99 6 48
24 129 40 180 16 51 38 152 50 224 11 73 31 167 45 210 13 44 40 135 61 204
20 69 54 177 75 240 45 134 66 233 76 348 3 45 11 85 17 89 7 4 8 -81 3 -269
-9 -362 -31 -530 -110 -848 -25 -96 -54 -238 -66 -315 -12 -77 -26 -144 -31
-149 -23 -24 -8 -36 44 -36 72 0 236 -25 377 -57 222 -50 623 -38 895 28 66
16 145 29 177 29 l58 0 0 39 c0 22 -19 88 -44 153 -54 141 -49 118 -91 410
-40 277 -44 388 -24 675 9 143 9 195 0 243 -7 34 -10 64 -8 67 11 10 28 -101
47 -307 12 -118 30 -267 40 -330 10 -63 22 -142 25 -175 4 -33 17 -121 31
-195 49 -270 63 -356 73 -433 17 -142 42 -157 209 -133 168 24 219 41 237 76
8 16 15 43 15 61 0 49 -38 338 -65 494 -13 77 -31 205 -40 285 -8 80 -29 215
-46 300 -33 170 -54 373 -69 665 -12 250 -20 280 -115 410 -94 131 -117 149
-235 185 -64 20 -173 67 -280 122 l-174 89 -196 -7 c-167 -5 -201 -4 -234 10
-21 9 -40 16 -42 16 -2 0 -26 -20 -54 -45z m96 9 c33 -14 66 -15 231 -9 l192
7 167 -87 c96 -50 206 -99 260 -115 51 -16 106 -36 122 -44 37 -19 90 -80 108
-122 8 -18 23 -38 34 -44 30 -16 68 -88 84 -160 8 -36 17 -135 21 -220 11
-262 34 -487 70 -675 18 -99 39 -236 45 -305 7 -69 22 -183 35 -255 40 -219
69 -460 64 -519 -6 -66 -31 -76 -250 -107 -145 -20 -158 -9 -179 161 -6 52
-29 190 -51 305 -21 116 -43 251 -49 301 -5 50 -17 125 -25 165 -19 91 -34
302 -23 310 4 3 -3 65 -17 139 -33 177 -43 210 -60 210 -25 0 -17 53 25 160
21 56 34 100 27 97 -7 -2 -28 -41 -47 -88 -39 -96 -43 -151 -21 -267 12 -61
13 -104 3 -260 -19 -290 -16 -372 23 -648 37 -261 49 -312 94 -428 16 -39 31
-92 35 -117 l7 -46 -68 -7 c-37 -4 -113 -18 -167 -32 -127 -32 -240 -44 -501
-50 -223 -6 -195 -9 -480 49 -38 8 -115 20 -170 27 -132 16 -124 11 -115 62 5
24 16 93 25 153 9 61 35 180 57 265 75 294 103 504 113 855 l7 240 -37 165
c-43 196 -44 200 -56 200 -14 0 -11 -35 13 -123 26 -101 28 -257 5 -397 -9
-53 -41 -172 -71 -265 -113 -354 -157 -515 -180 -665 -9 -58 -29 -149 -46
-202 -16 -54 -34 -132 -40 -175 -6 -43 -14 -81 -18 -85 -13 -12 -302 114 -329
144 -15 17 -16 26 -5 86 7 37 19 126 27 197 9 79 27 165 44 220 35 108 39 125
56 235 47 301 145 737 223 990 20 67 25 102 23 165 -3 104 19 169 97 288 33
50 91 82 205 117 175 53 309 117 380 181 23 21 43 38 43 39 1 0 19 -7 40 -16z"/>
<path d="M9138 6834 c-5 -4 -8 -20 -8 -35 0 -46 -18 -80 -50 -92 -33 -13 -40
-27 -12 -27 26 0 58 26 71 58 13 31 11 109 -1 96z"/>
<path d="M9296 6805 c-4 -20 -4 -46 0 -58 8 -28 44 -67 61 -67 19 0 17 5 -18
39 -28 28 -30 35 -23 76 8 54 -10 63 -20 10z"/>
</g>
</svg>
