<?xml version="1.0" standalone="no"?>
<!DOCTYPE svg PUBLIC "-//W3C//DTD SVG 20010904//EN"
 "http://www.w3.org/TR/2001/REC-SVG-20010904/DTD/svg10.dtd">
<svg version="1.0" xmlns="http://www.w3.org/2000/svg"
 width="1500.000000pt" height="936.000000pt" viewBox="0 0 1500.000000 936.000000"
 preserveAspectRatio="xMidYMid meet">

<g transform="translate(0.000000,936.000000) scale(0.100000,-0.100000)"
fill="#000000" stroke="none">
<path d="M5510 7699 c-49 -14 -204 -62 -208 -65 -2 -1 6 -20 17 -42 32 -64 44
-158 36 -300 -14 -264 -12 -282 91 -642 12 -45 13 -70 5 -140 -6 -47 -13 -112
-17 -145 -7 -66 -44 -246 -71 -342 -22 -80 -15 -88 73 -87 73 1 70 5 48 -73
-6 -22 -3 -23 46 -23 l52 0 -7 -49 c-4 -29 -3 -51 3 -55 5 -3 28 0 50 8 47 17
122 10 122 -10 0 -26 41 -34 179 -34 114 0 142 3 155 16 9 8 16 19 16 23 0 18
80 21 117 6 62 -26 72 -11 47 78 -5 14 2 17 45 17 27 0 52 4 55 9 3 5 -1 25
-9 45 -8 19 -15 37 -15 39 0 2 31 3 69 3 43 -1 75 4 82 11 10 10 6 36 -18 125
-37 135 -58 251 -74 414 -12 119 -12 122 13 205 60 195 91 341 88 419 -2 41
-4 149 -4 240 -1 160 0 167 27 224 15 32 26 60 25 61 -6 4 -176 55 -221 66
l-47 11 -71 -67 c-193 -181 -399 -176 -586 14 -53 54 -57 55 -113 40z m136
-99 c188 -163 393 -156 573 18 53 51 74 66 88 61 10 -4 59 -20 110 -35 l92
-27 -14 -27 c-25 -48 -37 -161 -30 -291 12 -259 6 -303 -89 -629 -9 -30 -16
-67 -16 -81 0 -30 -14 -38 -130 -68 -182 -48 -431 -48 -618 0 -94 24 -122 37
-122 59 0 9 -9 50 -20 91 -101 367 -99 350 -85 621 7 128 -5 240 -29 289 -9
18 -14 34 -11 37 2 3 50 18 106 33 56 16 105 31 108 35 3 3 10 -3 14 -13 5
-10 38 -43 73 -73z m-22 -1130 c-29 -67 -77 -253 -89 -348 -22 -158 -23 -165
-40 -159 -7 3 -26 2 -42 -2 -15 -4 -40 -4 -55 1 l-26 9 22 67 c35 103 85 385
86 483 0 13 11 12 75 -10 58 -20 74 -29 69 -41z m750 -17 c11 -147 61 -393 92
-455 13 -26 13 -27 -19 -34 -17 -4 -36 -6 -42 -5 -5 2 -23 4 -40 5 -33 2 -28
-15 -55 176 -9 67 -52 233 -86 331 -4 11 6 19 38 28 24 7 54 19 68 27 14 7 28
13 31 14 4 0 10 -39 13 -87z m-560 6 c100 -10 282 -2 361 17 19 5 24 -7 58
-128 20 -73 42 -169 48 -213 13 -93 36 -221 44 -251 6 -18 3 -20 -28 -16 -38
4 -46 23 -48 101 0 20 -8 65 -18 101 -10 36 -32 115 -48 175 -31 113 -84 233
-90 204 -2 -9 5 -39 16 -67 11 -28 30 -88 41 -134 12 -46 30 -109 41 -140 14
-44 48 -270 49 -330 0 -4 -13 -3 -29 2 -15 4 -49 5 -75 3 l-46 -6 0 55 c0 31
-6 93 -14 139 -8 46 -22 143 -31 214 -21 165 -50 273 -69 254 -3 -2 2 -36 10
-74 8 -39 24 -135 34 -215 11 -80 23 -167 29 -195 5 -27 11 -88 13 -135 l3
-85 -142 -3 -143 -3 6 93 c3 51 10 116 15 143 5 28 18 120 29 205 11 85 24
171 30 190 12 42 13 80 2 80 -16 0 -43 -124 -63 -280 -10 -85 -22 -164 -26
-175 -3 -11 -9 -60 -12 -110 l-6 -90 -55 -1 c-30 0 -66 -4 -79 -8 -20 -7 -23
-5 -18 8 4 9 11 64 17 123 6 60 18 133 27 163 8 30 28 103 44 161 15 58 37
129 48 158 23 57 25 71 12 71 -13 0 -59 -109 -80 -191 -10 -41 -30 -112 -44
-159 -14 -47 -28 -119 -32 -162 l-7 -76 -35 -4 c-31 -4 -34 -2 -28 16 3 12 16
94 30 183 20 135 38 215 91 396 4 14 12 17 32 13 15 -3 76 -11 136 -17z"/>
<path d="M5805 6880 c-42 -28 -149 -60 -201 -60 -47 0 -59 -14 -21 -24 61 -16
171 12 234 60 53 40 43 61 -12 24z"/>
<path d="M6000 6893 c0 -30 102 -87 177 -99 46 -7 113 2 113 15 0 5 -32 11
-70 13 -53 4 -87 14 -138 39 -87 44 -82 42 -82 32z"/>
<path d="M8530 7688 c-96 -26 -166 -49 -180 -57 -12 -9 -12 -12 1 -28 9 -10
21 -39 28 -65 16 -69 14 -305 -4 -374 -21 -82 -8 -160 92 -520 15 -55 15 -74
4 -175 -11 -104 -29 -220 -50 -324 -5 -22 -19 -75 -32 -117 -29 -97 -24 -103
72 -102 38 0 69 -1 69 -3 0 -2 -7 -20 -15 -39 -8 -20 -12 -40 -9 -45 3 -5 28
-9 55 -9 43 0 50 -3 45 -17 -25 -89 -15 -104 47 -78 37 15 117 12 117 -6 0 -4
7 -15 16 -23 13 -13 41 -16 155 -16 138 0 179 8 179 34 0 20 75 27 122 10 22
-8 45 -11 50 -8 6 4 7 26 3 55 l-7 49 52 0 c49 0 52 1 46 23 -22 78 -25 74 48
73 88 -1 95 7 73 87 -35 126 -66 287 -81 427 -15 131 -15 150 -1 200 104 374
102 356 97 690 -2 135 1 186 12 225 9 28 16 55 16 61 0 15 -52 35 -162 64
l-88 23 -51 -52 c-189 -192 -395 -198 -586 -17 -74 69 -76 70 -133 54z m244
-173 c111 -54 225 -55 339 -2 53 24 172 122 182 149 5 13 11 15 28 8 12 -5 58
-19 102 -31 44 -11 83 -24 87 -27 4 -4 0 -32 -8 -62 -12 -43 -14 -109 -12
-300 l2 -245 -37 -135 c-20 -74 -45 -168 -57 -209 -11 -41 -20 -82 -20 -91 0
-22 -28 -35 -122 -59 -187 -48 -436 -48 -618 0 -118 31 -130 37 -130 70 0 15
-11 63 -24 106 -45 145 -86 323 -92 397 -6 62 -4 74 10 79 14 6 16 28 16 168
0 113 -5 179 -16 221 -8 33 -14 62 -12 63 2 2 44 15 93 30 49 14 90 27 92 29
2 1 35 -28 73 -65 39 -37 94 -79 124 -94z m-184 -1018 c30 -11 56 -21 58 -22
1 -1 -11 -44 -28 -95 -31 -94 -62 -240 -77 -360 -7 -55 -11 -65 -28 -66 -11
-1 -29 -3 -40 -5 -11 -1 -34 1 -51 5 l-32 7 19 49 c36 94 74 290 85 433 6 76
9 87 23 81 9 -4 41 -16 71 -27z m809 -82 c15 -136 52 -322 80 -395 12 -30 21
-56 21 -57 0 -7 -64 -17 -97 -15 -49 4 -44 -9 -68 164 -12 95 -60 281 -89 348
-5 12 10 21 66 40 40 14 74 26 74 25 1 0 7 -49 13 -110z m-554 35 c99 -10 142
-9 245 3 69 8 126 14 128 12 14 -13 78 -283 97 -409 14 -89 27 -170 30 -182 6
-18 3 -20 -28 -16 l-35 4 -7 76 c-4 43 -18 115 -32 162 -14 47 -34 118 -44
159 -21 82 -67 191 -80 191 -13 0 -11 -14 12 -72 11 -29 34 -100 49 -158 15
-58 35 -130 44 -160 8 -30 20 -103 26 -163 6 -59 13 -114 17 -123 5 -13 2 -15
-18 -8 -13 4 -49 8 -79 8 l-55 1 -6 91 c-4 50 -10 100 -13 110 -3 11 -15 89
-25 174 -20 156 -47 280 -63 280 -11 0 -10 -38 2 -80 6 -19 19 -105 30 -190
11 -85 24 -177 29 -205 5 -27 12 -92 15 -143 l6 -93 -143 3 -142 3 3 85 c2 47
8 108 13 135 6 28 18 115 29 195 10 80 26 176 34 215 8 38 13 72 10 74 -19 19
-47 -88 -69 -259 -9 -69 -23 -163 -31 -209 -8 -46 -14 -108 -14 -139 l0 -55
-46 6 c-26 2 -60 1 -75 -3 -16 -5 -29 -6 -29 -2 1 60 35 286 49 330 11 31 29
94 41 140 11 46 30 108 41 138 11 30 19 60 16 67 -8 23 -60 -98 -90 -208 -16
-60 -38 -139 -48 -175 -10 -36 -18 -81 -18 -101 -2 -78 -10 -97 -48 -101 -31
-4 -34 -2 -28 16 8 30 31 158 44 251 6 44 28 140 48 213 36 131 38 133 63 128
14 -3 79 -10 145 -16z"/>
</g>
</svg>
