<?xml version="1.0" standalone="no"?>
<!DOCTYPE svg PUBLIC "-//W3C//DTD SVG 20010904//EN"
 "http://www.w3.org/TR/2001/REC-SVG-20010904/DTD/svg10.dtd">
<svg version="1.0" xmlns="http://www.w3.org/2000/svg"
 width="1500.000000pt" height="936.000000pt" viewBox="0 0 1500.000000 936.000000"
 preserveAspectRatio="xMidYMid meet">

<g transform="translate(0.000000,936.000000) scale(0.100000,-0.100000)"
fill="#000000" stroke="none">
<path d="M9285 7804 c-11 -3 -78 -8 -150 -12 l-130 -7 3 -28 c3 -26 -3 -30
-125 -88 -70 -33 -164 -78 -208 -99 -44 -21 -119 -50 -167 -65 -49 -16 -92
-33 -98 -39 -22 -27 -140 -242 -151 -275 -7 -20 -27 -60 -45 -89 -19 -29 -47
-81 -63 -117 -16 -35 -43 -84 -61 -110 -17 -25 -30 -53 -28 -62 4 -19 154
-114 289 -183 101 -51 175 -75 272 -86 64 -8 75 -23 63 -87 -3 -17 -10 -111
-16 -207 -10 -161 -27 -275 -102 -703 -24 -137 -23 -145 24 -180 41 -31 250
-43 470 -28 109 7 253 10 375 6 144 -5 236 -2 338 8 77 8 144 11 149 7 5 -5
16 -2 24 7 11 10 12 17 4 22 -14 8 -32 119 -32 199 0 35 -11 107 -24 160 -14
53 -32 149 -41 212 -56 412 -58 429 -49 525 6 66 9 76 28 79 178 32 364 82
474 128 69 29 142 79 142 98 0 4 -20 34 -44 67 -59 78 -126 206 -175 333 -32
83 -55 123 -107 188 -65 81 -124 132 -154 132 -16 1 -109 31 -225 74 -77 29
-182 85 -232 122 -24 18 -33 33 -33 54 0 16 -3 31 -7 33 -12 7 -165 15 -188
11z m114 -20 c49 -6 61 -10 61 -24 0 -22 -37 -27 -261 -36 l-166 -7 -6 24 c-4
13 -7 26 -7 29 0 3 19 4 43 2 23 -1 83 1 132 6 123 13 133 13 204 6z m100 -93
c47 -37 175 -105 226 -121 22 -7 57 -21 78 -32 21 -10 75 -28 120 -39 72 -18
88 -26 130 -67 26 -25 47 -52 47 -58 0 -7 -43 -93 -95 -191 -109 -204 -143
-293 -186 -477 -48 -211 -43 -332 36 -861 13 -88 29 -207 35 -265 6 -58 15
-123 20 -145 5 -22 6 -43 2 -46 -17 -15 -291 -30 -567 -31 -694 -3 -688 -3
-731 18 -50 24 -52 42 -24 195 66 366 91 535 96 654 3 72 10 140 16 152 10 20
7 124 -7 278 -1 17 -27 82 -58 145 -153 320 -245 630 -196 661 8 4 57 22 109
39 52 17 169 67 260 112 l165 82 215 11 c118 7 228 12 244 13 18 1 41 -8 65
-27z m-1041 -496 c22 -66 68 -185 102 -265 34 -80 66 -163 71 -185 6 -22 15
-48 20 -57 12 -22 15 -23 -78 7 -110 34 -330 146 -380 191 l-42 39 32 70 c18
39 41 86 53 105 11 19 28 55 38 80 9 25 43 90 74 145 l57 100 6 -55 c3 -30 24
-109 47 -175z m1700 108 c16 -27 47 -93 68 -148 35 -93 92 -205 135 -267 11
-14 19 -31 19 -37 0 -22 -449 -151 -528 -151 -30 0 51 244 133 401 36 68 80
152 97 187 18 34 35 62 39 62 4 0 20 -21 37 -47z m-1954 -448 c104 -73 329
-175 437 -199 20 -4 28 -14 33 -37 12 -62 12 -62 -55 -56 -86 10 -161 33 -261
83 -83 42 -197 110 -208 124 -3 4 -20 15 -37 25 -18 11 -33 23 -33 26 0 12 44
78 52 79 4 0 36 -20 72 -45z m2217 -46 c6 -12 7 -25 2 -29 -22 -21 -146 -81
-213 -104 -92 -30 -328 -86 -365 -86 -23 0 -26 3 -21 23 3 12 6 32 6 43 0 19
8 22 71 28 40 4 79 11 88 16 9 5 66 23 126 39 61 17 148 44 195 60 104 36 97
35 111 10z"/>
<path d="M9148 6854 c-5 -4 -8 -20 -8 -35 0 -42 -15 -73 -52 -108 -23 -22 -28
-31 -17 -31 25 0 77 64 84 103 8 40 3 82 -7 71z"/>
<path d="M9308 6835 c-2 -3 -1 -31 3 -62 6 -44 14 -63 34 -80 26 -23 85 -32
85 -13 0 6 -11 10 -25 10 -39 0 -75 42 -75 87 0 38 -12 68 -22 58z"/>
<path d="M5060 7742 c-25 -15 -63 -33 -85 -41 -22 -7 -87 -36 -145 -63 -58
-27 -152 -66 -210 -85 -58 -19 -110 -40 -117 -47 -20 -18 -142 -236 -154 -275
-7 -20 -27 -60 -45 -89 -19 -29 -47 -81 -63 -117 -16 -35 -43 -84 -61 -110
-17 -25 -30 -53 -28 -63 5 -25 92 -74 236 -130 214 -85 289 -111 343 -118 l52
-7 -6 -81 c-4 -45 -11 -153 -17 -241 -10 -144 -30 -278 -102 -688 -24 -137
-23 -145 24 -180 41 -31 250 -43 468 -28 106 7 254 9 375 6 145 -5 238 -2 340
8 77 8 144 11 149 7 5 -5 16 -2 24 7 11 10 12 17 4 22 -14 8 -32 119 -32 199
0 35 -11 107 -24 160 -14 53 -32 149 -41 212 -8 63 -22 162 -30 220 -21 149
-26 256 -18 320 7 49 11 55 33 58 14 2 59 14 100 27 41 13 125 38 185 56 197
58 325 118 325 152 0 5 -20 34 -44 65 -57 74 -124 201 -175 332 -32 83 -55
123 -106 187 -36 45 -79 92 -95 103 -16 12 -81 34 -143 50 -127 33 -165 47
-290 105 -31 14 -62 35 -67 45 -5 10 -17 26 -26 34 -14 14 -17 14 -30 1 -54
-54 -292 -60 -399 -11 -32 14 -58 26 -59 25 0 0 -21 -13 -46 -27z m71 -69 c12
-36 48 -130 81 -207 32 -78 60 -145 61 -151 1 -5 -23 -12 -54 -16 -31 -3 -80
-14 -108 -25 -38 -13 -56 -15 -68 -8 -26 16 -75 169 -84 262 -12 110 0 139 73
180 29 16 58 30 65 31 6 0 21 -29 34 -66z m124 26 c85 -14 216 -7 273 16 24
10 45 15 48 12 3 -2 -9 -38 -25 -78 -17 -41 -40 -112 -51 -158 -24 -95 -42
-135 -99 -216 l-39 -56 -25 33 c-14 18 -34 51 -45 73 -38 77 -162 389 -162
409 0 4 13 0 28 -8 16 -8 59 -20 97 -27z m438 -46 c62 -30 73 -57 56 -138 -19
-94 -57 -211 -78 -236 l-18 -23 -89 23 c-49 12 -95 24 -102 27 -9 3 -6 17 13
54 14 27 32 80 40 117 8 38 30 105 47 150 l32 82 26 -16 c14 -9 47 -27 73 -40z
m-748 -90 c0 -108 17 -185 62 -280 20 -43 41 -48 115 -25 35 11 86 23 113 26
l51 7 30 -43 31 -43 -5 -132 c-2 -72 -1 -144 4 -160 6 -20 10 16 14 122 6 154
10 174 58 233 l18 24 104 -25 c119 -29 139 -25 164 28 21 44 76 256 76 292 0
20 4 24 18 18 9 -3 80 -25 157 -47 133 -38 142 -42 190 -89 43 -42 48 -52 38
-67 -21 -34 -120 -285 -152 -387 -18 -55 -52 -140 -77 -190 -57 -115 -74 -197
-74 -360 0 -126 8 -203 65 -580 13 -88 29 -207 35 -265 6 -58 15 -123 20 -145
5 -22 6 -43 2 -46 -17 -15 -302 -30 -572 -31 -693 -3 -683 -3 -726 18 -31 15
-40 25 -42 50 -2 17 13 118 32 225 59 324 77 445 87 603 5 83 13 192 18 241 9
108 -6 186 -50 248 -16 23 -36 71 -45 107 -9 36 -38 133 -65 215 -54 169 -111
384 -103 396 2 4 42 19 87 33 45 14 134 50 197 80 63 30 117 54 120 55 3 1 5
-47 5 -106z m-400 -200 c15 -65 48 -176 72 -248 23 -71 43 -140 43 -152 0 -13
16 -64 36 -114 20 -50 33 -93 30 -96 -13 -13 -249 73 -364 132 -68 35 -122 58
-120 52 7 -23 223 -125 352 -167 72 -23 138 -45 146 -49 16 -8 33 -63 28 -91
-3 -17 -6 -17 -73 0 -151 39 -460 169 -500 210 l-27 28 24 33 c12 19 28 38 35
44 6 5 26 44 44 85 18 41 43 91 54 110 12 19 29 55 39 80 22 56 135 260 145
260 4 0 20 -53 36 -117z m1703 -20 c16 -27 47 -93 68 -148 35 -93 92 -205 135
-267 11 -14 19 -31 19 -37 0 -18 -442 -151 -503 -151 -14 0 -16 4 -8 19 6 10
42 111 80 224 67 197 156 407 171 407 5 0 21 -21 38 -47z m263 -494 c8 -17 8
-24 -3 -34 -35 -34 -471 -181 -571 -193 -37 -4 -38 -4 -31 24 15 59 31 69 159
97 66 15 188 49 270 76 83 27 153 49 157 50 4 1 12 -9 19 -20z"/>
<path d="M5419 7161 c-20 -16 -22 -23 -13 -38 6 -10 25 -19 42 -21 26 -3 32 1
38 22 13 55 -22 74 -67 37z"/>
</g>
</svg>
