<?xml version="1.0" standalone="no"?>
<!DOCTYPE svg PUBLIC "-//W3C//DTD SVG 20010904//EN"
 "http://www.w3.org/TR/2001/REC-SVG-20010904/DTD/svg10.dtd">
<svg version="1.0" xmlns="http://www.w3.org/2000/svg"
 width="1500.000000pt" height="936.000000pt" viewBox="0 0 1500.000000 936.000000"
 preserveAspectRatio="xMidYMid meet">

<g transform="translate(0.000000,936.000000) scale(0.100000,-0.100000)"
fill="#000000" stroke="none">
<path d="M4835 7667 c-161 -77 -209 -103 -243 -131 -16 -15 -35 -26 -41 -26
-6 0 -11 -5 -11 -11 0 -6 -18 -31 -39 -55 -46 -52 -80 -120 -114 -230 -52
-167 -162 -667 -177 -804 -6 -58 -20 -141 -30 -185 -24 -110 -29 -159 -31
-315 -1 -74 -5 -164 -10 -200 -5 -36 -15 -119 -24 -185 -8 -66 -15 -186 -15
-266 0 -181 -1 -179 121 -178 46 1 109 -2 139 -6 47 -6 59 -4 81 14 15 12 29
34 32 53 3 18 11 47 18 63 6 17 13 46 14 66 2 20 22 93 44 163 23 70 48 170
56 223 8 53 16 97 18 100 10 9 38 -226 44 -360 4 -90 11 -151 17 -157 7 -5 81
-11 166 -13 328 -8 779 -27 865 -36 187 -21 298 -23 319 -6 19 15 19 16 -4 90
-19 62 -21 79 -12 101 7 14 10 29 8 32 -2 4 5 48 15 97 38 175 35 455 -7 679
-9 43 -13 80 -11 82 3 3 15 -30 27 -73 20 -68 24 -112 30 -338 8 -265 14 -316
61 -470 14 -48 22 -110 26 -199 6 -123 7 -130 34 -160 27 -31 31 -33 171 -49
152 -19 197 -16 224 14 15 16 15 27 6 91 -6 40 -16 116 -21 168 -6 52 -19 176
-30 275 -31 274 -42 420 -51 650 -13 331 -65 610 -187 1004 -53 170 -82 237
-120 273 -33 30 -441 248 -466 248 -10 0 -14 -5 -11 -14 10 -26 -74 -104 -150
-141 -103 -50 -222 -65 -331 -40 -44 9 -91 23 -105 30 -55 29 -100 96 -100
150 0 52 -60 47 -195 -18z m175 26 c0 -81 56 -153 141 -184 32 -12 59 -26 59
-31 0 -12 80 -116 108 -141 30 -28 55 -14 106 57 49 69 83 98 166 142 30 16
79 53 108 83 l53 54 37 -17 c20 -10 109 -56 196 -104 158 -85 160 -86 135
-101 -137 -90 -174 -201 -149 -445 12 -113 12 -133 -4 -210 -27 -126 -18 -319
22 -491 79 -338 85 -633 16 -876 -6 -22 -177 -31 -344 -19 -241 18 -537 31
-757 32 l-223 2 0 53 c0 28 -7 105 -16 170 -21 157 -15 290 36 778 26 255 38
535 22 535 -7 0 -12 -30 -15 -82 -3 -81 -3 -81 -5 22 -1 65 5 150 17 225 32
197 33 185 -29 252 -30 32 -68 69 -85 81 l-30 23 25 20 c28 22 286 155 340
175 49 18 70 17 70 -3z m285 -218 c23 -3 70 -1 105 4 35 6 65 9 67 7 6 -6
-109 -146 -121 -146 -11 0 -36 29 -120 139 -9 11 -7 13 9 8 11 -3 38 -8 60
-12z m-715 -10 c7 -8 18 -15 25 -15 18 0 104 -100 112 -129 3 -14 -4 -94 -17
-180 -19 -132 -22 -172 -14 -270 15 -218 6 -322 -55 -621 -13 -65 -21 -160
-26 -304 -8 -255 -21 -346 -73 -512 -22 -71 -43 -141 -47 -156 -6 -33 -3 -33
-210 -14 -77 7 -144 9 -149 5 -9 -8 38 -15 159 -24 158 -11 185 -16 185 -34 0
-9 -11 -39 -24 -68 l-24 -51 -144 5 c-78 3 -147 9 -151 13 -5 4 -9 68 -10 141
-1 119 13 276 44 489 5 36 11 142 12 235 3 133 8 188 25 255 12 47 26 132 32
190 5 57 26 170 45 251 19 81 46 200 60 265 54 260 109 413 182 499 41 50 45
52 63 30z m1629 -62 c46 -72 189 -550 215 -724 8 -52 24 -150 35 -219 13 -74
21 -172 21 -240 0 -131 30 -514 60 -765 11 -93 20 -188 20 -209 l0 -39 -62 8
c-35 5 -119 9 -188 10 l-125 2 -2 59 c-1 36 -16 104 -39 174 l-36 115 -8 270
c-8 283 -15 332 -68 456 -56 129 -66 309 -31 546 21 148 18 231 -11 225 -21
-5 -8 172 17 228 31 68 134 157 167 144 6 -2 22 -21 35 -41z m-210 -402 c1
-35 -5 -22 -12 24 -5 28 -4 34 3 20 5 -11 9 -31 9 -44z m-1332 -703 c-3 -8 -6
-5 -6 6 -1 11 2 17 5 13 3 -3 4 -12 1 -19z m-21 -237 c-7 -116 -17 -215 -21
-219 -9 -10 4 287 17 371 5 38 12 67 14 64 2 -2 -2 -99 -10 -216z m679 -652
c88 -5 276 -12 418 -16 l257 -6 0 -57 c0 -31 5 -61 11 -67 6 -6 9 -23 7 -39
l-3 -29 -120 3 c-66 2 -165 10 -220 18 -88 13 -245 20 -840 38 l-140 5 -3 80
-3 80 33 4 c50 5 421 -3 603 -14z m1140 -210 l102 -12 13 -89 c9 -65 10 -92 2
-100 -17 -17 -111 -21 -162 -8 -25 7 -79 16 -120 20 -98 11 -110 25 -110 124
l0 72 87 3 c47 1 132 -3 188 -10z"/>
<path d="M9505 7642 c-66 -24 -80 -25 -250 -24 -100 1 -238 9 -310 18 l-130
17 -150 -76 c-82 -41 -172 -92 -200 -112 -68 -51 -141 -150 -175 -237 -29 -75
-83 -277 -95 -358 -4 -25 -24 -126 -46 -226 -21 -99 -43 -230 -49 -292 -6 -61
-19 -155 -30 -208 -15 -72 -20 -136 -20 -251 0 -86 -8 -233 -17 -327 -22 -206
-23 -486 -4 -510 11 -13 35 -16 117 -16 56 0 115 -5 130 -10 15 -6 40 -8 56
-5 22 5 30 14 38 48 6 23 16 56 22 72 5 17 16 53 23 80 6 28 24 88 38 135 30
99 57 225 58 272 0 18 4 42 8 52 11 28 27 -78 30 -200 1 -65 7 -107 17 -121 8
-13 14 -48 14 -86 0 -57 3 -66 29 -91 28 -27 35 -29 168 -37 76 -4 212 -13
303 -19 292 -21 880 -1 880 30 0 4 -7 27 -15 50 -18 50 -20 126 -4 136 7 4 8
9 1 13 -7 4 -3 37 10 96 17 74 21 124 21 280 1 177 -4 231 -38 425 -9 52 9 18
30 -55 13 -45 19 -123 25 -310 8 -256 10 -272 65 -474 15 -57 25 -121 25 -165
1 -99 14 -154 41 -181 20 -19 46 -25 169 -39 154 -18 199 -15 226 15 15 17 15
26 -5 139 -11 66 -21 144 -21 173 0 30 -7 103 -15 163 -26 180 -55 508 -61
684 -10 301 -71 623 -187 980 -95 296 -98 300 -325 415 -81 41 -179 92 -218
114 -40 21 -80 41 -90 44 -11 3 -50 -7 -89 -21z m-342 -39 c228 -5 270 -3 322
12 33 9 70 19 82 22 15 4 91 -29 245 -107 123 -62 238 -123 256 -137 38 -28
68 -84 112 -208 47 -134 136 -449 150 -535 7 -41 23 -136 37 -210 16 -93 27
-203 33 -350 10 -223 29 -456 53 -645 8 -60 15 -145 15 -188 l1 -77 -87 7
c-48 5 -129 8 -180 8 -91 0 -92 0 -92 24 0 26 -1 31 -56 196 l-37 110 -7 255
c-8 264 -18 328 -65 435 -44 100 -57 161 -62 290 -4 100 -1 156 12 235 26 155
24 293 -5 275 -16 -10 -12 146 5 203 12 39 30 65 76 111 71 71 62 83 -11 15
-78 -73 -94 -117 -95 -254 0 -63 4 -153 9 -200 7 -68 5 -100 -9 -164 -28 -125
-17 -301 29 -486 78 -309 86 -574 28 -840 l-8 -35 -94 -8 c-55 -4 -161 -3
-250 3 -256 17 -876 32 -912 22 -62 -17 -75 -3 -82 85 -3 43 -11 122 -17 176
-12 102 -6 369 12 532 34 326 39 446 23 579 -9 71 -13 154 -11 185 3 31 11
112 17 181 16 159 9 178 -84 247 -36 26 -65 53 -66 58 0 16 84 68 210 131 160
79 178 85 213 67 21 -11 92 -16 290 -20z m-686 -243 c19 -22 40 -40 47 -40 7
0 25 -13 40 -29 27 -28 28 -32 23 -108 -3 -43 -10 -122 -17 -176 -10 -77 -10
-120 -2 -192 23 -181 12 -353 -37 -590 -14 -64 -21 -156 -26 -315 -7 -250 -20
-385 -42 -445 -8 -22 -27 -80 -41 -130 l-27 -90 -50 3 c-28 1 -81 7 -120 12
-38 5 -99 11 -134 12 l-64 3 7 85 c16 230 26 321 41 385 10 46 12 71 5 73 -18
6 -12 238 9 337 11 50 25 142 30 205 6 63 28 196 51 295 22 99 40 189 40 201
0 40 70 301 100 374 29 72 100 170 122 170 6 0 26 -18 45 -40z m1420 -432 c-3
-7 -5 -2 -5 12 0 14 2 19 5 13 2 -7 2 -19 0 -25z m-1340 -700 c-3 -8 -6 -5 -6
6 -1 11 2 17 5 13 3 -3 4 -12 1 -19z m-16 -238 c-5 -111 -12 -205 -15 -208
-11 -10 -6 289 6 361 6 39 13 66 15 60 2 -6 0 -102 -6 -213z m884 -640 c88 -5
233 -9 321 -10 l161 0 -1 -54 c0 -30 6 -66 14 -80 7 -14 11 -28 8 -31 -30 -30
-752 -43 -983 -17 -60 6 -153 14 -205 17 -83 5 -97 9 -112 28 -15 20 -36 133
-26 142 2 3 60 9 129 14 133 10 434 6 694 -9z m-1200 -111 c160 -18 158 -18
151 -42 -3 -12 -11 -50 -17 -84 l-11 -63 -149 3 c-81 2 -152 6 -156 11 -4 4
-10 50 -11 101 l-4 94 54 -5 c29 -2 94 -9 143 -15z m2168 -75 l69 -6 19 -42
c10 -24 21 -68 25 -99 6 -55 6 -57 -20 -67 -35 -13 -120 -13 -171 1 -22 6 -67
14 -100 19 -33 4 -67 11 -76 14 -29 12 -40 54 -33 121 l7 64 56 4 c59 3 112 1
224 -9z"/>
</g>
</svg>
