<?xml version="1.0" standalone="no"?>
<!DOCTYPE svg PUBLIC "-//W3C//DTD SVG 20010904//EN"
 "http://www.w3.org/TR/2001/REC-SVG-20010904/DTD/svg10.dtd">
<svg version="1.0" xmlns="http://www.w3.org/2000/svg"
 width="1500.000000pt" height="936.000000pt" viewBox="0 0 1500.000000 936.000000"
 preserveAspectRatio="xMidYMid meet">

<g transform="translate(0.000000,936.000000) scale(0.100000,-0.100000)"
fill="#000000" stroke="none">
<path d="M5085 7744 c-22 -8 -76 -28 -120 -43 -273 -97 -421 -175 -471 -250
-27 -42 -103 -216 -165 -381 -22 -57 -53 -129 -70 -158 l-30 -54 21 -23 c59
-63 201 -103 382 -108 l113 -3 -2 -62 c-1 -35 -7 -69 -13 -77 -8 -9 -9 -40 -4
-98 7 -92 -13 -305 -46 -482 -31 -165 -51 -311 -45 -327 7 -19 201 -112 275
-132 95 -26 212 -39 290 -32 374 32 696 85 808 132 27 11 31 16 23 31 -16 29
-59 240 -75 369 -8 66 -17 242 -19 395 l-4 276 131 6 c199 9 366 57 366 104 0
25 -90 265 -125 334 -19 37 -49 107 -69 157 -58 150 -51 143 -198 220 -73 39
-189 93 -258 122 -69 28 -140 60 -158 71 -30 17 -36 18 -62 4 -92 -48 -398
-39 -417 12 -6 16 -8 16 -58 -3z m83 -33 c31 -11 84 -23 117 -26 72 -8 228 9
280 31 33 13 39 13 54 0 9 -8 81 -42 161 -76 79 -34 190 -86 247 -116 l103
-55 -35 -52 c-48 -70 -81 -179 -111 -366 -14 -86 -35 -185 -47 -221 -21 -62
-22 -78 -19 -365 4 -356 22 -519 88 -780 5 -21 1 -25 -53 -40 -90 -26 -284
-61 -433 -79 -395 -45 -452 -45 -604 -1 -111 32 -242 97 -249 124 -4 17 3 75
42 324 6 37 11 89 11 115 0 26 5 76 11 111 5 35 12 105 13 155 2 50 7 152 11
226 7 127 6 141 -19 231 -14 53 -26 119 -26 146 0 28 -9 84 -19 125 -19 75
-99 278 -130 331 -15 28 -15 29 9 49 35 29 158 88 270 131 126 49 253 95 263
96 4 1 33 -8 65 -18z m-603 -323 c15 -40 41 -100 58 -133 41 -83 67 -187 67
-271 0 -38 4 -74 9 -80 8 -9 41 -132 41 -154 0 -14 -207 -6 -290 11 -52 11
-143 51 -184 82 -19 14 -19 15 1 43 11 16 35 67 53 114 112 288 190 460 209
460 4 0 20 -33 36 -72z m1651 -69 c28 -68 64 -151 81 -184 29 -57 83 -197 106
-278 14 -45 11 -48 -79 -76 -80 -25 -195 -41 -300 -41 -81 0 -84 1 -84 23 0
12 12 49 25 82 14 33 25 80 25 105 0 61 35 251 61 330 31 94 80 174 103 167 6
-2 34 -59 62 -128z"/>
<path d="M8970 7704 c-14 -8 -88 -37 -165 -65 -173 -64 -311 -130 -364 -175
-52 -45 -105 -155 -237 -494 -20 -52 -45 -107 -56 -123 -11 -15 -18 -35 -16
-45 4 -22 98 -78 163 -98 58 -17 201 -34 293 -34 l64 0 -6 -62 c-3 -35 -10
-139 -15 -233 -11 -201 -27 -357 -40 -403 -18 -60 -52 -301 -49 -344 l3 -42
89 -44 c190 -92 346 -123 532 -103 60 7 172 19 249 27 265 28 555 95 546 125
-58 202 -92 454 -93 694 0 135 -5 212 -13 236 -8 20 -16 62 -20 93 l-7 56 103
0 c122 0 295 22 359 45 50 18 80 41 80 62 0 26 -90 264 -129 342 -21 42 -57
124 -80 182 -23 58 -51 115 -64 126 -12 11 -51 35 -87 53 -36 18 -83 42 -105
55 -22 12 -105 50 -185 84 -80 33 -158 69 -175 79 -29 18 -32 18 -70 1 -65
-29 -216 -41 -308 -24 -43 7 -89 21 -102 29 -29 19 -61 19 -95 0z m120 -30
c69 -28 293 -25 375 3 53 19 62 20 76 7 9 -8 83 -43 165 -78 115 -49 326 -152
353 -172 1 -1 -13 -29 -33 -61 -45 -74 -78 -171 -100 -298 -20 -115 -41 -193
-67 -250 -27 -61 -49 -140 -49 -177 0 -18 9 -70 20 -116 16 -67 20 -118 20
-257 0 -99 7 -225 15 -291 13 -100 25 -162 71 -375 6 -25 3 -27 -73 -47 -101
-27 -274 -59 -388 -72 -257 -28 -385 -40 -435 -40 -117 0 -309 55 -420 120
-34 20 -46 33 -48 55 -2 16 8 110 21 209 33 235 48 379 58 551 4 77 11 174 14
215 7 66 4 89 -24 192 -17 64 -31 139 -31 166 0 27 -9 83 -19 124 -20 77 -101
285 -128 326 -19 31 -12 46 39 78 91 58 496 218 528 210 8 -3 35 -13 60 -22z
m-615 -350 c20 -53 48 -116 61 -140 34 -64 56 -158 58 -244 1 -41 5 -81 10
-89 13 -20 45 -149 38 -155 -11 -11 -198 -5 -276 9 -80 14 -173 54 -202 87
-16 17 -16 21 10 67 15 28 44 96 65 153 47 124 146 354 167 385 8 13 18 23 23
23 4 0 25 -43 46 -96z m1655 9 c18 -43 38 -94 45 -113 7 -20 29 -68 48 -107
37 -73 127 -311 127 -336 0 -19 -59 -43 -155 -62 -92 -19 -355 -33 -355 -19 0
15 36 126 55 169 9 22 28 98 41 170 13 71 31 155 40 185 26 91 83 190 109 190
7 0 28 -35 45 -77z"/>
<path d="M9140 6786 c0 -61 -15 -83 -61 -93 -35 -7 -38 -23 -5 -23 14 0 38 12
55 26 28 23 31 31 31 85 0 33 -4 59 -10 59 -5 0 -10 -24 -10 -54z"/>
<path d="M9300 6777 c0 -58 19 -87 56 -87 16 1 15 4 -8 21 -24 18 -28 28 -28
70 0 27 -4 49 -10 49 -5 0 -10 -24 -10 -53z"/>
</g>
</svg>
