<?xml version="1.0" standalone="no"?>
<!DOCTYPE svg PUBLIC "-//W3C//DTD SVG 20010904//EN"
 "http://www.w3.org/TR/2001/REC-SVG-20010904/DTD/svg10.dtd">
<svg version="1.0" xmlns="http://www.w3.org/2000/svg"
 width="1500.000000pt" height="936.000000pt" viewBox="0 0 1500.000000 936.000000"
 preserveAspectRatio="xMidYMid meet">

 <defs>
  <pattern id="fabricPattern" patternUnits="objectBoundingBox" width="1" height="1">
    <image href="fabric1.jpg" width="100%" height="100%" />
  </pattern>
</defs>


<g transform="translate(0.000000,936.000000) scale(0.100000,-0.100000)"
fill="#000000" stroke="none">
<path d="M5330 7652 c0 -4 -12 -13 -27 -19 -48 -21 -100 -71 -122 -116 -35
-72 -51 -278 -81 -1032 -5 -115 -16 -246 -24 -290 -33 -167 -37 -220 -32 -369
4 -132 26 -336 42 -400 3 -13 -13 -60 -45 -127 -27 -58 -64 -141 -81 -183 -38
-97 -33 -109 45 -100 53 7 53 6 57 -22 3 -27 6 -29 51 -32 42 -3 47 -5 47 -28
0 -21 4 -24 40 -24 55 0 158 30 199 57 19 13 38 23 44 23 15 0 77 67 77 84 0
8 -4 17 -10 21 -5 3 -45 80 -89 170 l-80 165 5 137 c3 76 12 170 21 210 16 77
17 65 -26 378 -5 33 -7 76 -4 95 11 92 35 224 48 267 13 45 33 219 36 323 1
25 -3 69 -10 98 -11 54 -19 159 -42 525 -10 150 -16 197 -26 197 -7 0 -13 -3
-13 -8z m4 -114 c4 -40 11 -154 16 -253 11 -198 27 -356 40 -390 11 -28 -15
-302 -35 -375 -49 -182 -53 -296 -19 -552 14 -105 15 -125 1 -195 -9 -43 -19
-155 -22 -250 l-7 -172 -25 10 c-18 7 -43 5 -86 -6 -33 -8 -62 -14 -63 -12
-16 16 -55 308 -61 457 -5 134 1 213 33 395 9 50 20 189 24 310 22 583 38 831
61 954 9 43 20 63 58 102 66 68 77 65 85 -23z m108 -2381 c29 -55 41 -90 35
-94 -6 -4 -13 -1 -15 6 -2 6 -20 35 -39 64 -63 94 -93 162 -93 214 l0 48 33
-75 c18 -41 54 -114 79 -163z m-337 63 c-7 -47 -18 -104 -24 -126 -11 -41 -12
-42 -64 -47 -28 -2 -53 -4 -53 -3 -1 0 28 72 65 158 62 149 67 156 77 130 9
-20 9 -48 -1 -112z m167 32 c9 -48 29 -121 43 -162 42 -122 43 -117 -1 -128
-22 -6 -46 -10 -54 -11 -8 0 -27 -3 -42 -7 l-28 -6 0 88 c0 49 7 116 15 149 8
33 14 84 15 113 0 43 3 52 18 52 14 0 20 -17 34 -88z m-76 65 c3 -8 -4 -58
-16 -112 -11 -54 -20 -124 -20 -157 l0 -58 -35 0 c-19 0 -35 2 -35 5 0 2 9 42
19 87 11 46 22 115 26 153 4 39 12 76 17 83 14 16 37 15 44 -1z m124 -60 c12
-31 40 -82 61 -112 36 -51 69 -108 69 -118 0 -9 -59 -29 -69 -23 -11 7 -52
130 -76 226 -9 36 -19 74 -22 85 -11 39 14 0 37 -58z"/>
<path d="M6482 7553 c-7 -60 -17 -193 -23 -298 -5 -104 -17 -237 -25 -295 -13
-89 -14 -124 -4 -230 7 -69 20 -159 30 -200 25 -103 50 -252 50 -299 0 -21
-10 -113 -21 -202 -18 -139 -20 -176 -10 -239 6 -41 15 -138 21 -215 l10 -140
-92 -186 -93 -187 36 -35 c20 -20 49 -42 65 -48 16 -7 36 -18 44 -24 24 -18
144 -47 181 -43 26 2 35 8 37 26 3 19 9 22 47 22 45 0 60 15 48 47 -6 14 0 15
48 11 64 -6 79 -2 79 22 0 19 -65 178 -120 294 -32 67 -32 70 -21 135 34 199
46 530 22 626 -27 111 -44 248 -46 395 -6 270 -23 619 -40 800 -13 143 -21
184 -40 226 -28 58 -123 142 -161 144 -6 0 -15 -44 -22 -107z m115 14 c45 -40
61 -95 77 -262 19 -185 38 -568 41 -800 1 -125 9 -204 35 -365 29 -182 32
-219 26 -325 -10 -176 -49 -459 -65 -469 -3 -3 -31 2 -61 10 -39 10 -63 11
-82 5 -29 -10 -33 -5 -28 29 3 23 -19 294 -32 386 -9 66 -8 107 5 215 32 273
30 319 -22 539 -10 41 -24 131 -31 200 -10 106 -10 141 4 230 8 58 20 197 26
310 10 199 16 265 27 323 5 28 5 28 31 11 15 -9 37 -26 49 -37z m-97 -2304
c-40 -86 -140 -228 -140 -200 0 2 31 66 69 143 38 76 72 150 77 164 8 22 9 20
12 -19 2 -28 -4 -58 -18 -88z m311 -46 c77 -180 77 -181 48 -174 -13 4 -36 7
-52 7 -35 0 -43 21 -62 155 -13 93 -12 145 4 145 3 0 31 -60 62 -133z m-184
58 c2 -33 8 -73 14 -90 6 -16 13 -79 16 -139 l6 -109 -29 7 c-16 4 -49 9 -73
12 -66 7 -73 17 -51 70 22 50 65 207 75 272 5 31 11 42 22 40 12 -2 17 -19 20
-63z m-88 -55 c-36 -135 -67 -220 -80 -220 -9 0 -47 17 -57 25 -4 4 40 86 84
155 19 30 42 76 52 103 30 85 31 49 1 -63z m149 101 c8 -4 19 -52 27 -112 8
-57 21 -130 29 -161 l14 -58 -32 0 -33 0 -7 84 c-3 47 -10 95 -15 108 -5 13
-12 51 -16 86 -7 64 -1 75 33 53z"/>
<path d="M8335 7640 c-62 -30 -111 -76 -134 -123 -35 -72 -51 -278 -81 -1032
-5 -115 -16 -246 -24 -290 -34 -174 -38 -221 -33 -370 6 -132 27 -337 43 -399
3 -13 -13 -60 -45 -127 -27 -58 -64 -141 -81 -183 -38 -97 -33 -109 45 -100
53 7 53 6 57 -22 3 -27 6 -29 51 -32 42 -3 47 -5 47 -28 0 -21 4 -24 40 -24
49 0 159 28 180 46 9 7 32 20 53 29 39 16 58 53 38 77 -58 70 -135 216 -146
278 -12 66 -7 168 10 221 17 49 21 75 32 184 10 100 7 171 -15 330 -11 78 -17
156 -15 175 11 88 35 224 48 267 26 85 40 321 27 431 -11 92 -30 421 -35 616
-1 49 -6 91 -12 93 -5 1 -28 -6 -50 -17z m39 -227 c3 -115 12 -269 19 -343 19
-215 13 -416 -16 -546 -54 -233 -57 -309 -21 -549 14 -90 14 -113 -1 -230 -9
-71 -23 -152 -30 -180 -8 -27 -17 -85 -20 -128 -4 -42 -11 -75 -16 -71 -5 3
-37 -2 -70 -11 -34 -8 -64 -14 -65 -12 -16 16 -55 308 -61 457 -5 134 1 212
33 395 9 50 20 191 24 315 21 566 38 828 61 946 6 31 22 65 41 88 31 38 83 76
104 76 7 0 13 -68 18 -207z m-249 -2193 c-7 -47 -18 -104 -24 -126 -11 -41
-12 -42 -64 -47 -28 -2 -53 -4 -53 -3 -1 0 28 72 65 158 62 149 67 156 77 130
9 -20 9 -48 -1 -112z m167 32 c9 -48 29 -121 43 -162 43 -120 43 -117 -1 -128
-22 -6 -46 -10 -54 -11 -8 0 -27 -3 -42 -7 l-28 -6 0 88 c0 49 7 116 15 149 8
33 14 84 15 113 0 43 3 52 18 52 14 0 20 -17 34 -88z m-76 65 c2 -7 -5 -59
-16 -116 -11 -56 -20 -127 -20 -157 l0 -54 -35 0 c-19 0 -35 5 -35 11 0 6 9
45 19 87 11 43 23 109 26 147 4 39 12 76 17 83 13 16 37 16 44 -1z m124 -60
c12 -31 40 -82 61 -112 41 -59 73 -115 67 -120 -2 -1 -17 -10 -35 -19 l-32
-16 -21 58 c-18 47 -80 265 -80 282 0 14 20 -23 40 -73z"/>
<path d="M9507 7653 c-4 -7 -14 -152 -32 -507 -3 -49 -10 -119 -16 -155 -17
-95 -5 -364 20 -461 25 -96 51 -249 51 -299 0 -21 -10 -113 -21 -202 -19 -144
-20 -173 -9 -239 6 -41 16 -79 20 -85 5 -5 13 -35 18 -65 6 -30 16 -68 22 -85
6 -16 14 -66 17 -110 5 -73 4 -82 -16 -99 -11 -11 -21 -25 -21 -33 0 -21 -45
-105 -101 -187 -61 -91 -62 -112 -1 -143 24 -12 48 -26 55 -31 21 -16 143 -44
178 -40 26 2 35 8 37 26 3 19 9 22 48 22 45 0 50 6 44 49 -1 11 10 13 52 9 63
-6 78 -2 78 22 0 19 -65 178 -120 294 -32 67 -32 70 -21 135 34 199 46 530 22
626 -27 111 -44 248 -46 395 -6 275 -23 620 -40 800 -20 212 -36 256 -118 318
-55 41 -92 58 -100 45z m80 -62 c77 -56 90 -95 113 -331 14 -147 32 -548 35
-755 1 -125 9 -205 35 -365 35 -225 36 -310 5 -560 -22 -170 -37 -235 -55
-233 -8 1 -35 5 -60 10 l-45 9 -7 74 c-9 96 -43 250 -63 289 -25 49 -29 136
-12 271 32 253 29 324 -20 515 -24 96 -38 252 -32 360 5 85 22 337 45 663 3
45 9 82 13 82 5 0 26 -13 48 -29z m244 -2374 c77 -180 77 -181 48 -174 -13 4
-36 7 -52 7 -35 0 -43 21 -63 152 -13 90 -11 148 5 148 3 0 31 -60 62 -133z
m-184 58 c2 -33 8 -73 14 -90 6 -16 13 -79 16 -139 l6 -109 -29 7 c-29 7 -60
11 -99 15 -42 3 -47 15 -26 63 22 51 66 211 76 276 5 31 11 42 22 40 12 -2 17
-19 20 -63z m-83 -37 c-13 -51 -36 -128 -51 -170 l-26 -77 -31 16 c-17 8 -32
17 -34 18 -4 4 40 86 84 155 19 30 42 76 52 103 28 79 32 53 6 -45z m144 83
c8 -4 18 -41 23 -83 5 -41 18 -114 28 -161 l19 -87 -33 0 -32 0 -7 84 c-3 47
-10 95 -15 108 -5 13 -12 51 -16 86 -7 64 -1 75 33 53z"/>
</g>
</svg>
