<?xml version="1.0" standalone="no"?>
<!DOCTYPE svg PUBLIC "-//W3C//DTD SVG 20010904//EN"
 "http://www.w3.org/TR/2001/REC-SVG-20010904/DTD/svg10.dtd">
<svg version="1.0" xmlns="http://www.w3.org/2000/svg"
 width="1500.000000pt" height="936.000000pt" viewBox="0 0 1500.000000 936.000000"
 preserveAspectRatio="xMidYMid meet">

<g transform="translate(0.000000,936.000000) scale(0.100000,-0.100000)"
fill="#000000" stroke="none">
<path d="M8316 7629 c-64 -24 -97 -56 -134 -133 -49 -101 -50 -113 -11 -133
19 -10 74 -58 122 -107 68 -69 91 -86 98 -75 10 16 12 374 3 432 -7 42 -10 42
-78 16z m54 -208 l0 -199 -62 64 c-34 36 -78 74 -97 86 -20 12 -37 23 -39 24
-8 5 66 150 84 165 20 18 94 58 107 59 4 0 7 -90 7 -199z"/>
<path d="M9515 7630 c-3 -10 -5 -33 -5 -52 1 -18 -2 -115 -6 -215 -9 -228 -8
-229 102 -113 43 45 98 93 121 107 50 29 50 28 -3 140 -39 82 -74 114 -151
136 -49 15 -52 15 -58 -3z m113 -52 c34 -21 52 -48 88 -135 l22 -51 -28 -12
c-16 -6 -62 -47 -104 -90 l-76 -78 0 68 c0 37 3 128 7 203 l6 135 26 -9 c14
-6 41 -19 59 -31z"/>
<path d="M5265 7621 c-50 -22 -89 -68 -121 -140 -42 -95 -42 -96 15 -131 28
-18 82 -65 120 -107 38 -41 74 -72 80 -68 15 8 14 220 -1 358 -13 121 -15 124
-93 88z m59 -43 c3 -18 9 -106 12 -196 l7 -163 -64 66 c-34 36 -79 75 -98 87
-20 12 -37 23 -39 24 -8 5 66 150 84 165 20 17 74 48 85 49 4 0 10 -15 13 -32z"/>
<path d="M6495 7628 c-7 -23 -14 -119 -21 -285 -8 -205 -6 -207 102 -93 43 45
98 93 121 107 50 29 50 28 -3 140 -36 76 -72 111 -133 132 -44 14 -61 14 -66
-1z m92 -43 c44 -26 61 -51 99 -142 l22 -51 -28 -12 c-16 -6 -62 -47 -104 -90
l-76 -78 0 105 c0 124 19 293 33 293 6 0 30 -11 54 -25z"/>
</g>
</svg>
