<?xml version="1.0" standalone="no"?>
<!DOCTYPE svg PUBLIC "-//W3C//DTD SVG 20010904//EN"
 "http://www.w3.org/TR/2001/REC-SVG-20010904/DTD/svg10.dtd">
<svg version="1.0" xmlns="http://www.w3.org/2000/svg"
 width="1500.000000pt" height="936.000000pt" viewBox="0 0 1500.000000 936.000000"
 preserveAspectRatio="xMidYMid meet">

<g transform="translate(0.000000,936.000000) scale(0.100000,-0.100000)"
fill="#000000" stroke="none">
<path d="M5278 7620 c-58 -41 -90 -77 -108 -124 -24 -64 -43 -342 -70 -1011
-5 -115 -16 -246 -24 -290 -41 -212 -45 -308 -20 -560 21 -220 76 -561 94
-579 6 -6 50 -10 100 -11 84 0 90 1 90 20 0 11 2 162 5 336 4 246 8 331 21
380 17 66 15 93 -26 379 -4 30 -6 71 -3 90 12 94 35 225 48 267 34 114 42 391
13 462 -7 15 -14 152 -19 326 -7 304 -12 355 -33 354 -6 0 -37 -18 -68 -39z
m65 -97 c4 -54 7 -181 7 -283 0 -153 4 -200 21 -270 18 -73 20 -103 15 -215
-4 -80 -16 -170 -31 -235 -53 -232 -55 -289 -19 -550 15 -107 15 -121 -1 -205
-14 -72 -18 -149 -19 -386 l-1 -297 -70 -4 c-38 -3 -73 0 -76 4 -5 8 -15 66
-50 283 -24 152 -49 410 -49 500 1 103 7 162 35 325 9 52 21 194 25 315 30
817 45 971 102 1039 28 34 83 76 99 76 3 0 9 -44 12 -97z"/>
<path d="M6476 7633 c-3 -16 -8 -152 -11 -303 -4 -196 -11 -296 -22 -348 -21
-96 -13 -342 16 -452 25 -96 51 -249 51 -299 0 -21 -10 -113 -21 -202 -18
-140 -20 -174 -10 -234 12 -76 29 -464 27 -638 l-1 -109 93 -2 c55 -1 96 3
101 9 16 20 74 374 91 555 15 164 16 424 1 485 -27 111 -44 248 -46 395 -6
269 -23 619 -40 800 -20 220 -37 261 -133 327 -35 24 -69 43 -76 43 -8 0 -16
-12 -20 -27z m104 -53 c60 -47 77 -96 95 -275 18 -186 37 -570 40 -800 1 -125
9 -204 35 -365 29 -182 32 -218 26 -325 -7 -128 -29 -339 -46 -442 -5 -35 -15
-93 -21 -130 -24 -154 -31 -175 -53 -169 -12 3 -45 6 -75 6 l-54 0 6 118 c6
139 -8 476 -24 583 -10 61 -9 100 4 210 32 274 30 321 -23 539 -35 145 -42
354 -14 460 9 36 14 109 14 221 0 91 3 221 7 288 6 117 7 121 27 115 12 -3 37
-18 56 -34z"/>
<path d="M8303 7621 c-61 -39 -94 -76 -113 -125 -24 -64 -43 -342 -70 -1011
-5 -115 -16 -246 -24 -290 -41 -212 -44 -295 -20 -555 21 -233 76 -567 96
-585 9 -8 36 -11 81 -7 l67 4 0 182 c0 129 4 198 15 239 62 237 70 375 38 602
-11 78 -18 156 -16 175 10 83 35 223 47 267 20 70 29 153 16 153 -14 0 -13 36
3 68 11 21 12 62 6 187 -31 675 -35 725 -55 732 -5 2 -37 -14 -71 -36z m61
-33 c6 -30 12 -149 35 -662 9 -200 2 -303 -27 -421 -47 -193 -50 -296 -17
-525 19 -125 12 -239 -20 -380 -15 -63 -31 -133 -36 -155 -4 -22 -8 -113 -9
-201 l0 -161 -47 -6 c-27 -3 -51 -1 -54 5 -3 5 -14 57 -23 116 -9 59 -21 132
-26 162 -5 30 -14 100 -21 155 -6 55 -15 132 -19 170 -19 150 -12 291 25 505
9 52 21 196 25 320 21 564 38 828 61 946 11 55 53 114 103 145 41 25 42 24 50
-13z"/>
<path d="M9486 7608 c-3 -29 -6 -127 -6 -218 0 -190 -15 -426 -31 -484 -14
-51 3 -252 32 -376 29 -126 49 -249 49 -300 0 -25 -9 -112 -20 -195 -23 -173
-25 -223 -8 -262 6 -15 12 -32 13 -38 0 -5 4 -17 8 -25 3 -8 13 -51 22 -95 9
-44 23 -104 32 -134 11 -38 16 -106 17 -239 l2 -187 53 -8 c32 -4 58 -3 65 3
7 5 18 38 24 72 26 140 62 380 72 488 15 164 16 424 1 485 -27 111 -44 248
-46 395 -6 273 -23 620 -40 800 -20 220 -37 261 -133 327 -85 58 -98 57 -106
-9z m111 -24 c45 -34 72 -84 83 -151 25 -161 51 -602 55 -928 1 -125 9 -205
34 -365 30 -185 33 -217 26 -330 -10 -185 -56 -548 -87 -688 -10 -47 -14 -53
-32 -48 -12 3 -28 6 -36 6 -13 0 -15 27 -17 174 -1 138 -6 190 -22 252 -34
130 -73 297 -78 332 -3 19 2 91 10 160 33 260 30 315 -23 532 -29 120 -46 321
-32 378 17 66 31 297 30 499 0 94 3 181 7 193 8 25 33 20 82 -16z"/>
</g>
</svg>
