<?xml version="1.0" standalone="no"?>
<!DOCTYPE svg PUBLIC "-//W3C//DTD SVG 20010904//EN"
 "http://www.w3.org/TR/2001/REC-SVG-20010904/DTD/svg10.dtd">
<svg version="1.0" xmlns="http://www.w3.org/2000/svg"
 width="1500.000000pt" height="936.000000pt" viewBox="0 0 1500.000000 936.000000"
 preserveAspectRatio="xMidYMid meet">

<g transform="translate(0.000000,936.000000) scale(0.100000,-0.100000)"
fill="#000000" stroke="none">
<path d="M8145 7637 c-24 -23 -48 -60 -55 -82 -17 -55 -22 -191 -13 -304 l8
-94 67 -22 c67 -23 192 -87 203 -105 13 -21 34 -8 50 32 14 36 15 69 10 247
-6 228 -11 273 -31 313 -23 45 -52 58 -128 58 -67 0 -69 -1 -111 -43z m195 3
c27 -15 38 -88 46 -305 8 -231 8 -214 -8 -253 l-13 -32 -65 45 c-35 25 -92 54
-125 64 l-60 19 -6 58 c-22 198 -2 332 58 384 29 26 41 30 94 30 33 0 69 -4
79 -10z"/>
<path d="M9554 7661 c-28 -17 -32 -26 -43 -95 -6 -42 -16 -143 -21 -224 -6
-81 -12 -160 -15 -177 -5 -30 13 -105 35 -145 l12 -22 26 24 c45 41 125 84
203 111 l74 24 9 129 c13 201 -13 312 -87 368 -28 22 -45 26 -98 26 -45 0 -73
-6 -95 -19z m191 -44 c55 -55 73 -166 58 -347 l-8 -94 -38 -8 c-49 -10 -110
-41 -174 -89 l-51 -38 -15 44 c-14 39 -14 65 -1 222 20 251 30 315 50 330 10
7 46 13 82 13 59 0 67 -3 97 -33z"/>
<path d="M5124 7638 c-55 -49 -76 -106 -81 -218 -2 -52 -1 -135 4 -184 l8 -89
65 -21 c78 -27 196 -91 209 -114 12 -22 25 -9 41 41 16 52 14 259 -6 432 -19
175 -27 185 -134 185 -64 0 -72 -3 -106 -32z m182 -6 c16 -10 35 -168 44 -362
7 -158 1 -220 -21 -220 -5 0 -32 17 -61 37 -29 21 -82 48 -118 60 l-65 22 -6
58 c-22 193 -3 321 56 380 30 30 38 33 97 33 34 0 68 -4 74 -8z"/>
<path d="M6528 7655 c-15 -9 -29 -26 -32 -42 -14 -70 -26 -202 -32 -354 -6
-146 -4 -172 11 -213 19 -50 26 -54 45 -31 21 25 136 86 208 110 l67 22 9 129
c13 201 -13 312 -87 368 -28 22 -44 26 -98 26 -36 -1 -76 -7 -91 -15z m187
-48 c55 -55 73 -166 58 -347 l-8 -94 -38 -8 c-47 -10 -108 -40 -169 -85 l-48
-35 -10 28 c-15 39 -15 43 -7 209 11 205 27 333 44 351 10 9 36 14 80 14 60 0
67 -2 98 -33z"/>
</g>
</svg>
